SplineFontDB: 3.0
FontName: Besley-Italic
FullName: Besley Italic
FamilyName: Besley
Weight: Book
Copyright: Copyright 2020 The Besley Project Authors (https://github.com/indestructible-type)
UComments: "2016-4-15: Created with FontForge (http://fontforge.org)"
Version: 002.100
ItalicAngle: -13
UnderlinePosition: -200
UnderlineWidth: 100
Ascent: 1600
Descent: 400
InvalidEm: 0
LayerCount: 2
Layer: 0 0 "Back" 1
Layer: 1 0 "Fore" 0
XUID: [1021 31 -699969567 16487490]
FSType: 0
OS2Version: 0
OS2_WeightWidthSlopeOnly: 0
OS2_UseTypoMetrics: 1
CreationTime: 1460762150
ModificationTime: 1650790644
PfmFamily: 17
TTFWeight: 400
TTFWidth: 5
LineGap: 0
VLineGap: 0
OS2TypoAscent: 2500
OS2TypoAOffset: 0
OS2TypoDescent: -850
OS2TypoDOffset: 0
OS2TypoLinegap: 0
OS2WinAscent: 2500
OS2WinAOffset: 0
OS2WinDescent: 850
OS2WinDOffset: 0
HheadAscent: 2500
HheadAOffset: 0
HheadDescent: -850
HheadDOffset: 0
OS2CapHeight: 1500
OS2XHeight: 1040
OS2FamilyClass: 1024
OS2Vendor: 'it* '
OS2UnicodeRanges: 00000001.00000000.00000000.00000000
Lookup: 4 0 1 "'liga' Standard Ligatures lookup 0" { "'liga' Standard Ligatures lookup 0 subtable"  } ['liga' ('DFLT' <'dflt' > 'grek' <'dflt' > 'latn' <'dflt' > ) ]
Lookup: 1 0 0 "'onum' Oldstyle Figures lookup 1" { "'onum' Oldstyle Figures lookup 1 subtable" ("oldstyle") } ['onum' ('DFLT' <'dflt' > 'grek' <'dflt' > 'latn' <'dflt' > ) ]
Lookup: 1 0 0 "'tnum' Tabular Numbers lookup 2" { "'tnum' Tabular Numbers lookup 2 subtable"  } ['tnum' ('DFLT' <'dflt' > 'grek' <'dflt' > 'latn' <'dflt' > ) ]
Lookup: 1 0 0 "'ss01' Style Set 1 lookup 3" { "'ss01' Style Set 1 lookup 3 subtable"  } ['ss01' ('DFLT' <'dflt' > 'grek' <'dflt' > 'latn' <'dflt' > ) ]
Lookup: 6 0 0 "'calt' Contextual Alternates lookup 4" { "'calt' Contextual Alternates lookup 4 contextual 0"  "'calt' Contextual Alternates lookup 4 contextual 1"  } ['calt' ('DFLT' <'dflt' > 'grek' <'dflt' > 'latn' <'dflt' > ) ]

StartChar: ampersand
Encoding: 38 38 0
Width: 1740
Flags: HMW
LayerCount: 2
Fore
SplineSet
1356 728 m 0
 1286 728 1248 776 1248 852 c 0
 1248 912 1300 978 1398 978 c 0
 1534 978 1580 892 1580 770 c 0
 1580 607 1379 365 1103 192 c 0
 1079 177 1078 175 1090 147 c 0
 1113 93 1141 64 1206 64 c 0
 1264 64 1301 96 1339 158 c 0
 1345 169 1345 170 1358 165 c 2
 1402 147 l 2
 1424 138 1418 132 1408 111 c 0
 1369 29 1281 -60 1122 -60 c 0
 1024 -60 956 -12 906 60 c 0
 893 79 894 82 870 72 c 0
 732 15 584 -20 440 -20 c 0
 154 -20 2 114 2 320 c 0
 2 628 258 760 523 868 c 0
 573 888 570 890 550 940 c 0
 516 1024 498 1096 498 1166 c 0
 498 1346 688 1520 980 1520 c 0
 1154 1520 1292 1470 1292 1310 c 0
 1292 1101 1102 999 882 909 c 0
 810 880 809 880 837 806 c 6
 1029 308 l 2
 1042 273 1042 271 1072 290 c 0
 1302 434 1462 627 1462 718 c 0
 1462 750 1458 760 1442 760 c 0
 1418 760 1424 728 1356 728 c 0
222 360 m 0
 222 216 302 110 510 110 c 0
 615 110 718 131 817 166 c 0
 847 177 845 178 834 207 c 2
 623 752 l 2
 601 808 589 790 540 766 c 0
 362 678 222 562 222 360 c 0
1104 1320 m 0
 1104 1394 1064 1440 978 1440 c 0
 804 1440 708 1346 708 1240 c 0
 708 1182 725 1110 761 1008 c 0
 777 964 783 972 822 991 c 4
 983 1068 1104 1161 1104 1320 c 0
EndSplineSet
EndChar

StartChar: period
Encoding: 46 46 1
Width: 564
VWidth: 2190
Flags: HMW
LayerCount: 2
Fore
SplineSet
-7 100 m 0
 -7 173 52 232 125 232 c 0
 198 232 257 173 257 100 c 0
 257 27 198 -32 125 -32 c 0
 52 -32 -7 27 -7 100 c 0
EndSplineSet
EndChar

StartChar: zero
Encoding: 48 48 2
Width: 1180
Flags: HMW
LayerCount: 2
Fore
SplineSet
79 750 m 0
 199 1316 502 1520 748 1520 c 0
 1034 1520 1219 1316 1099 750 c 0
 979 184 697 -20 441 -20 c 0
 195 -20 -41 184 79 750 c 0
299 750 m 0
 196 266 269 80 437 80 c 0
 615 80 776 266 879 750 c 0
 982 1234 920 1420 742 1420 c 0
 574 1420 402 1234 299 750 c 0
EndSplineSet
Substitution2: "'tnum' Tabular Numbers lookup 2 subtable" uniFF10
Substitution2: "'onum' Oldstyle Figures lookup 1 subtable" zero.oldstyle
EndChar

StartChar: one
Encoding: 49 49 3
Width: 1050
VWidth: 2310
Flags: HMW
LayerCount: 2
Fore
SplineSet
-40 38 m 2
 -40 80 l 2
 -40 109 -29 110 0 110 c 2
 258 110 l 6
 294 110 303 120 310 152 c 2
 530 1173 l 2
 530 1209 527 1220 492 1220 c 2
 288 1220 l 2
 259 1220 244 1222 244 1254 c 2
 244 1284 l 2
 244 1320 248 1330 286 1330 c 0
 480 1331 580 1345 687 1538 c 0
 698 1558 705 1580 738 1580 c 2
 766 1580 l 2
 791 1580 805 1578 800 1554 c 2
 500 162 l 2
 490 117 506 110 554 110 c 2
 766 110 l 2
 792 110 810 109 810 80 c 2
 810 40 l 2
 810 8 807 0 776 0 c 2
 -6 0 l 2
 -36 0 -40 7 -40 38 c 2
EndSplineSet
Substitution2: "'tnum' Tabular Numbers lookup 2 subtable" uniFF11
Substitution2: "'onum' Oldstyle Figures lookup 1 subtable" one.oldstyle
EndChar

StartChar: two
Encoding: 50 50 4
Width: 1140
VWidth: 2310
Flags: HMW
LayerCount: 2
Fore
SplineSet
970 325 m 0
 985 63 813 -20 640 -20 c 0
 426 -20 306 100 160 100 c 0
 101 100 70 73 50 30 c 0
 43 13 38 0 11 0 c 2
 -37 0 l 2
 -58 0 -60 10 -60 29 c 0
 -51 307 226 517 514 698 c 0
 662 791 934 992 934 1220 c 0
 934 1378 832 1436 674 1436 c 0
 516 1436 370 1348 370 1294 c 0
 370 1248 464 1238 464 1146 c 0
 464 1072 399 1030 345 1030 c 0
 277 1030 212 1076 212 1162 c 0
 212 1346 410 1520 704 1520 c 0
 966 1520 1156 1430 1156 1200 c 0
 1156 960 847 740 564 600 c 0
 367 502 150 319 67 204 c 0
 43 170 30 134 46 134 c 0
 65 134 63 163 90 191 c 0
 136 238 240 269 320 269 c 0
 470 269 550 181 702 181 c 0
 819 181 868 235 875 327 c 0
 878 350 877 354 903 354 c 2
 944 354 l 2
 967 354 969 349 970 325 c 0
EndSplineSet
Substitution2: "'tnum' Tabular Numbers lookup 2 subtable" uniFF12
Substitution2: "'onum' Oldstyle Figures lookup 1 subtable" two.oldstyle
EndChar

StartChar: three
Encoding: 51 51 5
Width: 1060
VWidth: 2310
Flags: HMW
LayerCount: 2
Fore
SplineSet
-70 298 m 0
 -70 394 0 430 58 430 c 0
 112 430 172 388 172 314 c 0
 172 242 108 232 108 186 c 0
 108 132 194 64 362 64 c 0
 580 64 718 272 718 450 c 4
 718 584 672 685 474 717 c 0
 428 724 384 703 384 762 c 2
 384 780 l 2
 384 839 429 819 474 826 c 0
 725 864 838 1056 838 1242 c 0
 838 1360 730 1436 582 1436 c 0
 454 1436 388 1370 388 1316 c 0
 388 1270 452 1260 452 1188 c 0
 452 1114 392 1072 338 1072 c 0
 280 1072 210 1108 210 1204 c 0
 210 1368 338 1520 622 1520 c 0
 854 1520 1040 1422 1040 1212 c 0
 1040 986 906 896 732 814 c 0
 657 779 646 792 646 770 c 0
 646 754 684 759 726 743 c 4
 854 693 920 604 920 450 c 4
 920 180 704 -20 382 -20 c 4
 78 -20 -70 134 -70 298 c 0
EndSplineSet
Substitution2: "'tnum' Tabular Numbers lookup 2 subtable" uniFF13
Substitution2: "'onum' Oldstyle Figures lookup 1 subtable" three.oldstyle
EndChar

StartChar: four
Encoding: 52 52 6
Width: 1080
VWidth: 2310
Flags: HMW
LayerCount: 2
Fore
SplineSet
880 84 m 2
 880 26 l 2
 880 3 873 0 849 0 c 2
 382 0 l 2
 357 0 350 5 350 32 c 2
 350 77 l 2
 350 103 355 110 380 110 c 2
 522 110 l 2
 543 110 556 116 560 135 c 2
 620 422 l 2
 626 452 617 460 587 460 c 2
 114 460 l 2
 84 460 77 463 63 477 c 2
 37 503 l 2
 18 522 23 528 34 555 c 0
 174 886 756 1050 858 1447 c 0
 866 1477 858 1500 899 1500 c 2
 1008 1500 l 2
 1049 1500 1057 1496 1052 1459 c 0
 997 1047 332 844 194 618 c 0
 175 587 183 570 240 570 c 2
 631 570 l 2
 652 570 655 576 659 595 c 2
 684 720 l 2
 690 752 697 752 714 765 c 0
 761 801 830 848 860 938 c 0
 866 955 868 970 893 970 c 2
 899 970 l 2
 925 970 925 962 920 939 c 2
 849 614 l 2
 841 578 854 570 891 570 c 2
 979 570 l 2
 1006 570 1010 563 1010 535 c 2
 1010 490 l 2
 1010 463 1002 460 974 460 c 2
 855 460 l 2
 824 460 816 449 810 421 c 2
 750 146 l 2
 744 116 746 110 778 110 c 6
 845 110 l 2
 870 110 880 109 880 84 c 2
EndSplineSet
Substitution2: "'tnum' Tabular Numbers lookup 2 subtable" uniFF14
Substitution2: "'onum' Oldstyle Figures lookup 1 subtable" four.oldstyle
EndChar

StartChar: five
Encoding: 53 53 7
Width: 1030
VWidth: 2310
Flags: HMW
LayerCount: 2
Fore
SplineSet
-50 278 m 0
 -50 374 20 410 78 410 c 0
 132 410 192 368 192 294 c 0
 192 222 128 212 128 166 c 0
 128 112 214 64 322 64 c 0
 520 64 728 322 728 630 c 0
 728 838 620 902 472 902 c 0
 379 902 306 869 244 803 c 4
 227 785 221 774 183 774 c 2
 141 774 l 2
 103 774 100 790 110 818 c 2
 333 1462 l 2
 343 1491 354 1500 388 1500 c 2
 624 1500 l 2
 846 1500 888 1469 948 1536 c 0
 958 1547 962 1564 987 1564 c 2
 1044 1564 l 2
 1058 1564 1061 1562 1058 1550 c 2
 1046 1500 l 2
 1010 1336 943 1320 469 1320 c 2
 425 1320 l 2
 395 1320 390 1314 380 1288 c 2
 262 966 l 2
 246 922 233 894 241 890 c 0
 254 884 275 907 312 934 c 0
 368 974 458 1000 566 1000 c 0
 768 1000 935 880 935 640 c 0
 935 240 624 -20 342 -20 c 0
 98 -20 -50 114 -50 278 c 0
EndSplineSet
Substitution2: "'tnum' Tabular Numbers lookup 2 subtable" uniFF15
Substitution2: "'onum' Oldstyle Figures lookup 1 subtable" five.oldstyle
EndChar

StartChar: six
Encoding: 54 54 8
Width: 1100
VWidth: 2310
Flags: HMW
LayerCount: 2
Fore
SplineSet
880 1382 m 0
 880 1408 861 1436 783 1436 c 0
 551 1436 415 1203 326 860 c 0
 317 827 310 814 316 810 c 0
 323 806 330 820 351 839 c 0
 434 913 544 960 676 960 c 0
 898 960 1050 800 980 470 c 0
 912 150 696 -20 454 -20 c 4
 132 -20 -24 170 97 740 c 0
 199 1220 469 1520 791 1520 c 0
 955 1520 1052 1416 1052 1302 c 0
 1052 1194 984 1150 926 1150 c 0
 862 1150 807 1190 807 1266 c 0
 807 1338 880 1355 880 1382 c 0
780 470 m 0
 828 698 769 862 611 862 c 0
 445 862 293 720 259 560 c 0
 196 262 245 70 443 70 c 0
 621 70 734 252 780 470 c 0
EndSplineSet
Substitution2: "'tnum' Tabular Numbers lookup 2 subtable" uniFF16
EndChar

StartChar: seven
Encoding: 55 55 9
Width: 1048
VWidth: 2310
Flags: HMW
LayerCount: 2
Fore
SplineSet
170 1162 m 4
 214 1439 345 1520 520 1520 c 4
 714 1520 774 1400 940 1400 c 4
 1014 1400 1046 1433 1066 1483 c 4
 1071 1496 1072 1500 1091 1500 c 6
 1160 1500 l 6
 1183 1500 1179 1492 1176 1471 c 4
 1152 1321 841 956 666 744 c 4
 516 562 448 472 448 384 c 4
 448 268 534 258 534 116 c 4
 534 42 484 -20 396 -20 c 4
 318 -20 244 54 244 192 c 4
 244 370 396 564 558 772 c 4
 663 906 870 1127 943 1254 c 4
 955 1274 965 1291 960 1296 c 4
 955 1301 943 1283 922 1277 c 4
 896 1269 866 1266 830 1266 c 4
 630 1266 610 1334 458 1334 c 4
 337 1334 298 1281 264 1166 c 4
 260 1152 263 1146 248 1146 c 6
 192 1146 l 6
 177 1146 168 1147 170 1162 c 4
EndSplineSet
Substitution2: "'tnum' Tabular Numbers lookup 2 subtable" uniFF17
Substitution2: "'onum' Oldstyle Figures lookup 1 subtable" seven.oldstyle
EndChar

StartChar: eight
Encoding: 56 56 10
Width: 1060
VWidth: 2310
Flags: HMW
LayerCount: 2
Fore
SplineSet
199 420 m 0
 163 252 207 70 385 70 c 0
 563 70 683 252 719 420 c 0
 755 588 712 770 534 770 c 0
 356 770 235 588 199 420 c 0
202 1140 m 0
 249 1360 451 1520 673 1520 c 4
 915 1520 1069 1360 1022 1140 c 0
 989 987 886 880 744 827 c 0
 722 819 708 818 707 811 c 0
 706 805 714 802 735 794 c 0
 885 734 957 598 919 420 c 0
 868 180 668 -20 386 -20 c 4
 124 -20 -52 180 -1 420 c 0
 36 595 161 722 333 784 c 0
 354 792 382 799 384 808 c 0
 386 817 369 820 341 833 c 0
 226 887 170 990 202 1140 c 0
402 1140 m 0
 371 992 413 850 551 850 c 0
 689 850 791 992 822 1140 c 0
 853 1288 812 1430 674 1430 c 0
 536 1430 433 1288 402 1140 c 0
EndSplineSet
Substitution2: "'tnum' Tabular Numbers lookup 2 subtable" uniFF18
EndChar

StartChar: nine
Encoding: 57 57 11
Width: 1100
VWidth: 2310
Flags: HMW
LayerCount: 2
Fore
SplineSet
220 118 m 0
 220 92 239 64 317 64 c 0
 549 64 685 297 774 640 c 0
 783 673 790 686 784 690 c 0
 777 694 770 680 749 661 c 0
 666 587 556 540 424 540 c 0
 202 540 50 700 120 1030 c 0
 188 1350 404 1520 646 1520 c 4
 968 1520 1124 1330 1003 760 c 0
 901 280 631 -20 309 -20 c 0
 145 -20 48 84 48 198 c 0
 48 306 116 350 174 350 c 0
 238 350 293 310 293 234 c 0
 293 162 220 145 220 118 c 0
320 1030 m 0
 272 802 331 638 489 638 c 0
 655 638 807 780 841 940 c 0
 904 1238 855 1430 657 1430 c 0
 479 1430 366 1248 320 1030 c 0
EndSplineSet
Substitution2: "'tnum' Tabular Numbers lookup 2 subtable" uniFF19
Substitution2: "'onum' Oldstyle Figures lookup 1 subtable" nine.oldstyle
EndChar

StartChar: A
Encoding: 65 65 12
Width: 1800
Flags: HMW
AnchorPoint: "Anchor-2" 1286 0 basechar 0
AnchorPoint: "Anchor-1" 686 0 basechar 0
AnchorPoint: "Anchor-0" 1073 1500 basechar 0
AnchorPoint: "Anchor-3" 1286 0 basechar 0
AnchorPoint: "Anchor-2" 686 0 basechar 0
AnchorPoint: "Anchor-0" 1073 1500 basechar 0
LayerCount: 2
Fore
SplineSet
947 1208 m 6
 563 598 l 6
 543 566 515 550 578 550 c 6
 1076 550 l 6
 1127 550 1123 553 1116 596 c 6
 1021 1212 l 6
 1013 1264 1013 1284 998 1284 c 4
 987 1284 972 1248 947 1208 c 6
-100 34 m 6
 -100 72 l 6
 -100 101 -99 110 -70 110 c 6
 78 110 l 6
 115 110 115 122 129 144 c 6
 992 1502 l 6
 1004 1521 1009 1530 1043 1530 c 6
 1108 1530 l 6
 1144 1530 1151 1524 1156 1494 c 6
 1395 160 l 6
 1404 112 1413 110 1470 110 c 6
 1586 110 l 6
 1615 110 1620 104 1620 74 c 6
 1620 34 l 6
 1620 4 1613 0 1582 0 c 6
 1006 0 l 6
 980 0 980 7 980 33 c 6
 980 78 l 6
 980 110 987 110 1019 110 c 6
 1140 110 l 6
 1184 110 1190 113 1184 150 c 6
 1144 412 l 6
 1139 447 1124 440 1086 440 c 6
 512 440 l 6
 479 440 463 440 451 420 c 6
 278 144 l 6
 265 123 264 110 306 110 c 6
 426 110 l 6
 448 110 460 106 460 82 c 6
 460 38 l 6
 460 5 454 0 420 0 c 6
 -72 0 l 6
 -103 0 -100 4 -100 34 c 6
EndSplineSet
Substitution2: "'c2sc' Capitals to Small Capitals in Latin lookup 1 subtable" a.sc
EndChar

StartChar: B
Encoding: 66 66 13
Width: 1484
Flags: HMW
AnchorPoint: "Anchor-1" 546 0 basechar 0
AnchorPoint: "Anchor-0" 833 1500 basechar 0
AnchorPoint: "Anchor-2" 546 0 basechar 0
AnchorPoint: "Anchor-0" 833 1500 basechar 0
LayerCount: 2
Fore
SplineSet
744 0 m 2
 -40 0 l 2
 -74 0 -80 5 -80 41 c 2
 -80 85 l 2
 -80 104 -74 110 -56 110 c 2
 116 110 l 2
 156 110 169 115 176 149 c 2
 433 1353 l 2
 440 1386 436 1390 394 1390 c 2
 236 1390 l 2
 207 1390 196 1393 196 1425 c 2
 196 1479 l 2
 196 1498 204 1500 224 1500 c 2
 1024 1500 l 2
 1326 1500 1444 1310 1444 1150 c 0
 1444 946 1328 832 1124 785 c 0
 1099 779 1089 785 1089 776 c 4
 1089 767 1101 773 1123 767 c 0
 1290 724 1364 621 1364 460 c 0
 1364 220 1226 0 744 0 c 2
724 110 m 2
 1056 110 1144 322 1144 460 c 0
 1144 618 1056 720 884 720 c 2
 534 720 l 2
 501 720 496 711 490 683 c 2
 376 151 l 2
 370 124 367 110 404 110 c 2
 724 110 l 2
564 830 m 2
 864 830 l 2
 1016 830 1244 932 1244 1150 c 0
 1244 1288 1176 1390 1024 1390 c 2
 674 1390 l 2
 639 1390 640 1387 634 1359 c 2
 530 871 l 2
 523 840 522 830 564 830 c 2
EndSplineSet
Substitution2: "'c2sc' Capitals to Small Capitals in Latin lookup 1 subtable" b.sc
EndChar

StartChar: C
Encoding: 67 67 14
Width: 1594
Flags: HMW
AnchorPoint: "Anchor-1" 707 0 basechar 0
AnchorPoint: "Anchor-0" 1025 1500 basechar 0
AnchorPoint: "Anchor-2" 707 0 basechar 0
AnchorPoint: "Anchor-0" 1025 1500 basechar 0
LayerCount: 2
Fore
SplineSet
1432 513 m 0
 1311 273 1085 -20 690 -20 c 0
 344 -20 90 190 90 610 c 0
 90 1032 454 1520 970 1520 c 0
 1195 1520 1336 1448 1422 1346 c 0
 1443 1322 1440 1321 1457 1350 c 2
 1535 1484 l 2
 1542 1496 1552 1500 1572 1500 c 2
 1632 1500 l 2
 1652 1500 1655 1497 1651 1479 c 2
 1552 1023 l 2
 1546 995 1544 990 1510 990 c 2
 1470 990 l 2
 1439 990 1438 997 1440 1022 c 0
 1457 1241 1259 1398 986 1398 c 0
 564 1398 320 960 320 610 c 0
 320 286 448 106 716 106 c 0
 984 106 1196 341 1299 522 c 0
 1308 538 1317 550 1342 550 c 2
 1394 550 l 6
 1440 550 1446 541 1432 513 c 0
EndSplineSet
Substitution2: "'c2sc' Capitals to Small Capitals in Latin lookup 1 subtable" c.sc
EndChar

StartChar: D
Encoding: 68 68 15
Width: 1636
Flags: HMW
AnchorPoint: "Anchor-1" 523 0 basechar 0
AnchorPoint: "Anchor-0" 843 1500 basechar 0
AnchorPoint: "Anchor-2" 523 0 basechar 0
AnchorPoint: "Anchor-0" 843 1500 basechar 0
LayerCount: 2
Fore
SplineSet
-80 32 m 2
 -80 78 l 2
 -80 110 -70 110 -38 110 c 2
 114 110 l 2
 148 110 152 126 158 152 c 2
 411 1338 l 2
 421 1386 418 1390 358 1390 c 2
 232 1390 l 2
 195 1390 194 1399 194 1436 c 2
 194 1458 l 2
 194 1492 197 1500 230 1500 c 2
 946 1500 l 2
 1412 1500 1546 1196 1546 930 c 0
 1546 384 1092 0 646 0 c 2
 -48 0 l 6
 -73 0 -80 5 -80 32 c 2
398 110 m 2
 646 110 l 2
 1014 110 1316 486 1316 970 c 0
 1316 1194 1274 1390 946 1390 c 2
 686 1390 l 2
 629 1390 621 1384 611 1338 c 2
 358 152 l 2
 350 117 352 110 398 110 c 2
EndSplineSet
Substitution2: "'c2sc' Capitals to Small Capitals in Latin lookup 1 subtable" d.sc
EndChar

StartChar: E
Encoding: 69 69 16
Width: 1458
Flags: HMW
AnchorPoint: "Anchor-2" 1046 0 basechar 0
AnchorPoint: "Anchor-1" 606 0 basechar 0
AnchorPoint: "Anchor-0" 903 1500 basechar 0
AnchorPoint: "Anchor-3" 1046 0 basechar 0
AnchorPoint: "Anchor-2" 606 0 basechar 0
AnchorPoint: "Anchor-0" 903 1500 basechar 0
LayerCount: 2
Fore
SplineSet
493 692 m 2
 371 156 l 2
 361 114 366 110 420 110 c 2
 796 110 l 2
 1059 110 1167 189 1246 472 c 0
 1254 500 1251 510 1290 510 c 2
 1320 510 l 2
 1350 510 1355 507 1350 484 c 2
 1247 46 l 2
 1238 7 1231 0 1182 0 c 2
 -44 0 l 2
 -68 0 -80 3 -80 30 c 2
 -80 64 l 2
 -80 102 -77 110 -40 110 c 2
 118 110 l 2
 164 110 162 115 170 152 c 2
 442 1345 l 2
 451 1386 442 1390 392 1390 c 2
 248 1390 l 2
 211 1390 208 1398 208 1436 c 2
 208 1468 l 2
 208 1497 230 1500 256 1500 c 2
 1472 1500 l 2
 1530 1500 1538 1499 1527 1452 c 2
 1440 1072 l 2
 1431 1035 1433 1030 1386 1030 c 2
 1357 1030 l 2
 1324 1030 1335 1051 1339 1074 c 0
 1384 1313 1331 1390 1110 1390 c 2
 710 1390 l 2
 645 1390 649 1381 637 1330 c 2
 531 862 l 2
 522 822 524 816 576 816 c 2
 666 816 l 2
 820 816 913 891 960 1002 c 0
 969 1024 967 1046 999 1046 c 2
 1030 1046 l 2
 1066 1046 1064 1037 1057 1008 c 2
 945 532 l 2
 939 507 943 496 910 496 c 2
 878 496 l 2
 844 496 852 522 854 546 c 0
 864 655 818 736 666 736 c 2
 550 736 l 2
 500 736 502 732 493 692 c 2
EndSplineSet
Substitution2: "'c2sc' Capitals to Small Capitals in Latin lookup 1 subtable" e.sc
EndChar

StartChar: F
Encoding: 70 70 17
Width: 1438
Flags: HMW
AnchorPoint: "Anchor-1" 236 0 basechar 0
AnchorPoint: "Anchor-0" 923 1500 basechar 0
AnchorPoint: "Anchor-2" 236 0 basechar 0
AnchorPoint: "Anchor-0" 923 1500 basechar 0
LayerCount: 2
Fore
SplineSet
-80 42 m 2
 -80 78 l 2
 -80 107 -67 110 -40 110 c 2
 126 110 l 2
 165 110 162 115 169 146 c 2
 442 1350 l 2
 450 1385 447 1390 402 1390 c 2
 258 1390 l 2
 217 1390 208 1391 208 1432 c 2
 208 1466 l 2
 208 1497 219 1500 248 1500 c 2
 1482 1500 l 2
 1539 1500 1538 1496 1527 1449 c 2
 1440 1072 l 2
 1432 1038 1436 1030 1392 1030 c 2
 1364 1030 l 2
 1330 1030 1333 1044 1338 1068 c 0
 1385 1312 1333 1390 1110 1390 c 2
 710 1390 l 2
 655 1390 650 1386 640 1341 c 2
 522 820 l 2
 517 799 523 796 550 796 c 2
 666 796 l 2
 822 796 916 873 962 986 c 0
 970 1006 967 1026 996 1026 c 2
 1036 1026 l 2
 1061 1026 1065 1021 1061 1002 c 2
 941 478 l 2
 937 459 931 456 907 456 c 2
 884 456 l 2
 845 456 851 471 854 500 c 0
 867 612 820 696 666 696 c 2
 524 696 l 2
 505 696 494 696 490 680 c 2
 369 146 l 2
 363 117 364 110 402 110 c 2
 568 110 l 2
 593 110 594 101 594 76 c 2
 594 34 l 2
 594 3 583 0 554 0 c 2
 -46 0 l 2
 -79 0 -80 9 -80 42 c 2
EndSplineSet
Substitution2: "'c2sc' Capitals to Small Capitals in Latin lookup 1 subtable" f.sc
EndChar

StartChar: G
Encoding: 71 71 18
Width: 1734
Flags: HMW
AnchorPoint: "Anchor-1" 677 0 basechar 0
AnchorPoint: "Anchor-0" 1025 1500 basechar 0
AnchorPoint: "Anchor-2" 677 0 basechar 0
AnchorPoint: "Anchor-0" 1025 1500 basechar 0
LayerCount: 2
Fore
SplineSet
1056 740 m 2
 1656 740 l 2
 1679 740 1694 737 1694 712 c 6
 1694 650 l 2
 1694 614 1687 610 1650 610 c 2
 1496 610 l 2
 1460 610 1465 594 1457 568 c 2
 1404 384 l 2
 1396 358 1389 340 1376 320 c 0
 1282 175 1050 -20 708 -20 c 0
 352 -20 90 184 90 610 c 0
 90 1032 454 1520 970 1520 c 0
 1180 1520 1317 1457 1404 1366 c 0
 1438 1331 1435 1314 1463 1362 c 2
 1529 1476 l 2
 1539 1494 1549 1500 1578 1500 c 2
 1622 1500 l 2
 1652 1500 1653 1496 1648 1471 c 2
 1553 1026 l 2
 1547 1000 1542 990 1508 990 c 2
 1466 990 l 2
 1439 990 1437 998 1439 1020 c 0
 1458 1240 1260 1398 986 1398 c 0
 564 1398 320 960 320 610 c 0
 320 306 452 94 710 94 c 0
 899 94 1022 153 1134 257 c 0
 1158 279 1168 293 1179 330 c 2
 1252 580 l 2
 1259 606 1251 610 1222 610 c 2
 1070 610 l 2
 1040 610 1034 615 1034 644 c 2
 1034 714 l 2
 1034 733 1038 740 1056 740 c 2
EndSplineSet
Substitution2: "'c2sc' Capitals to Small Capitals in Latin lookup 1 subtable" g.sc
EndChar

StartChar: H
Encoding: 72 72 19
Width: 1794
Flags: HMW
AnchorPoint: "Anchor-1" 716 0 basechar 0
AnchorPoint: "Anchor-0" 1035 1500 basechar 0
AnchorPoint: "Anchor-2" 716 0 basechar 0
AnchorPoint: "Anchor-0" 1035 1500 basechar 0
LayerCount: 2
Fore
SplineSet
-80 44 m 6
 -80 80 l 6
 -80 108 -65 110 -40 110 c 6
 90 110 l 6
 146 110 166 112 176 160 c 6
 432 1352 l 6
 439 1385 433 1390 396 1390 c 6
 234 1390 l 6
 203 1390 194 1391 194 1422 c 6
 194 1464 l 6
 194 1491 195 1500 222 1500 c 6
 840 1500 l 6
 873 1500 874 1491 874 1458 c 6
 874 1430 l 6
 874 1396 869 1390 836 1390 c 6
 694 1390 l 6
 642 1390 638 1386 629 1343 c 6
 528 872 l 6
 520 835 523 830 570 830 c 6
 1270 830 l 6
 1316 830 1311 840 1319 876 c 6
 1420 1348 l 6
 1428 1384 1425 1390 1384 1390 c 6
 1232 1390 l 6
 1202 1390 1194 1393 1194 1422 c 6
 1194 1468 l 6
 1194 1495 1202 1500 1228 1500 c 6
 1840 1500 l 6
 1874 1500 1874 1500 1874 1466 c 6
 1874 1434 l 6
 1874 1395 1868 1390 1830 1390 c 6
 1684 1390 l 6
 1629 1390 1629 1387 1619 1342 c 6
 1365 156 l 6
 1356 116 1358 110 1410 110 c 6
 1568 110 l 6
 1597 110 1600 102 1600 72 c 6
 1600 32 l 6
 1600 7 1595 0 1568 0 c 6
 964 0 l 6
 931 0 920 3 920 38 c 6
 920 74 l 6
 920 108 933 110 964 110 c 6
 1110 110 l 6
 1156 110 1156 112 1164 150 c 6
 1276 672 l 6
 1285 712 1284 720 1232 720 c 6
 540 720 l 6
 486 720 493 705 484 662 c 6
 373 148 l 6
 366 117 368 110 408 110 c 6
 562 110 l 6
 599 110 600 101 600 64 c 6
 600 38 l 6
 600 7 596 0 566 0 c 6
 -38 0 l 6
 -76 0 -80 8 -80 44 c 6
EndSplineSet
Substitution2: "'c2sc' Capitals to Small Capitals in Latin lookup 1 subtable" h.sc
EndChar

StartChar: I
Encoding: 73 73 20
Width: 796
Flags: HMW
AnchorPoint: "Anchor-2" 242 0 basechar 0
AnchorPoint: "Anchor-1" 242 0 basechar 0
AnchorPoint: "Anchor-0" 565 1500 basechar 0
AnchorPoint: "Anchor-3" 242 0 basechar 0
AnchorPoint: "Anchor-2" 242 0 basechar 0
AnchorPoint: "Anchor-0" 565 1500 basechar 0
LayerCount: 2
Fore
SplineSet
-80 34 m 2
 -80 82 l 2
 -80 105 -72 110 -50 110 c 2
 114 110 l 2
 160 110 166 112 175 151 c 2
 440 1348 l 2
 449 1387 444 1390 394 1390 c 2
 242 1390 l 2
 216 1390 216 1395 216 1421 c 2
 216 1464 l 2
 216 1494 221 1500 250 1500 c 2
 840 1500 l 2
 868 1500 876 1496 876 1466 c 2
 876 1422 l 2
 876 1393 868 1390 838 1390 c 2
 684 1390 l 2
 642 1390 647 1379 640 1346 c 2
 377 150 l 2
 368 111 376 110 424 110 c 2
 556 110 l 2
 598 110 600 102 600 60 c 2
 600 38 l 2
 600 8 597 0 568 0 c 2
 -42 0 l 2
 -73 0 -80 4 -80 34 c 2
EndSplineSet
Substitution2: "'c2sc' Capitals to Small Capitals in Latin lookup 1 subtable" i.sc
EndChar

StartChar: J
Encoding: 74 74 21
Width: 1192
Flags: HMW
AnchorPoint: "Anchor-1" 288 0 basechar 0
AnchorPoint: "Anchor-0" 895 1500 basechar 0
AnchorPoint: "Anchor-2" 288 0 basechar 0
AnchorPoint: "Anchor-0" 895 1500 basechar 0
LayerCount: 2
Fore
SplineSet
-60 290 m 0
 -60 414 18 480 98 480 c 0
 168 480 226 434 226 362 c 0
 226 244 138 276 138 192 c 0
 138 158 168 90 292 90 c 0
 434 90 589 214 652 480 c 2
 851 1362 l 2
 857 1389 849 1390 816 1390 c 2
 644 1390 l 2
 611 1390 602 1391 602 1424 c 2
 602 1460 l 2
 602 1496 610 1500 644 1500 c 2
 1276 1500 l 2
 1295 1500 1312 1497 1312 1476 c 2
 1312 1428 l 2
 1312 1395 1306 1390 1272 1390 c 2
 1088 1390 l 2
 1050 1390 1054 1381 1047 1352 c 2
 852 540 l 2
 772 220 574 -20 292 -20 c 0
 18 -20 -60 150 -60 290 c 0
EndSplineSet
Substitution2: "'c2sc' Capitals to Small Capitals in Latin lookup 1 subtable" j.sc
EndChar

StartChar: K
Encoding: 75 75 22
Width: 1728
Flags: HMW
AnchorPoint: "Anchor-1" 730 0 basechar 0
AnchorPoint: "Anchor-0" 1025 1500 basechar 0
AnchorPoint: "Anchor-2" 730 0 basechar 0
AnchorPoint: "Anchor-0" 1025 1500 basechar 0
LayerCount: 2
Fore
SplineSet
-80 38 m 2
 -80 86 l 2
 -80 109 -71 110 -48 110 c 2
 98 110 l 2
 143 110 147 114 155 151 c 2
 420 1356 l 2
 426 1383 424 1390 388 1390 c 2
 256 1390 l 2
 231 1390 230 1399 230 1424 c 2
 230 1480 l 2
 230 1499 239 1500 258 1500 c 2
 816 1500 l 2
 845 1500 850 1494 850 1464 c 2
 850 1434 l 2
 850 1399 849 1390 814 1390 c 2
 652 1390 l 2
 622 1390 626 1381 621 1358 c 2
 480 720 l 2
 462 637 472 658 520 700 c 2
 1262 1357 l 2
 1288 1380 1297 1390 1234 1390 c 2
 1142 1390 l 2
 1108 1390 1104 1398 1104 1430 c 2
 1104 1466 l 2
 1104 1493 1108 1500 1134 1500 c 2
 1682 1500 l 2
 1707 1500 1708 1491 1708 1466 c 2
 1708 1428 l 2
 1708 1400 1703 1390 1673 1390 c 2
 1540 1390 l 2
 1485 1390 1477 1381 1450 1357 c 2
 892 870 l 2
 848 832 838 834 892 804 c 0
 1266 592 1134 110 1374 110 c 2
 1530 110 l 2
 1567 110 1572 104 1572 66 c 2
 1572 38 l 2
 1572 4 1564 0 1532 0 c 2
 1322 0 l 2
 851 0 1086 495 787 724 c 0
 750 752 745 742 712 713 c 2
 466 499 l 2
 435 472 423 460 412 410 c 2
 353 142 l 2
 347 114 352 110 388 110 c 2
 506 110 l 2
 537 110 540 102 540 70 c 2
 540 30 l 2
 540 0 530 0 500 0 c 2
 -48 0 l 2
 -77 0 -80 8 -80 38 c 2
EndSplineSet
Substitution2: "'c2sc' Capitals to Small Capitals in Latin lookup 1 subtable" k.sc
EndChar

StartChar: L
Encoding: 76 76 23
Width: 1432
Flags: HMW
AnchorPoint: "Anchor-1" 526 0 basechar 0
AnchorPoint: "Anchor-0" 543 1500 basechar 0
AnchorPoint: "Anchor-2" 526 0 basechar 0
AnchorPoint: "Anchor-1" 889 943 basechar 0
AnchorPoint: "Anchor-0" 543 1500 basechar 0
LayerCount: 2
Fore
SplineSet
-80 32 m 2
 -80 84 l 2
 -80 107 -63 110 -42 110 c 2
 118 110 l 2
 169 110 170 112 179 154 c 2
 437 1357 l 2
 443 1387 441 1390 406 1390 c 2
 238 1390 l 2
 209 1390 208 1399 208 1428 c 2
 208 1464 l 2
 208 1491 209 1500 236 1500 c 2
 846 1500 l 2
 873 1500 880 1495 880 1466 c 2
 880 1424 l 2
 880 1397 876 1390 850 1390 c 2
 672 1390 l 2
 638 1390 641 1383 635 1356 c 2
 381 166 l 2
 372 122 378 110 436 110 c 2
 772 110 l 2
 1034 110 1142 189 1221 470 c 0
 1230 501 1234 510 1276 510 c 2
 1304 510 l 2
 1325 510 1330 503 1326 487 c 2
 1222 42 l 2
 1214 9 1209 0 1166 0 c 2
 -40 0 l 2
 -71 0 -80 1 -80 32 c 2
EndSplineSet
Substitution2: "'c2sc' Capitals to Small Capitals in Latin lookup 1 subtable" l.sc
EndChar

StartChar: M
Encoding: 77 77 24
Width: 2046
Flags: HMW
AnchorPoint: "Anchor-1" 816 0 basechar 0
AnchorPoint: "Anchor-0" 1155 1500 basechar 0
AnchorPoint: "Anchor-2" 816 0 basechar 0
AnchorPoint: "Anchor-0" 1155 1500 basechar 0
LayerCount: 2
Fore
SplineSet
1573 1220 m 2
 910 6 l 2
 898 -16 887 -20 852 -20 c 2
 788 -20 l 2
 760 -20 756 -5 753 18 c 2
 590 1298 l 2
 586 1329 592 1354 581 1354 c 0
 573 1354 571 1336 564 1306 c 2
 278 146 l 2
 269 111 276 110 320 110 c 2
 470 110 l 2
 491 110 500 105 500 82 c 2
 500 28 l 2
 500 1 491 0 464 0 c 2
 -62 0 l 2
 -91 0 -100 1 -100 30 c 2
 -100 74 l 2
 -100 103 -96 110 -68 110 c 2
 74 110 l 2
 131 110 134 111 146 156 c 2
 447 1346 l 2
 457 1387 453 1390 400 1390 c 2
 272 1390 l 2
 242 1390 234 1393 234 1422 c 2
 234 1462 l 2
 234 1499 249 1500 282 1500 c 2
 668 1500 l 2
 735 1500 745 1496 752 1434 c 2
 877 360 l 2
 886 285 877 255 897 255 c 0
 915 255 932 302 963 360 c 2
 1561 1468 l 2
 1575 1494 1585 1500 1626 1500 c 2
 2032 1500 l 2
 2056 1500 2066 1496 2066 1470 c 2
 2066 1428 l 2
 2066 1393 2058 1390 2022 1390 c 2
 1866 1390 l 2
 1837 1390 1826 1389 1822 1364 c 2
 1612 148 l 2
 1606 115 1610 110 1650 110 c 2
 1824 110 l 2
 1861 110 1862 102 1862 65 c 2
 1862 38 l 2
 1862 1 1853 0 1816 0 c 2
 1216 0 l 2
 1187 0 1182 6 1182 36 c 2
 1182 68 l 2
 1182 103 1187 110 1224 110 c 2
 1390 110 l 2
 1432 110 1427 118 1433 152 c 2
 1622 1200 l 2
 1639 1292 1654 1331 1638 1331 c 0
 1621 1331 1610 1288 1573 1220 c 2
EndSplineSet
Substitution2: "'c2sc' Capitals to Small Capitals in Latin lookup 1 subtable" m.sc
EndChar

StartChar: N
Encoding: 78 78 25
Width: 1796
Flags: HMW
AnchorPoint: "Anchor-1" 816 0 basechar 0
AnchorPoint: "Anchor-0" 1055 1500 basechar 0
AnchorPoint: "Anchor-2" 816 0 basechar 0
AnchorPoint: "Anchor-0" 1055 1500 basechar 0
LayerCount: 2
Fore
SplineSet
374 1390 m 2
 277 1390 l 2
 248 1390 240 1393 240 1421 c 2
 240 1471 l 2
 240 1495 248 1500 270 1500 c 2
 618 1500 l 2
 660 1500 670 1493 684 1467 c 2
 1256 407 l 2
 1271 380 1273 360 1284 360 c 0
 1294 360 1294 374 1301 409 c 2
 1502 1355 l 2
 1508 1383 1494 1390 1462 1390 c 2
 1324 1390 l 2
 1289 1390 1286 1397 1286 1433 c 2
 1286 1467 l 2
 1286 1496 1295 1500 1322 1500 c 2
 1844 1500 l 2
 1873 1500 1876 1493 1876 1463 c 2
 1876 1423 l 2
 1876 1396 1871 1390 1842 1390 c 2
 1670 1390 l 2
 1635 1390 1636 1387 1630 1359 c 2
 1344 1 l 2
 1341 -14 1339 -20 1319 -20 c 2
 1308 -20 l 2
 1285 -20 1276 -13 1268 1 c 2
 563 1247 l 2
 548 1273 544 1288 536 1288 c 0
 526 1288 528 1273 521 1241 c 2
 286 141 l 2
 279 106 284 110 324 110 c 2
 482 110 l 2
 506 110 520 107 520 81 c 2
 520 41 l 2
 520 2 508 0 472 0 c 2
 -48 0 l 2
 -73 0 -80 3 -80 27 c 2
 -80 75 l 2
 -80 103 -77 110 -50 110 c 2
 124 110 l 2
 157 110 154 115 160 141 c 2
 417 1343 l 2
 425 1382 425 1390 374 1390 c 2
EndSplineSet
Substitution2: "'c2sc' Capitals to Small Capitals in Latin lookup 1 subtable" n.sc
EndChar

StartChar: O
Encoding: 79 79 26
Width: 1660
Flags: HMW
AnchorPoint: "Anchor-1" 666 0 basechar 0
AnchorPoint: "Anchor-0" 985 1500 basechar 0
AnchorPoint: "Anchor-2" 666 0 basechar 0
AnchorPoint: "Anchor-0" 985 1500 basechar 0
LayerCount: 2
Fore
SplineSet
970 1520 m 1
 1356 1520 1570 1286 1570 900 c 0
 1570 434 1176 -20 690 -20 c 1
 690 80 l 1
 1078 80 1340 546 1340 890 c 0
 1340 1194 1258 1420 970 1420 c 1
 970 1520 l 1
690 -20 m 1
 304 -20 90 214 90 600 c 4
 90 1066 484 1520 970 1520 c 1
 970 1420 l 1
 582 1420 320 954 320 610 c 0
 320 306 402 80 690 80 c 1
 690 -20 l 1
EndSplineSet
Substitution2: "'c2sc' Capitals to Small Capitals in Latin lookup 1 subtable" o.sc
EndChar

StartChar: P
Encoding: 80 80 27
Width: 1374
Flags: HMW
AnchorPoint: "Anchor-1" 232 0 basechar 0
AnchorPoint: "Anchor-0" 835 1500 basechar 0
AnchorPoint: "Anchor-2" 232 0 basechar 0
AnchorPoint: "Anchor-0" 835 1500 basechar 0
LayerCount: 2
Fore
SplineSet
536 770 m 2
 754 770 l 2
 946 770 1154 902 1154 1160 c 0
 1154 1258 1126 1390 934 1390 c 2
 656 1390 l 2
 620 1390 620 1388 614 1358 c 2
 498 813 l 2
 490 774 489 770 536 770 c 2
452 610 m 2
 358 160 l 2
 350 120 347 110 400 110 c 2
 542 110 l 2
 573 110 580 105 580 72 c 2
 580 28 l 2
 580 3 568 0 542 0 c 2
 -44 0 l 2
 -71 0 -80 1 -80 28 c 2
 -80 76 l 2
 -80 110 -70 110 -36 110 c 6
 108 110 l 2
 157 110 151 124 159 162 c 2
 414 1353 l 2
 421 1386 420 1390 380 1390 c 2
 250 1390 l 2
 225 1390 220 1397 220 1420 c 2
 220 1466 l 2
 220 1497 231 1500 260 1500 c 2
 934 1500 l 2
 1296 1500 1374 1340 1374 1160 c 0
 1374 820 1116 660 754 660 c 2
 516 660 l 2
 467 660 461 650 452 610 c 2
EndSplineSet
Substitution2: "'c2sc' Capitals to Small Capitals in Latin lookup 1 subtable" p.sc
EndChar

StartChar: Q
Encoding: 81 81 28
Width: 1660
Flags: HMW
AnchorPoint: "Anchor-0" 985 1500 basechar 0
AnchorPoint: "Anchor-0" 985 1500 basechar 0
LayerCount: 2
Fore
SplineSet
320 610 m 4
 320 306 402 80 690 80 c 4
 1078 80 1340 546 1340 890 c 4
 1340 1194 1258 1420 970 1420 c 4
 582 1420 320 954 320 610 c 4
160 -328 m 0
 160 -158 320 -54 478 -54 c 0
 757 -54 867 -408 1002 -408 c 0
 1066 -408 1086 -372 1086 -338 c 0
 1086 -282 1026 -282 1026 -210 c 0
 1026 -136 1092 -94 1146 -94 c 0
 1220 -94 1268 -148 1268 -216 c 0
 1268 -406 1118 -500 960 -500 c 0
 661 -500 601 -146 426 -146 c 0
 364 -146 342 -178 342 -212 c 0
 342 -262 402 -272 402 -344 c 0
 402 -418 342 -460 288 -460 c 0
 214 -460 160 -404 160 -328 c 0
90 600 m 0
 90 1066 484 1520 970 1520 c 0
 1356 1520 1570 1286 1570 900 c 0
 1570 434 1176 -20 690 -20 c 0
 304 -20 90 214 90 600 c 0
EndSplineSet
Substitution2: "'c2sc' Capitals to Small Capitals in Latin lookup 1 subtable" q.sc
EndChar

StartChar: R
Encoding: 82 82 29
Width: 1548
Flags: HMW
AnchorPoint: "Anchor-1" 716 0 basechar 0
AnchorPoint: "Anchor-0" 835 1500 basechar 0
AnchorPoint: "Anchor-2" 716 0 basechar 0
AnchorPoint: "Anchor-0" 835 1500 basechar 0
LayerCount: 2
Fore
SplineSet
1440 143 m 0
 1404 46 1320 -20 1198 -20 c 0
 1030 -20 988 64 988 174 c 0
 988 274 1024 396 1024 496 c 0
 1024 606 984 690 818 690 c 2
 508 690 l 2
 477 690 467 682 461 656 c 2
 355 144 l 2
 349 116 352 110 388 110 c 2
 548 110 l 2
 568 110 580 106 580 84 c 2
 580 40 l 2
 580 9 579 0 548 0 c 2
 -54 0 l 2
 -74 0 -80 6 -80 28 c 2
 -80 76 l 2
 -80 104 -75 110 -48 110 c 2
 114 110 l 2
 154 110 149 119 156 150 c 2
 415 1357 l 2
 421 1386 421 1390 386 1390 c 2
 256 1390 l 2
 223 1390 220 1398 220 1432 c 2
 220 1464 l 2
 220 1499 229 1500 264 1500 c 2
 979 1500 l 2
 1321 1500 1418 1340 1418 1160 c 0
 1418 983 1310 832 1100 765 c 0
 1065 754 1046 755 1046 747 c 0
 1046 738 1064 740 1100 725 c 0
 1202 682 1230 604 1230 512 c 0
 1230 400 1188 262 1188 188 c 4
 1188 144 1216 108 1262 108 c 4
 1299 108 1345 129 1376 179 c 0
 1388 198 1392 200 1413 188 c 2
 1426 180 l 2
 1446 168 1449 168 1440 143 c 0
548 810 m 2
 838 810 l 2
 990 810 1218 942 1218 1160 c 0
 1218 1298 1150 1390 978 1390 c 2
 660 1390 l 2
 626 1390 620 1383 614 1354 c 2
 505 848 l 2
 497 812 503 810 548 810 c 2
EndSplineSet
Substitution2: "'c2sc' Capitals to Small Capitals in Latin lookup 1 subtable" r.sc
Substitution2: "'ss01' Style Set 1 lookup 3 subtable" R.alt
EndChar

StartChar: S
Encoding: 83 83 30
Width: 1298
Flags: HMW
AnchorPoint: "Anchor-1" 595 0 basechar 0
AnchorPoint: "Anchor-0" 835 1500 basechar 0
AnchorPoint: "Anchor-2" 595 0 basechar 0
AnchorPoint: "Anchor-0" 835 1500 basechar 0
LayerCount: 2
Fore
SplineSet
424 1140 m 0
 424 818 1184 950 1184 450 c 0
 1184 150 946 -30 584 -30 c 0
 365 -30 237 28 171 118 c 0
 154 142 152 140 134 111 c 2
 77 18 l 2
 66 0 57 -10 26 -10 c 2
 -23 -10 l 2
 -54 -10 -59 -7 -53 17 c 2
 64 487 l 2
 68 504 76 510 98 510 c 2
 160 510 l 2
 171 510 181 505 178 494 c 0
 103 162 358 78 584 78 c 0
 934 78 984 282 984 400 c 0
 984 802 230 656 230 1096 c 0
 230 1396 556 1530 784 1530 c 0
 931 1530 1044 1486 1124 1405 c 0
 1154 1374 1163 1368 1190 1409 c 2
 1230 1473 l 2
 1242 1491 1242 1500 1273 1500 c 2
 1311 1500 l 2
 1353 1500 1357 1495 1350 1462 c 2
 1260 1039 l 2
 1254 1012 1245 1010 1212 1010 c 2
 1176 1010 l 2
 1135 1010 1137 1020 1141 1052 c 0
 1166 1263 1028 1418 776 1418 c 0
 578 1418 424 1304 424 1140 c 0
EndSplineSet
Substitution2: "'c2sc' Capitals to Small Capitals in Latin lookup 1 subtable" s.sc
EndChar

StartChar: T
Encoding: 84 84 31
Width: 1478
Flags: HMW
AnchorPoint: "Anchor-1" 606 0 basechar 0
AnchorPoint: "Anchor-0" 924 1500 basechar 0
AnchorPoint: "Anchor-2" 606 0 basechar 0
AnchorPoint: "Anchor-0" 924 1500 basechar 0
LayerCount: 2
Fore
SplineSet
242 35 m 6
 242 82 l 6
 242 102 244 110 263 110 c 6
 433 110 l 6
 478 110 487 115 495 153 c 6
 754 1360 l 2
 761 1392 761 1400 719 1400 c 2
 644 1400 l 2
 381 1400 288 1312 210 1028 c 0
 204 1006 201 990 170 990 c 6
 131 990 l 2
 99 990 104 1010 109 1032 c 2
 206 1462 l 6
 213 1492 218 1500 257 1500 c 2
 1523 1500 l 2
 1575 1500 1576 1494 1567 1454 c 2
 1467 1022 l 2
 1461 994 1463 990 1427 990 c 2
 1401 990 l 2
 1360 990 1360 995 1367 1029 c 0
 1424 1316 1388 1400 1124 1400 c 2
 1009 1400 l 2
 972 1400 962 1394 955 1362 c 2
 696 152 l 6
 688 117 690 110 735 110 c 6
 899 110 l 6
 930 110 932 102 932 70 c 6
 932 40 l 6
 932 3 922 0 887 0 c 6
 269 0 l 6
 243 0 242 8 242 35 c 6
EndSplineSet
Substitution2: "'c2sc' Capitals to Small Capitals in Latin lookup 1 subtable" t.sc
EndChar

StartChar: U
Encoding: 85 85 32
Width: 1664
Flags: HMW
AnchorPoint: "Anchor-2" 821 0 basechar 0
AnchorPoint: "Anchor-1" 696 0 basechar 0
AnchorPoint: "Anchor-0" 985 1500 basechar 0
AnchorPoint: "Anchor-3" 821 0 basechar 0
AnchorPoint: "Anchor-2" 696 0 basechar 0
AnchorPoint: "Anchor-0" 985 1500 basechar 0
LayerCount: 2
Fore
SplineSet
596 1356 m 2
 412 620 l 2
 390 534 376 452 376 380 c 0
 376 210 452 90 682 90 c 0
 990 90 1148 256 1232 600 c 2
 1415 1350 l 2
 1423 1382 1423 1390 1379 1390 c 2
 1225 1390 l 2
 1196 1390 1194 1398 1194 1428 c 2
 1194 1470 l 2
 1194 1490 1195 1500 1215 1500 c 2
 1715 1500 l 2
 1751 1500 1764 1498 1764 1460 c 2
 1764 1424 l 2
 1764 1394 1755 1390 1727 1390 c 2
 1589 1390 l 2
 1543 1390 1544 1386 1535 1350 c 2
 1352 600 l 2
 1252 194 1048 -30 652 -30 c 0
 298 -30 180 134 180 364 c 0
 180 438 192 517 212 600 c 2
 395 1346 l 2
 404 1381 405 1390 361 1390 c 2
 231 1390 l 2
 198 1390 194 1399 194 1430 c 2
 194 1468 l 2
 194 1497 201 1500 231 1500 c 2
 795 1500 l 2
 829 1500 834 1494 834 1458 c 2
 834 1420 l 2
 834 1396 828 1390 803 1390 c 2
 635 1390 l 2
 600 1390 603 1383 596 1356 c 2
EndSplineSet
Substitution2: "'c2sc' Capitals to Small Capitals in Latin lookup 1 subtable" u.sc
EndChar

StartChar: V
Encoding: 86 86 33
Width: 1690
Flags: HMW
AnchorPoint: "Anchor-1" 682 0 basechar 0
AnchorPoint: "Anchor-0" 1015 1500 basechar 0
AnchorPoint: "Anchor-2" 682 0 basechar 0
AnchorPoint: "Anchor-0" 1015 1500 basechar 0
LayerCount: 2
Fore
SplineSet
602 13 m 2
 348 1351 l 2
 342 1382 337 1390 297 1390 c 2
 175 1390 l 2
 144 1390 140 1400 140 1429 c 2
 140 1465 l 2
 140 1499 149 1500 183 1500 c 2
 743 1500 l 2
 779 1500 780 1491 780 1455 c 2
 780 1425 l 2
 780 1393 772 1390 739 1390 c 2
 595 1390 l 2
 557 1390 555 1383 561 1349 c 2
 723 369 l 2
 739 270 737 232 752 232 c 0
 771 232 811 291 857 365 c 2
 1478 1354 l 2
 1498 1387 1490 1390 1443 1390 c 2
 1319 1390 l 2
 1289 1390 1280 1391 1280 1421 c 2
 1280 1473 l 2
 1280 1499 1289 1500 1315 1500 c 2
 1799 1500 l 2
 1827 1500 1840 1498 1840 1467 c 2
 1840 1433 l 2
 1840 1398 1837 1390 1803 1390 c 2
 1689 1390 l 2
 1643 1390 1638 1386 1621 1359 c 2
 766 5 l 2
 750 -20 740 -30 697 -30 c 2
 659 -30 l 2
 615 -30 609 -23 602 13 c 2
EndSplineSet
Substitution2: "'c2sc' Capitals to Small Capitals in Latin lookup 1 subtable" v.sc
EndChar

StartChar: W
Encoding: 87 87 34
Width: 2338
Flags: HMW
AnchorPoint: "Anchor-1" 1026 0 basechar 0
AnchorPoint: "Anchor-0" 1385 1500 basechar 0
AnchorPoint: "Anchor-2" 1026 0 basechar 0
AnchorPoint: "Anchor-0" 1385 1500 basechar 0
LayerCount: 2
Fore
SplineSet
781 398 m 2
 1227 1142 l 2
 1245 1172 1252 1185 1247 1232 c 2
 1233 1366 l 2
 1231 1387 1223 1390 1200 1390 c 2
 1076 1390 l 2
 1050 1390 1042 1393 1042 1418 c 2
 1042 1456 l 2
 1042 1495 1048 1500 1086 1500 c 2
 1574 1500 l 2
 1598 1500 1602 1493 1602 1468 c 2
 1602 1424 l 2
 1602 1393 1594 1390 1562 1390 c 2
 1466 1390 l 2
 1428 1390 1428 1386 1431 1351 c 2
 1512 466 l 2
 1524 335 1504 294 1532 294 c 4
 1555 294 1594 391 1632 462 c 2
 2112 1354 l 2
 2130 1388 2126 1390 2072 1390 c 2
 1974 1390 l 2
 1944 1390 1940 1398 1940 1426 c 2
 1940 1478 l 2
 1940 1500 1940 1500 1962 1500 c 2
 2448 1500 l 2
 2473 1500 2488 1498 2488 1470 c 2
 2488 1426 l 2
 2488 1400 2484 1390 2456 1390 c 2
 2286 1390 l 2
 2254 1390 2255 1384 2244 1364 c 2
 1522 10 l 2
 1512 -9 1503 -20 1472 -20 c 2
 1416 -20 l 2
 1381 -20 1372 -18 1369 14 c 2
 1289 812 l 2
 1279 909 1295 983 1263 983 c 0
 1237 983 1210 908 1158 820 c 2
 674 10 l 2
 660 -13 650 -20 612 -20 c 2
 558 -20 l 2
 527 -20 530 -16 526 10 c 2
 340 1356 l 2
 335 1389 325 1390 288 1390 c 2
 180 1390 l 2
 144 1390 140 1397 140 1434 c 2
 140 1466 l 2
 140 1492 143 1500 168 1500 c 2
 726 1500 l 2
 752 1500 760 1496 760 1468 c 2
 760 1435 l 2
 760 1400 759 1390 724 1390 c 2
 574 1390 l 2
 537 1390 535 1382 539 1352 c 2
 660 406 l 2
 671 323 658 262 690 262 c 0
 715 262 732 316 781 398 c 2
EndSplineSet
Substitution2: "'c2sc' Capitals to Small Capitals in Latin lookup 1 subtable" w.sc
EndChar

StartChar: X
Encoding: 88 88 35
Width: 1740
Flags: HMW
AnchorPoint: "Anchor-1" 686 0 basechar 0
AnchorPoint: "Anchor-0" 1055 1500 basechar 0
AnchorPoint: "Anchor-2" 686 0 basechar 0
AnchorPoint: "Anchor-0" 1055 1500 basechar 0
LayerCount: 2
Fore
SplineSet
415 1390 m 2
 309 1390 l 2
 276 1390 270 1396 270 1428 c 2
 270 1462 l 2
 270 1494 276 1500 307 1500 c 2
 893 1500 l 2
 919 1500 930 1497 930 1468 c 2
 930 1428 l 2
 930 1396 924 1390 893 1390 c 2
 753 1390 l 2
 703 1390 693 1377 708 1350 c 2
 911 974 l 2
 931 938 933 920 956 920 c 0
 974 920 992 945 1029 981 c 2
 1407 1353 l 2
 1433 1378 1454 1390 1389 1390 c 2
 1271 1390 l 2
 1236 1390 1230 1394 1230 1428 c 2
 1230 1466 l 2
 1230 1497 1237 1500 1269 1500 c 2
 1795 1500 l 2
 1828 1500 1830 1492 1830 1458 c 2
 1830 1420 l 2
 1830 1391 1821 1390 1791 1390 c 2
 1649 1390 l 2
 1591 1390 1584 1380 1557 1353 c 2
 1071 878 l 2
 1033 841 1008 818 1008 794 c 0
 1008 766 1039 737 1068 684 c 2
 1349 162 l 2
 1366 130 1375 110 1427 110 c 2
 1547 110 l 2
 1578 110 1580 102 1580 70 c 2
 1580 50 l 2
 1580 5 1574 0 1531 0 c 2
 963 0 l 2
 930 0 920 1 920 34 c 2
 920 70 l 2
 920 104 926 110 959 110 c 2
 1081 110 l 6
 1140 110 1139 122 1121 156 c 2
 892 586 l 2
 867 634 866 664 850 664 c 0
 836 664 809 635 777 603 c 2
 313 144 l 2
 281 112 279 110 347 110 c 2
 435 110 l 2
 470 110 480 107 480 70 c 2
 480 34 l 2
 480 7 477 0 451 0 c 2
 -83 0 l 2
 -114 0 -120 4 -120 34 c 2
 -120 84 l 2
 -120 108 -112 110 -87 110 c 2
 65 110 l 2
 128 110 135 123 165 153 c 2
 713 698 l 2
 755 740 782 763 782 790 c 0
 782 817 753 847 724 902 c 2
 479 1362 l 2
 466 1387 454 1390 415 1390 c 2
EndSplineSet
Substitution2: "'c2sc' Capitals to Small Capitals in Latin lookup 1 subtable" x.sc
EndChar

StartChar: Y
Encoding: 89 89 36
Width: 1560
Flags: HMW
AnchorPoint: "Anchor-1" 636 0 basechar 0
AnchorPoint: "Anchor-0" 975 1500 basechar 0
AnchorPoint: "Anchor-2" 636 0 basechar 0
AnchorPoint: "Anchor-0" 975 1500 basechar 0
LayerCount: 2
Fore
SplineSet
308 40 m 6
 308 76 l 2
 308 105 315 110 342 110 c 2
 516 110 l 2
 568 110 560 132 569 172 c 2
 658 558 l 2
 671 614 675 638 653 684 c 2
 333 1364 l 2
 322 1386 322 1390 288 1390 c 2
 182 1390 l 2
 150 1390 140 1393 140 1428 c 2
 140 1468 l 2
 140 1500 150 1500 182 1500 c 2
 724 1500 l 2
 752 1500 760 1497 760 1470 c 2
 760 1436 l 2
 760 1397 756 1390 718 1390 c 2
 592 1390 l 2
 550 1390 550 1382 564 1352 c 2
 790 860 l 2
 807 823 807 768 827 768 c 0
 841 768 865 812 893 846 c 2
 1320 1348 l 2
 1348 1381 1335 1390 1276 1390 c 2
 1154 1390 l 2
 1111 1390 1110 1394 1110 1437 c 2
 1110 1462 l 2
 1110 1492 1113 1500 1142 1500 c 2
 1676 1500 l 2
 1701 1500 1710 1499 1710 1474 c 2
 1710 1430 l 2
 1710 1397 1706 1390 1674 1390 c 2
 1546 1390 l 2
 1503 1390 1501 1382 1482 1360 c 2
 930 716 l 2
 898 678 880 656 866 596 c 2
 768 166 l 2
 758 124 763 110 820 110 c 2
 952 110 l 2
 991 110 998 106 998 68 c 2
 998 42 l 2
 998 3 987 0 950 0 c 2
 356 0 l 2
 317 0 308 1 308 40 c 6
EndSplineSet
Substitution2: "'c2sc' Capitals to Small Capitals in Latin lookup 1 subtable" y.sc
EndChar

StartChar: Z
Encoding: 90 90 37
Width: 1470
Flags: HMW
AnchorPoint: "Anchor-1" 616 0 basechar 0
AnchorPoint: "Anchor-0" 895 1500 basechar 0
AnchorPoint: "Anchor-2" 616 0 basechar 0
AnchorPoint: "Anchor-0" 895 1500 basechar 0
LayerCount: 2
Fore
SplineSet
-90 36 m 2
 -90 78 l 2
 -90 121 -74 125 -54 145 c 2
 1138 1319 l 2
 1168 1349 1193 1357 1193 1378 c 0
 1193 1397 1168 1390 1108 1390 c 2
 710 1390 l 2
 452 1390 352 1314 283 1076 c 0
 274 1045 269 1030 235 1030 c 6
 210 1030 l 2
 171 1030 172 1041 179 1070 c 2
 270 1457 l 2
 278 1490 283 1500 326 1500 c 2
 1418 1500 l 2
 1451 1500 1470 1500 1470 1463 c 2
 1470 1433 l 2
 1470 1380 1454 1375 1429 1350 c 2
 240 179 l 2
 210 149 188 142 188 126 c 0
 188 110 214 110 278 110 c 2
 790 110 l 2
 1045 110 1155 184 1233 448 c 0
 1243 481 1236 510 1283 510 c 2
 1305 510 l 2
 1351 510 1347 497 1339 464 c 2
 1240 44 l 2
 1231 4 1232 0 1181 0 c 2
 -46 0 l 2
 -81 0 -90 1 -90 36 c 2
EndSplineSet
Substitution2: "'c2sc' Capitals to Small Capitals in Latin lookup 1 subtable" z.sc
EndChar

StartChar: a
Encoding: 97 97 38
Width: 1225
VWidth: 2310
Flags: MW
AnchorPoint: "Anchor-2" 867 20 basechar 0
AnchorPoint: "Anchor-1" 385 0 basechar 0
AnchorPoint: "Anchor-0" 543 1040 basechar 0
AnchorPoint: "Anchor-0" 543 1040 basechar 0
AnchorPoint: "Anchor-2" 385 0 basechar 0
AnchorPoint: "Anchor-3" 867 20 basechar 0
LayerCount: 2
Fore
SplineSet
738 650 m 0
 738 818 681 956 527 956 c 0
 348 956 186 638 186 350 c 0
 186 182 242 84 364 84 c 0
 575 84 738 422 738 650 c 0
1125 304 m 0
 1057 134 944 -20 787 -20 c 0
 698 -20 644 36 644 106 c 4
 644 135 646 148 649 159 c 0
 652 173 645 173 635 159 c 0
 552 44 456 -20 339 -20 c 0
 141 -20 -4 90 -4 370 c 0
 -4 770 282 1058 522 1058 c 0
 678 1058 740 965 775 891 c 0
 796 846 803 845 813 888 c 2
 841 1014 l 2
 845 1032 850 1040 873 1040 c 2
 978 1040 l 2
 1018 1040 1020 1034 1012 1002 c 2
 813 168 l 2
 810 157 809 142 809 132 c 0
 809 110 828 94 853 94 c 0
 917 94 997 211 1055 334 c 0
 1063 351 1062 358 1080 349 c 2
 1114 332 l 2
 1131 323 1132 321 1125 304 c 0
EndSplineSet
Substitution2: "'smcp' Lowercase to Small Capitals in Latin lookup 0 subtable" a.sc
EndChar

StartChar: b
Encoding: 98 98 39
Width: 1215
VWidth: 2310
Flags: MW
AnchorPoint: "Anchor-1" 435 0 basechar 0
AnchorPoint: "Anchor-0" 793 1040 basechar 0
AnchorPoint: "Anchor-0" 793 1040 basechar 0
AnchorPoint: "Anchor-2" 435 0 basechar 0
LayerCount: 2
Fore
SplineSet
240 240 m 4
 251 151 304 84 406 84 c 4
 642 84 851 402 851 670 c 4
 851 838 797 936 666 936 c 4
 539 936 354 789 300 552 c 6
 244 304 l 6
 239 284 237 263 240 240 c 4
62 292 m 6
 319 1416 l 6
 327 1449 329 1450 288 1450 c 6
 202 1450 l 6
 174 1450 172 1467 172 1492 c 6
 172 1528 l 6
 172 1552 175 1560 198 1560 c 6
 494 1560 l 6
 527 1560 531 1556 525 1530 c 6
 381 902 l 6
 369 851 373 844 411 888 c 4
 502 996 612 1058 727 1058 c 4
 906 1058 1051 940 1051 660 c 4
 1051 280 725 -20 401 -20 c 4
 210 -20 127 74 68 199 c 4
 52 233 53 250 62 292 c 6
EndSplineSet
Substitution2: "'smcp' Lowercase to Small Capitals in Latin lookup 0 subtable" b.sc
EndChar

StartChar: c
Encoding: 99 99 40
Width: 977
VWidth: 2310
Flags: MW
AnchorPoint: "Anchor-1" 409 0 basechar 0
AnchorPoint: "Anchor-0" 572 1040 basechar 0
AnchorPoint: "Anchor-0" 572 1040 basechar 0
AnchorPoint: "Anchor-2" 409 0 basechar 0
LayerCount: 2
Fore
SplineSet
854 814 m 4
 854 698 786 660 718 660 c 4
 663 660 604 692 604 766 c 4
 604 868 694 868 695 914 c 4
 695 938 652 976 578 976 c 4
 390 976 200 668 200 360 c 4
 200 192 274 78 396 78 c 4
 544 78 670 208 744 323 c 4
 755 340 759 346 789 346 c 6
 810 346 l 6
 850 346 863 340 849 314 c 4
 761 148 583 -20 363 -20 c 4
 152 -20 -4 150 -4 410 c 4
 -4 770 288 1060 560 1060 c 4
 773 1060 854 928 854 814 c 4
EndSplineSet
Substitution2: "'smcp' Lowercase to Small Capitals in Latin lookup 0 subtable" c.sc
EndChar

StartChar: d
Encoding: 100 100 41
Width: 1308
VWidth: 2310
Flags: HMW
AnchorPoint: "Anchor-1" 532 0 basechar 0
AnchorPoint: "Anchor-0" 551 1040 basechar 0
AnchorPoint: "Anchor-0" 551 1040 basechar 0
AnchorPoint: "Anchor-1" 1310 1040 basechar 0
AnchorPoint: "Anchor-2" 532 0 basechar 0
LayerCount: 2
Fore
SplineSet
766 640 m 0
 766 808 737 956 564 956 c 0
 376 956 196 658 196 370 c 0
 196 202 280 84 402 84 c 0
 603 84 766 412 766 640 c 0
1197 303 m 0
 1109 115 979 -20 825 -20 c 0
 736 -20 688 26 688 116 c 4
 688 138 692 156 696 170 c 0
 708 211 701 213 677 179 c 0
 590 57 501 -20 348 -20 c 0
 179 -20 -4 110 -4 390 c 0
 -4 790 311 1058 550 1058 c 0
 688 1058 768 983 806 893 c 0
 822 856 824 857 832 891 c 2
 948 1407 l 2
 953 1430 958 1450 926 1450 c 2
 817 1450 l 2
 797 1450 795 1458 795 1480 c 2
 795 1524 l 2
 795 1550 796 1560 821 1560 c 2
 1108 1560 l 2
 1149 1560 1157 1559 1149 1524 c 2
 841 194 l 2
 838 183 835 164 835 148 c 0
 835 116 849 95 882 95 c 0
 956 95 1064 211 1123 338 c 0
 1129 351 1135 360 1149 353 c 2
 1189 332 l 2
 1203 325 1206 323 1197 303 c 0
EndSplineSet
Substitution2: "'smcp' Lowercase to Small Capitals in Latin lookup 0 subtable" d.sc
EndChar

StartChar: e
Encoding: 101 101 42
Width: 981
VWidth: 2310
Flags: HMW
AnchorPoint: "Anchor-2" 610 102 basechar 0
AnchorPoint: "Anchor-1" 357 0 basechar 0
AnchorPoint: "Anchor-0" 556 1040 basechar 0
AnchorPoint: "Anchor-0" 556 1040 basechar 0
AnchorPoint: "Anchor-2" 357 0 basechar 0
AnchorPoint: "Anchor-3" 610 102 basechar 0
LayerCount: 2
Fore
SplineSet
-23 400 m 4
 -23 770 279 1060 570 1060 c 4
 726 1060 835 978 835 814 c 4
 835 580 465 435 219 397 c 4
 173 390 161 374 161 310 c 4
 161 162 247 78 378 78 c 4
 528 78 646 192 718 288 c 4
 730 304 736 306 765 306 c 6
 794 306 l 6
 832 306 838 302 820 272 c 4
 733 128 571 -20 373 -20 c 4
 162 -20 -23 80 -23 400 c 4
226 488 m 4
 418 533 647 636 647 814 c 4
 647 908 605 966 521 966 c 4
 378 966 232 773 191 556 c 4
 181 502 175 477 226 488 c 4
EndSplineSet
Substitution2: "'smcp' Lowercase to Small Capitals in Latin lookup 0 subtable" e.sc
EndChar

StartChar: f
Encoding: 102 102 43
Width: 734
VWidth: 2310
Flags: HMW
AnchorPoint: "Anchor-1" 151 0 basechar 0
AnchorPoint: "Anchor-0" 889 1692 basechar 0
AnchorPoint: "Anchor-0" 889 1692 basechar 0
AnchorPoint: "Anchor-2" 151 0 basechar 0
LayerCount: 2
Fore
SplineSet
-5 -266 m 2
 229 900 l 2
 235 929 227 930 192 930 c 2
 112 930 l 2
 86 930 78 933 78 958 c 2
 78 1004 l 2
 78 1036 86 1040 116 1040 c 2
 234 1040 l 2
 258 1040 257 1042 261 1062 c 2
 278 1144 l 2
 331 1407 472 1580 696 1580 c 4
 873 1580 988 1472 988 1358 c 0
 988 1272 940 1226 870 1226 c 0
 800 1226 754 1266 754 1322 c 0
 754 1382 796 1396 796 1436 c 0
 796 1460 770 1490 699 1490 c 0
 575 1490 509 1356 458 1100 c 2
 450 1062 l 2
 447 1046 451 1040 471 1040 c 2
 678 1040 l 2
 701 1040 708 1035 708 1010 c 2
 708 962 l 2
 708 936 703 930 678 930 c 2
 447 930 l 2
 424 930 423 930 419 910 c 2
 174 -272 l 2
 169 -296 160 -300 130 -300 c 2
 24 -300 l 2
 -9 -300 -10 -291 -5 -266 c 2
EndSplineSet
Substitution2: "'smcp' Lowercase to Small Capitals in Latin lookup 0 subtable" f.sc
EndChar

StartChar: g
Encoding: 103 103 44
Width: 1109
VWidth: 2310
Flags: HMW
AnchorPoint: "Anchor-1" 316 -565 basechar 0
AnchorPoint: "Anchor-0" 673 1040 basechar 0
AnchorPoint: "Anchor-0" 673 1040 basechar 0
AnchorPoint: "Anchor-2" 316 -565 basechar 0
LayerCount: 2
Fore
SplineSet
-155 -260 m 0
 -155 -139 -47 -80 45 -22 c 0
 109 19 83 -4 45 43 c 0
 28 64 19 91 19 128 c 0
 19 218 87 298 191 346 c 0
 238 368 232 360 194 389 c 0
 136 434 105 541 105 630 c 0
 105 870 321 1060 573 1060 c 0
 617 1060 683 1050 717 1032 c 0
 732 1024 734 1028 740 1043 c 0
 790 1167 850 1254 957 1254 c 0
 1038 1254 1105 1196 1105 1112 c 0
 1105 1044 1059 1002 999 1002 c 0
 943 1002 903 1040 904 1090 c 0
 904 1126 912 1146 899 1146 c 0
 867 1146 830 1099 798 1015 c 0
 791 998 796 1001 808 991 c 0
 877 937 913 854 913 750 c 0
 913 510 690 320 441 320 c 0
 412 320 384 321 358 325 c 0
 319 330 306 330 275 313 c 0
 221 283 175 239 175 192 c 0
 175 138 255 138 359 138 c 0
 407 138 527 140 580 140 c 0
 773 140 897 68 897 -104 c 4
 897 -316 596 -490 272 -490 c 0
 76 -490 -155 -430 -155 -260 c 0
147 -42 m 0
 74 -121 35 -177 35 -234 c 0
 35 -326 132 -380 295 -380 c 0
 512 -380 715 -294 715 -134 c 4
 715 -46 668 -18 544 -18 c 0
 504 -18 369 -18 327 -18 c 0
 294 -18 261 -18 232 -17 c 0
 183 -15 172 -14 147 -42 c 0
295 610 m 4
 295 522 311 400 442 400 c 0
 611 400 730 562 730 770 c 4
 730 838 703 980 572 980 c 0
 403 980 295 818 295 610 c 4
EndSplineSet
Substitution2: "'smcp' Lowercase to Small Capitals in Latin lookup 0 subtable" g.sc
EndChar

StartChar: h
Encoding: 104 104 45
Width: 1281
VWidth: 2310
Flags: MW
AnchorPoint: "Anchor-1" 509 0 basechar 0
AnchorPoint: "Anchor-0" 858 1035 basechar 0
AnchorPoint: "Anchor-0" 858 1035 basechar 0
AnchorPoint: "Anchor-2" 509 0 basechar 0
LayerCount: 2
Fore
SplineSet
1168 278 m 4
 1060 94 933 -20 798 -20 c 4
 704 -20 636 26 636 126 c 4
 636 136 639 167 644 184 c 6
 772 660 l 6
 818 829 832 952 710 952 c 4
 581 952 357 729 300 481 c 6
 196 31 l 6
 190 3 191 0 155 0 c 6
 57 0 l 6
 11 0 11 11 19 45 c 6
 335 1411 l 6
 343 1446 339 1450 293 1450 c 6
 217 1450 l 6
 184 1450 179 1456 179 1491 c 6
 179 1523 l 6
 179 1552 181 1560 209 1560 c 6
 497 1560 l 6
 537 1560 545 1552 537 1519 c 6
 385 851 l 6
 375 808 382 795 412 836 c 4
 516 978 646 1058 774 1058 c 4
 948 1058 1027 961 952 682 c 6
 820 192 l 6
 815 173 812 152 812 142 c 4
 812 120 832 104 858 104 c 4
 931 104 1026 202 1095 321 c 4
 1110 347 1114 354 1137 335 c 6
 1166 313 l 6
 1184 299 1178 296 1168 278 c 4
EndSplineSet
Substitution2: "'smcp' Lowercase to Small Capitals in Latin lookup 0 subtable" h.sc
EndChar

StartChar: i
Encoding: 105 105 46
Width: 690
VWidth: 2310
Flags: HMW
AnchorPoint: "Anchor-2" 190 12 basechar 0
AnchorPoint: "Anchor-1" 177 0 basechar 0
AnchorPoint: "Anchor-3" 190 12 basechar 0
AnchorPoint: "Anchor-2" 177 0 basechar 0
LayerCount: 2
Fore
SplineSet
436 990 m 6
 230 178 l 6
 227 167 226 152 226 142 c 4
 226 120 235 94 269 94 c 4
 328 94 438 207 505 327 c 4
 516 346 527 359 548 346 c 6
 571 332 l 6
 588 322 594 318 581 294 c 4
 481 110 349 -20 202 -20 c 4
 109 -20 40 26 40 126 c 4
 40 136 41 158 44 170 c 6
 225 896 l 6
 232 925 226 930 193 930 c 6
 81 930 l 6
 47 930 41 935 41 968 c 6
 41 1008 l 6
 41 1036 51 1040 77 1040 c 6
 393 1040 l 6
 445 1040 447 1035 436 990 c 6
287 1400 m 0
 287 1466 341 1520 407 1520 c 0
 473 1520 528 1466 527 1400 c 0
 526 1334 473 1280 407 1280 c 0
 341 1280 287 1334 287 1400 c 0
EndSplineSet
Substitution2: "'smcp' Lowercase to Small Capitals in Latin lookup 0 subtable" i.sc
EndChar

StartChar: j
Encoding: 106 106 47
Width: 690
VWidth: 2310
Flags: HMW
AnchorPoint: "Anchor-1" -98 -565 basechar 0
AnchorPoint: "Anchor-2" -98 -565 basechar 0
LayerCount: 2
Fore
SplineSet
550 991 m 2
 341 22 l 2
 275 -281 179 -520 -103 -520 c 0
 -281 -520 -345 -410 -345 -286 c 0
 -345 -210 -287 -138 -207 -138 c 0
 -139 -138 -91 -184 -91 -250 c 0
 -91 -320 -149 -334 -149 -374 c 0
 -149 -400 -137 -432 -83 -432 c 0
 99 -432 151 -22 201 208 c 2
 348 887 l 2
 357 927 351 930 301 930 c 2
 179 930 l 6
 154 930 151 937 151 963 c 6
 151 1001 l 6
 151 1032 154 1040 184 1040 c 6
 505 1040 l 2
 559 1040 559 1033 550 991 c 2
415 1400 m 0
 415 1466 469 1520 535 1520 c 0
 601 1520 655 1466 655 1400 c 0
 655 1334 601 1280 535 1280 c 0
 469 1280 415 1334 415 1400 c 0
EndSplineSet
Substitution2: "'smcp' Lowercase to Small Capitals in Latin lookup 0 subtable" j.sc
EndChar

StartChar: k
Encoding: 107 107 48
Width: 1214
VWidth: 2310
Flags: MW
AnchorPoint: "Anchor-1" 489 0 basechar 0
AnchorPoint: "Anchor-0" 961 1040 basechar 0
AnchorPoint: "Anchor-0" 961 1040 basechar 0
AnchorPoint: "Anchor-2" 489 0 basechar 0
LayerCount: 2
Fore
SplineSet
1065 281 m 0
 954 63 843 -20 730 -20 c 0
 635 -20 575 39 586 170 c 2
 595 280 l 2
 604 393 618 467 581 524 c 0
 558 560 547 546 508 535 c 0
 477 526 450 524 427 524 c 0
 394 524 365 528 342 535 c 0
 315 543 316 550 309 518 c 2
 194 21 l 2
 190 3 191 0 168 0 c 2
 39 0 l 2
 1 0 11 9 18 37 c 2
 336 1419 l 2
 342 1445 343 1450 311 1450 c 2
 211 1450 l 2
 190 1450 189 1459 189 1481 c 2
 189 1532 l 2
 189 1551 190 1560 209 1560 c 2
 522 1560 l 2
 547 1560 546 1547 542 1530 c 2
 343 665 l 2
 333 620 338 633 367 649 c 0
 410 672 451 678 474 678 c 0
 493 678 513 676 533 671 c 0
 570 662 574 656 594 691 c 0
 609 715 620 746 631 784 c 0
 681 960 786 1060 900 1060 c 0
 1016 1060 1078 982 1077 878 c 0
 1076 810 1032 768 975 768 c 0
 922 768 885 806 885 856 c 4
 885 920 922 924 922 956 c 0
 922 976 909 980 886 980 c 0
 820 980 747 910 701 740 c 0
 690 700 674 667 656 640 c 0
 639 614 646 616 668 598 c 4
 751 531 759 447 752 282 c 2
 746 154 l 2
 748 100 767 94 790 94 c 0
 838 94 910 169 988 314 c 0
 1004 342 1005 354 1026 340 c 2
 1052 323 l 2
 1078 306 1079 309 1065 281 c 0
EndSplineSet
Substitution2: "'smcp' Lowercase to Small Capitals in Latin lookup 0 subtable" k.sc
EndChar

StartChar: l
Encoding: 108 108 49
Width: 677
VWidth: 2310
Flags: HMW
AnchorPoint: "Anchor-1" 140 0 basechar 0
AnchorPoint: "Anchor-0" 493 1696 basechar 0
AnchorPoint: "Anchor-0" 493 1696 basechar 0
AnchorPoint: "Anchor-1" 597 1040 basechar 0
AnchorPoint: "Anchor-2" 140 0 basechar 0
LayerCount: 2
Fore
SplineSet
502 1494 m 6
 207 168 l 6
 204 157 203 142 203 132 c 4
 203 110 218 94 246 94 c 4
 317 94 412 207 491 326 c 4
 507 350 506 359 533 345 c 6
 554 334 l 6
 578 322 581 320 568 298 c 4
 460 113 323 -20 182 -20 c 4
 79 -20 29 23 29 123 c 4
 29 133 32 158 35 170 c 6
 301 1414 l 6
 309 1450 300 1450 257 1450 c 6
 165 1450 l 6
 142 1450 137 1457 137 1478 c 6
 137 1522 l 6
 137 1554 142 1560 173 1560 c 6
 441 1560 l 6
 516 1560 515 1553 502 1494 c 6
EndSplineSet
Substitution2: "'smcp' Lowercase to Small Capitals in Latin lookup 0 subtable" l.sc
EndChar

StartChar: m
Encoding: 109 109 50
Width: 1805
VWidth: 2310
Flags: MW
AnchorPoint: "Anchor-1" 780 0 basechar 0
AnchorPoint: "Anchor-0" 1060 1040 basechar 0
AnchorPoint: "Anchor-0" 1060 1040 basechar 0
AnchorPoint: "Anchor-2" 780 0 basechar 0
LayerCount: 2
Fore
SplineSet
144 1040 m 2
 430 1040 l 2
 473 1040 476 1043 468 1007 c 2
 428 831 l 2
 413 767 408 741 460 821 c 0
 551 961 661 1058 773 1058 c 0
 921 1058 969 989 973 827 c 0
 974 777 980 776 1011 826 c 0
 1097 965 1195 1058 1310 1058 c 0
 1524 1058 1561 961 1486 682 c 2
 1354 192 l 2
 1349 173 1346 152 1346 142 c 0
 1346 120 1364 102 1389 102 c 0
 1448 102 1545 194 1609 312 c 0
 1622 336 1629 348 1655 333 c 2
 1677 320 l 2
 1701 306 1705 301 1687 270 c 0
 1579 90 1457 -20 1331 -20 c 0
 1228 -20 1170 26 1170 126 c 0
 1170 136 1173 167 1178 184 c 2
 1306 660 l 2
 1351 827 1416 956 1292 956 c 0
 1119 956 945 587 874 306 c 2
 807 41 l 2
 798 6 794 0 750 0 c 2
 674 0 l 2
 613 0 621 5 633 52 c 2
 784 660 l 2
 825 826 854 956 747 956 c 0
 579 956 378 615 313 332 c 2
 246 42 l 2
 237 5 239 0 192 0 c 2
 108 0 l 2
 48 0 57 7 68 54 c 2
 261 885 l 2
 270 925 267 930 216 930 c 2
 150 930 l 2
 115 930 106 932 106 967 c 2
 106 995 l 2
 106 1031 108 1040 144 1040 c 2
EndSplineSet
Substitution2: "'smcp' Lowercase to Small Capitals in Latin lookup 0 subtable" m.sc
EndChar

StartChar: n
Encoding: 110 110 51
Width: 1354
VWidth: 2310
Flags: HMW
AnchorPoint: "Anchor-1" 514 0 basechar 0
AnchorPoint: "Anchor-0" 746 1040 basechar 0
AnchorPoint: "Anchor-0" 746 1040 basechar 0
AnchorPoint: "Anchor-2" 514 0 basechar 0
LayerCount: 2
Fore
SplineSet
143 1040 m 2
 423 1040 l 2
 473 1040 476 1036 467 997 c 2
 424 809 l 2
 409 744 412 736 459 809 c 0
 560 963 697 1058 821 1058 c 0
 954 1058 1099 957 1019 682 c 2
 877 192 l 2
 872 173 869 152 869 142 c 0
 869 120 877 94 916 94 c 0
 987 94 1092 199 1160 314 c 0
 1176 341 1184 359 1202 345 c 2
 1228 325 l 2
 1244 312 1257 311 1242 286 c 0
 1134 102 997 -20 862 -20 c 0
 768 -20 693 26 693 126 c 0
 693 136 696 167 701 184 c 2
 824 660 l 2
 868 830 888 952 757 952 c 0
 591 952 376 603 314 335 c 2
 248 49 l 2
 241 18 238 0 197 0 c 2
 119 0 l 2
 62 0 58 4 68 49 c 2
 264 895 l 2
 272 929 265 930 223 930 c 2
 141 930 l 2
 108 930 107 939 107 973 c 2
 107 1001 l 2
 107 1034 111 1040 143 1040 c 2
EndSplineSet
Substitution2: "'smcp' Lowercase to Small Capitals in Latin lookup 0 subtable" n.sc
EndChar

StartChar: o
Encoding: 111 111 52
Width: 1096
VWidth: 2310
Flags: MW
AnchorPoint: "Anchor-1" 415 0 basechar 0
AnchorPoint: "Anchor-0" 569 1050 basechar 0
AnchorPoint: "Anchor-0" 569 1050 basechar 0
AnchorPoint: "Anchor-2" 415 0 basechar 0
LayerCount: 2
Fore
SplineSet
-4 430 m 4
 -4 810 283 1060 564 1060 c 4
 813 1060 967 830 967 610 c 4
 967 230 721 -20 409 -20 c 4
 132 -20 -4 210 -4 430 c 4
186 320 m 4
 186 172 279 70 410 70 c 4
 617 70 767 372 767 680 c 4
 767 828 694 970 563 970 c 4
 327 970 186 628 186 320 c 4
EndSplineSet
Substitution2: "'smcp' Lowercase to Small Capitals in Latin lookup 0 subtable" o.sc
EndChar

StartChar: p
Encoding: 112 112 53
Width: 1229
VWidth: 2310
Flags: HMW
AnchorPoint: "Anchor-1" 717 0 basechar 0
AnchorPoint: "Anchor-0" 859 1040 basechar 0
AnchorPoint: "Anchor-0" 859 1040 basechar 0
AnchorPoint: "Anchor-2" 717 0 basechar 0
LayerCount: 2
Fore
SplineSet
149 1040 m 2
 405 1040 l 2
 454 1040 455 1037 445 994 c 2
 425 911 l 2
 412 855 414 830 465 889 c 0
 549 987 654 1060 765 1060 c 0
 936 1060 1081 950 1081 670 c 0
 1081 270 814 -18 546 -18 c 0
 427 -18 352 39 302 129 c 0
 269 188 268 194 252 124 c 2
 121 -454 l 2
 114 -485 110 -500 70 -500 c 2
 -35 -500 l 2
 -71 -500 -71 -491 -65 -464 c 2
 246 878 l 2
 254 914 261 930 211 930 c 2
 135 930 l 2
 104 930 103 939 103 970 c 2
 103 999 l 2
 103 1037 113 1040 149 1040 c 2
339 370 m 4
 339 202 387 84 541 84 c 0
 720 84 891 392 891 680 c 4
 891 848 834 956 711 956 c 0
 527 956 339 598 339 370 c 4
EndSplineSet
Substitution2: "'smcp' Lowercase to Small Capitals in Latin lookup 0 subtable" p.sc
EndChar

StartChar: q
Encoding: 113 113 54
Width: 1114
VWidth: 2310
Flags: MW
AnchorPoint: "Anchor-1" 305 0 basechar 0
AnchorPoint: "Anchor-0" 617 1040 basechar 0
AnchorPoint: "Anchor-0" 617 1040 basechar 0
AnchorPoint: "Anchor-2" 305 0 basechar 0
LayerCount: 2
Fore
SplineSet
-4 360 m 4
 -4 760 312 1058 551 1058 c 4
 675 1058 739 995 780 898 c 4
 794 865 800 870 810 900 c 6
 846 1014 l 6
 853 1035 860 1040 887 1040 c 6
 973 1040 l 6
 1004 1040 1011 1031 1006 1007 c 6
 703 -359 l 6
 698 -382 707 -390 747 -390 c 6
 819 -390 l 6
 844 -390 851 -394 851 -418 c 6
 851 -458 l 6
 851 -491 850 -500 817 -500 c 6
 545 -500 l 6
 500 -500 487 -498 494 -468 c 6
 628 108 l 6
 636 142 636 157 601 119 c 4
 524 36 431 -20 329 -20 c 4
 160 -20 -4 80 -4 360 c 4
747 640 m 4
 747 808 719 956 565 956 c 4
 377 956 196 648 196 360 c 4
 196 192 261 84 383 84 c 4
 556 84 747 412 747 640 c 4
EndSplineSet
Substitution2: "'smcp' Lowercase to Small Capitals in Latin lookup 0 subtable" q.sc
EndChar

StartChar: r
Encoding: 114 114 55
Width: 978
VWidth: 2310
Flags: MW
AnchorPoint: "Anchor-1" 177 0 basechar 0
AnchorPoint: "Anchor-0" 556 1040 basechar 0
AnchorPoint: "Anchor-0" 556 1040 basechar 0
AnchorPoint: "Anchor-2" 177 0 basechar 0
LayerCount: 2
Fore
SplineSet
134 1040 m 2
 396 1040 l 2
 443 1040 456 1035 447 998 c 2
 415 858 l 2
 402 802 402 795 441 856 c 0
 515 973 629 1060 741 1060 c 0
 849 1060 929 988 929 902 c 0
 929 818 875 757 805 757 c 0
 729 757 685 799 685 861 c 0
 685 895 714 920 714 937 c 4
 714 951 705 957 691 957 c 4
 573 957 372 672 313 417 c 2
 225 34 l 2
 218 3 219 0 180 0 c 2
 78 0 l 2
 37 0 40 12 47 42 c 2
 243 885 l 2
 252 926 252 930 202 930 c 2
 130 930 l 2
 98 930 97 939 97 972 c 2
 97 1008 l 2
 97 1037 108 1040 134 1040 c 2
EndSplineSet
Substitution2: "'smcp' Lowercase to Small Capitals in Latin lookup 0 subtable" r.sc
EndChar

StartChar: s
Encoding: 115 115 56
Width: 934
VWidth: 2310
Flags: MW
AnchorPoint: "Anchor-1" 370 30 basechar 0
AnchorPoint: "Anchor-0" 521 1040 basechar 0
AnchorPoint: "Anchor-0" 521 1040 basechar 0
AnchorPoint: "Anchor-2" 370 30 basechar 0
LayerCount: 2
Fore
SplineSet
619 251 m 0
 619 487 110 428 110 730 c 0
 110 948 309 1064 501 1064 c 0
 687 1064 839 974 839 822 c 0
 839 742 784 704 720 704 c 0
 656 704 608 750 608 800 c 0
 608 868 657 879 657 919 c 0
 657 951 580 974 500 974 c 0
 349 974 272 904 272 792 c 0
 272 562 785 650 785 314 c 0
 785 106 615 -24 367 -24 c 0
 179 -24 -6 82 -6 242 c 0
 -6 328 52 386 122 386 c 0
 192 386 236 338 236 274 c 0
 235 198 178 191 178 151 c 0
 178 105 270 68 378 68 c 0
 522 68 619 149 619 251 c 0
EndSplineSet
Substitution2: "'smcp' Lowercase to Small Capitals in Latin lookup 0 subtable" s.sc
EndChar

StartChar: t
Encoding: 116 116 57
Width: 745
VWidth: 2310
Flags: HMW
AnchorPoint: "Anchor-1" 235 0 basechar 0
AnchorPoint: "Anchor-0" 393 1277 basechar 0
AnchorPoint: "Anchor-0" 393 1277 basechar 0
AnchorPoint: "Anchor-1" 557 1153 basechar 0
AnchorPoint: "Anchor-2" 235 0 basechar 0
LayerCount: 2
Fore
SplineSet
73 1040 m 6
 233 1040 l 6
 256 1040 253 1045 257 1063 c 6
 288 1196 l 6
 294 1223 296 1219 324 1225 c 4
 364 1232 404 1250 428 1263 c 4
 447 1273 451 1276 468 1276 c 4
 485 1276 486 1273 482 1257 c 6
 437 1060 l 6
 433 1042 430 1040 452 1040 c 6
 639 1040 l 6
 667 1040 667 1037 667 1007 c 6
 666 958 l 6
 666 930 667 930 640 930 c 6
 425 930 l 6
 406 930 408 927 404 911 c 6
 236 214 l 6
 220 147 238 100 299 100 c 4
 406 100 496 261 536 328 c 4
 547 346 554 372 576 356 c 6
 611 333 l 6
 627 321 627 321 615 295 c 4
 561 180 425 -24 235 -24 c 4
 78 -24 36 108 86 322 c 6
 222 907 l 6
 227 927 224 930 200 930 c 6
 69 930 l 6
 51 930 50 939 50 958 c 6
 50 1010 l 6
 50 1032 52 1040 73 1040 c 6
EndSplineSet
Substitution2: "'smcp' Lowercase to Small Capitals in Latin lookup 0 subtable" t.sc
Substitution2: "'ss01' Style Set 1 lookup 3 subtable" t.alt
EndChar

StartChar: u
Encoding: 117 117 58
Width: 1442
VWidth: 2310
Flags: MW
AnchorPoint: "Anchor-2" 1032 30 basechar 0
AnchorPoint: "Anchor-1" 502 0 basechar 0
AnchorPoint: "Anchor-0" 711 1040 basechar 0
AnchorPoint: "Anchor-0" 711 1040 basechar 0
AnchorPoint: "Anchor-2" 502 0 basechar 0
AnchorPoint: "Anchor-3" 1032 30 basechar 0
LayerCount: 2
Fore
SplineSet
5 748 m 4
 133 951 221 1060 365 1060 c 4
 497 1060 577 983 531 816 c 6
 421 380 l 6
 379 213 375 98 478 98 c 4
 613 98 859 420 921 687 c 6
 998 1025 l 6
 1001 1037 1006 1040 1022 1040 c 6
 1163 1040 l 6
 1183 1040 1184 1039 1180 1023 c 6
 974 168 l 6
 966 133 976 94 1026 94 c 4
 1098 94 1176 200 1256 316 c 4
 1275 343 1279 346 1295 336 c 6
 1320 321 l 6
 1340 309 1344 309 1327 281 c 4
 1218 104 1121 -20 960 -20 c 4
 841 -20 782 72 812 190 c 6
 840 300 l 6
 848 330 840 331 829 313 c 4
 709 119 550 -18 409 -18 c 4
 255 -18 171 77 241 358 c 6
 363 848 l 6
 373 887 398 960 331 960 c 4
 249 960 170 856 80 720 c 4
 66 698 56 681 39 692 c 6
 14 708 l 6
 -9 723 -9 726 5 748 c 4
EndSplineSet
Substitution2: "'smcp' Lowercase to Small Capitals in Latin lookup 0 subtable" u.sc
EndChar

StartChar: v
Encoding: 118 118 59
Width: 1090
VWidth: 2310
Flags: MW
AnchorPoint: "Anchor-1" 387 0 basechar 0
AnchorPoint: "Anchor-0" 595 1040 basechar 0
AnchorPoint: "Anchor-0" 595 1040 basechar 0
AnchorPoint: "Anchor-2" 387 0 basechar 0
LayerCount: 2
Fore
SplineSet
754 806 m 4
 697 806 651 854 652 930 c 4
 653 990 699 1058 792 1058 c 4
 887 1058 965 990 965 868 c 4
 965 575 724 212 389 -52 c 4
 370 -68 363 -63 342 -51 c 6
 285 -23 l 6
 271 -15 275 -9 278 12 c 4
 285 64 284 138 275 210 c 4
 232 564 37 608 37 786 c 4
 37 922 209 994 310 1056 c 4
 336 1072 337 1071 351 1046 c 6
 360 1030 l 6
 371 1010 379 1006 359 992 c 4
 319 964 228 911 228 826 c 4
 228 700 405 585 433 299 c 4
 437 255 443 201 445 167 c 4
 446 144 446 135 466 155 c 4
 679 366 847 632 847 798 c 4
 847 822 840 835 830 835 c 4
 818 835 798 806 754 806 c 4
EndSplineSet
Substitution2: "'smcp' Lowercase to Small Capitals in Latin lookup 0 subtable" v.sc
EndChar

StartChar: w
Encoding: 119 119 60
Width: 1859
VWidth: 2310
Flags: HMW
AnchorPoint: "Anchor-1" 697 0 basechar 0
AnchorPoint: "Anchor-0" 1068 1040 basechar 0
AnchorPoint: "Anchor-0" 1068 1040 basechar 0
AnchorPoint: "Anchor-2" 697 0 basechar 0
LayerCount: 2
Fore
SplineSet
2 768 m 4
 101 945 243 1060 409 1060 c 4
 514 1060 571 1014 571 914 c 4
 571 904 568 873 563 856 c 6
 412 380 l 6
 366 211 379 84 501 84 c 4
 661 84 788 304 850 520 c 6
 962 1007 l 6
 969 1038 979 1040 1018 1040 c 6
 1105 1040 l 6
 1154 1040 1155 1036 1146 995 c 6
 991 378 l 6
 951 210 987 86 1115 86 c 4
 1399 86 1575 590 1575 766 c 4
 1575 810 1573 838 1553 838 c 4
 1539 838 1535 826 1497 826 c 4
 1443 826 1399 880 1399 940 c 4
 1399 1002 1456 1058 1528 1058 c 4
 1624 1058 1689 988 1689 806 c 4
 1689 586 1507 -20 1097 -20 c 4
 969 -20 868 30 827 163 c 4
 812 213 800 212 767 165 c 4
 688 49 586 -18 475 -18 c 4
 305 -18 157 79 232 358 c 6
 388 848 l 6
 393 867 396 888 396 898 c 4
 396 920 382 946 335 946 c 4
 234 946 159 851 74 735 c 4
 55 708 48 690 24 706 c 6
 1 721 l 6
 -22 734 -9 749 2 768 c 4
EndSplineSet
Substitution2: "'smcp' Lowercase to Small Capitals in Latin lookup 0 subtable" w.sc
EndChar

StartChar: x
Encoding: 120 120 61
Width: 1101
VWidth: 2310
Flags: MW
AnchorPoint: "Anchor-1" 407 0 basechar 0
AnchorPoint: "Anchor-0" 586 1040 basechar 0
AnchorPoint: "Anchor-0" 586 1040 basechar 0
AnchorPoint: "Anchor-2" 407 0 basechar 0
LayerCount: 2
Fore
SplineSet
-72 142 m 4
 -72 210 -26 272 51 272 c 0
 123 272 151 224 151 174 c 4
 151 120 123 120 123 98 c 0
 123 87 128 80 140 80 c 0
 205 80 269 208 379 438 c 0
 403 489 398 513 384 574 c 0
 358 684 323 803 305 859 c 0
 298 880 286 906 251 906 c 0
 195 906 148 818 93 724 c 0
 80 703 80 695 60 710 c 2
 32 731 l 2
 12 746 12 748 23 768 c 0
 106 925 202 1064 313 1064 c 0
 413 1064 452 993 476 897 c 0
 483 869 500 786 508 750 c 0
 524 675 529 690 556 746 c 0
 641 918 710 1060 842 1060 c 0
 939 1060 1006 1012 1006 908 c 0
 1006 830 960 778 880 778 c 0
 826 778 789 816 789 856 c 0
 790 900 817 914 817 936 c 0
 817 946 813 956 800 956 c 0
 736 956 669 804 575 610 c 0
 556 571 549 561 560 512 c 0
 594 359 631 251 667 145 c 0
 674 124 687 108 723 108 c 0
 787 108 854 202 902 288 c 0
 915 311 915 327 942 314 c 2
 965 302 l 2
 994 287 996 285 981 255 c 0
 906 101 783 -20 667 -20 c 0
 558 -20 501 51 477 147 c 0
 464 200 466 218 446 304 c 0
 431 371 427 362 402 310 c 0
 296 85 232 -20 88 -20 c 0
 -9 -20 -72 58 -72 142 c 4
EndSplineSet
Substitution2: "'smcp' Lowercase to Small Capitals in Latin lookup 0 subtable" x.sc
EndChar

StartChar: y
Encoding: 121 121 62
Width: 1089
VWidth: 2310
Flags: MW
AnchorPoint: "Anchor-1" -24 -565 basechar 0
AnchorPoint: "Anchor-0" 645 1040 basechar 0
AnchorPoint: "Anchor-0" 645 1040 basechar 0
AnchorPoint: "Anchor-2" -24 -565 basechar 0
LayerCount: 2
Fore
SplineSet
807 828 m 0
 747 828 706 873 707 949 c 0
 708 1019 769 1078 846 1078 c 0
 922 1078 986 1022 986 930 c 0
 986 590 476 -520 8 -520 c 0
 -157 -520 -250 -426 -250 -292 c 0
 -250 -200 -181 -116 -105 -116 c 0
 -48 -116 -11 -152 -11 -214 c 0
 -11 -320 -103 -310 -103 -342 c 0
 -103 -386 -46 -410 17 -410 c 0
 144 -410 307 -267 424 -89 c 0
 455 -42 460 -44 443 18 c 0
 364 301 256 727 214 849 c 0
 207 870 195 894 171 894 c 0
 128 894 90 789 53 702 c 0
 43 678 46 666 19 676 c 2
 -9 687 l 2
 -42 700 -36 705 -23 736 c 0
 40 887 117 1064 237 1064 c 0
 308 1064 367 1010 393 915 c 0
 433 768 512 472 565 210 c 0
 581 131 591 145 623 202 c 0
 781 487 863 783 863 828 c 0
 863 835 862 840 856 840 c 0
 849 840 835 828 807 828 c 0
EndSplineSet
Substitution2: "'smcp' Lowercase to Small Capitals in Latin lookup 0 subtable" y.sc
EndChar

StartChar: z
Encoding: 122 122 63
Width: 1018
VWidth: 2310
Flags: MW
AnchorPoint: "Anchor-1" 389 0 basechar 0
AnchorPoint: "Anchor-0" 519 1040 basechar 0
AnchorPoint: "Anchor-0" 519 1040 basechar 0
AnchorPoint: "Anchor-2" 389 0 basechar 0
LayerCount: 2
Fore
SplineSet
35 832 m 0
 108 941 231 1060 370 1060 c 0
 549 1060 559 942 665 942 c 0
 745 942 810 999 880 1043 c 0
 901 1056 903 1064 919 1044 c 2
 939 1019 l 2
 954 1001 954 1000 937 984 c 2
 239 237 l 2
 212 211 188 189 195 182 c 0
 203 175 212 192 258 205 c 0
 316 222 354 230 390 230 c 0
 493 230 521 164 600 164 c 0
 674 164 736 254 764 319 c 0
 772 338 775 343 795 337 c 2
 839 322 l 2
 854 317 855 312 844 284 c 0
 800 170 700 -20 550 -20 c 0
 409 -20 360 78 235 78 c 0
 132 78 48 33 -24 -8 c 0
 -45 -20 -44 -18 -59 0 c 2
 -79 25 l 2
 -94 44 -85 46 -68 62 c 2
 619 798 l 2
 639 818 657 829 653 836 c 0
 649 842 636 826 604 815 c 0
 576 805 549 800 521 800 c 0
 399 800 381 886 275 886 c 0
 212 886 154 843 111 784 c 0
 88 753 91 746 55 765 c 2
 27 780 l 2
 0 794 20 809 35 832 c 0
EndSplineSet
Substitution2: "'smcp' Lowercase to Small Capitals in Latin lookup 0 subtable" z.sc
EndChar

StartChar: comma
Encoding: 44 44 65
Width: 658
Flags: HMW
LayerCount: 2
Fore
SplineSet
77 98 m 4
 77 164 135 216 211 216 c 4
 289 216 351 154 351 28 c 4
 351 -146 181 -296 16 -311 c 4
 1 -312 -7 -313 -7 -296 c 6
 -7 -253 l 6
 -7 -235 3 -232 18 -230 c 4
 109 -216 257 -124 246 -9 c 4
 244 7 235 -1 224 -8 c 4
 211 -16 194 -20 173 -20 c 4
 107 -20 77 32 77 98 c 4
EndSplineSet
EndChar

StartChar: exclam
Encoding: 33 33 67
Width: 638
Flags: HMW
LayerCount: 2
Fore
SplineSet
20 100 m 0
 20 166 74 220 140 220 c 0
 206 220 260 166 260 100 c 0
 260 34 206 -20 140 -20 c 0
 74 -20 20 34 20 100 c 0
550 1294 m 0
 447 967 344 716 272 434 c 0
 267 415 264 410 239 410 c 2
 206 410 l 2
 188 410 184 412 188 428 c 0
 253 712 249 995 320 1350 c 0
 336 1430 362 1518 466 1518 c 4
 530 1518 570 1468 570 1404 c 0
 570 1368 560 1326 550 1294 c 0
EndSplineSet
EndChar

StartChar: quotesingle
Encoding: 39 39 70
Width: 398
Flags: HMW
LayerCount: 2
Fore
SplineSet
424 1378 m 0
 384 1236 296 1111 270 996 c 0
 267 983 266 976 250 976 c 2
 208 976 l 2
 190 976 191 982 193 996 c 0
 210 1108 209 1214 218 1358 c 0
 224 1456 276 1516 348 1516 c 0
 400 1516 432 1482 432 1428 c 0
 432 1412 430 1396 424 1378 c 0
EndSplineSet
EndChar

StartChar: quoteleft
Encoding: 8216 8216 71
Width: 483
Flags: HMW
LayerCount: 2
Fore
SplineSet
476 1190 m 4
 476 1124 418 1072 342 1072 c 4
 264 1072 202 1134 202 1260 c 4
 202 1434 372 1584 537 1599 c 4
 552 1600 560 1601 560 1584 c 6
 560 1541 l 6
 560 1523 550 1520 535 1518 c 4
 444 1504 296 1412 307 1297 c 4
 309 1281 318 1289 329 1296 c 4
 342 1304 359 1308 380 1308 c 4
 446 1308 476 1256 476 1190 c 4
EndSplineSet
EndChar

StartChar: quotedblleft
Encoding: 8220 8220 72
Width: 2673
Flags: HMW
LayerCount: 2
Fore
SplineSet
2276 1190 m 4
 2276 1124 2218 1072 2142 1072 c 4
 2064 1072 2002 1134 2002 1260 c 4
 2002 1434 2172 1584 2337 1599 c 4
 2352 1600 2360 1601 2360 1584 c 6
 2360 1541 l 6
 2360 1523 2350 1520 2335 1518 c 4
 2244 1504 2096 1412 2107 1297 c 4
 2109 1281 2118 1289 2129 1296 c 4
 2142 1304 2159 1308 2180 1308 c 4
 2246 1308 2276 1256 2276 1190 c 4
2666 1190 m 4
 2666 1124 2608 1072 2532 1072 c 4
 2454 1072 2392 1134 2392 1260 c 4
 2392 1434 2562 1584 2727 1599 c 4
 2742 1600 2750 1601 2750 1584 c 6
 2750 1541 l 6
 2750 1523 2740 1520 2725 1518 c 4
 2634 1504 2486 1412 2497 1297 c 4
 2499 1281 2508 1289 2519 1296 c 4
 2532 1304 2549 1308 2570 1308 c 4
 2636 1308 2666 1256 2666 1190 c 4
EndSplineSet
EndChar

StartChar: quotedblright
Encoding: 8221 8221 73
Width: 873
Flags: HMW
LayerCount: 2
Fore
SplineSet
237 1402 m 4
 237 1468 295 1520 371 1520 c 4
 449 1520 511 1458 511 1332 c 4
 511 1158 341 1008 176 993 c 4
 161 992 153 991 153 1008 c 6
 153 1051 l 6
 153 1069 163 1072 178 1074 c 4
 269 1088 417 1180 406 1295 c 4
 404 1311 395 1303 384 1296 c 4
 371 1288 354 1284 333 1284 c 4
 267 1284 237 1336 237 1402 c 4
627 1402 m 4
 627 1468 685 1520 761 1520 c 4
 839 1520 901 1458 901 1332 c 4
 901 1158 731 1008 566 993 c 4
 551 992 543 991 543 1008 c 6
 543 1051 l 6
 543 1069 553 1072 568 1074 c 4
 659 1088 807 1180 796 1295 c 4
 794 1311 785 1303 774 1296 c 4
 761 1288 744 1284 723 1284 c 4
 657 1284 627 1336 627 1402 c 4
EndSplineSet
EndChar

StartChar: quoteright
Encoding: 8217 8217 74
Width: 483
Flags: HMW
LayerCount: 2
Fore
SplineSet
237 1402 m 4
 237 1468 295 1520 371 1520 c 4
 449 1520 511 1458 511 1332 c 4
 511 1158 341 1008 176 993 c 4
 161 992 153 991 153 1008 c 6
 153 1051 l 6
 153 1069 163 1072 178 1074 c 4
 269 1088 417 1180 406 1295 c 4
 404 1311 395 1303 384 1296 c 4
 371 1288 354 1284 333 1284 c 4
 267 1284 237 1336 237 1402 c 4
EndSplineSet
EndChar

StartChar: question
Encoding: 63 63 75
Width: 1100
Flags: HMW
LayerCount: 2
Fore
SplineSet
553 438 m 0
 498 397 438 392 402 392 c 0
 281 392 210 466 210 570 c 0
 210 826 858 865 858 1200 c 0
 858 1348 760 1426 602 1426 c 0
 474 1426 358 1368 358 1324 c 0
 358 1264 420 1262 420 1160 c 0
 420 1076 354 1040 284 1040 c 0
 214 1040 150 1086 150 1182 c 0
 150 1366 338 1520 642 1520 c 0
 904 1520 1040 1400 1040 1180 c 0
 1040 726 351 729 351 567 c 0
 351 534 373 506 420 506 c 0
 444 506 489 511 530 546 c 0
 546 560 548 559 554 527 c 6
 566 476 l 2
 570 453 568 449 553 438 c 0
EndSplineSet
Refer: 1 46 N 1 0 0 1 298 0 2
EndChar

StartChar: parenleft
Encoding: 40 40 76
Width: 890
Flags: HMW
LayerCount: 2
Fore
SplineSet
613 -275 m 2
 605 -313 l 2
 598 -348 589 -337 561 -326 c 0
 222 -193 60 117 60 470 c 0
 60 1001 426 1436 927 1588 c 0
 957 1597 968 1608 975 1573 c 2
 983 1535 l 2
 988 1508 994 1502 969 1493 c 0
 554 1347 290 946 290 470 c 0
 290 177 348 -63 593 -223 c 0
 618 -239 620 -240 613 -275 c 2
EndSplineSet
EndChar

StartChar: parenright
Encoding: 41 41 77
Width: 890
Flags: HMW
LayerCount: 2
Fore
SplineSet
247 1539 m 2
 255 1577 l 2
 262 1612 271 1601 299 1590 c 0
 638 1457 800 1147 800 794 c 0
 800 263 434 -172 -67 -324 c 0
 -97 -333 -108 -344 -115 -309 c 2
 -123 -271 l 2
 -128 -244 -134 -238 -109 -229 c 0
 306 -83 570 318 570 794 c 0
 570 1087 512 1327 267 1487 c 0
 242 1503 240 1504 247 1539 c 2
EndSplineSet
EndChar

StartChar: asterisk
Encoding: 42 42 78
Width: 1270
VWidth: 2310
Flags: HMW
LayerCount: 2
Fore
SplineSet
754 962 m 0
 814 922 879 883 955 832 c 0
 1037 778 1063 702 1027 640 c 0
 987 570 910 598 869 643 c 0
 789 724 733 827 671 906 c 0
 644 941 632 971 627 900 c 0
 622 827 620 750 614 658 c 0
 608 560 556 500 484 500 c 0
 413 500 384 567 408 638 c 0
 438 746 496 844 534 935 c 0
 560 998 559 1001 501 972 c 0
 438 941 373 905 293 866 c 0
 205 822 127 838 91 900 c 0
 54 965 106 1021 173 1035 c 0
 282 1063 397 1062 495 1075 c 0
 570 1085 555 1091 508 1122 c 0
 450 1161 387 1199 313 1248 c 0
 231 1302 205 1378 241 1440 c 0
 281 1510 358 1482 399 1437 c 0
 482 1352 541 1245 605 1165 c 0
 625 1140 636 1111 640 1165 c 0
 646 1242 648 1323 654 1422 c 0
 660 1520 712 1580 784 1580 c 0
 855 1580 884 1513 860 1442 c 0
 828 1329 766 1227 729 1132 c 0
 711 1087 705 1078 750 1100 c 0
 818 1133 888 1171 975 1214 c 0
 1063 1258 1141 1242 1177 1180 c 0
 1214 1115 1162 1059 1095 1045 c 0
 984 1016 867 1019 768 1005 c 0
 702 996 710 991 754 962 c 0
EndSplineSet
EndChar

StartChar: at
Encoding: 64 64 79
Width: 2120
VWidth: 2310
Flags: HMW
LayerCount: 2
Fore
SplineSet
1328 692 m 0
 1328 776 1300 956 1168 956 c 0
 1020 956 870 728 870 480 c 0
 870 346 900 244 1028 244 c 0
 1150 244 1328 436 1328 692 c 0
1640 -161 m 0
 1474 -336 1245 -428 938 -428 c 0
 652 -428 130 -224 130 442 c 0
 130 1108 624 1580 1170 1580 c 0
 1716 1580 2010 1208 2010 842 c 0
 2010 522 1824 140 1482 140 c 0
 1376 140 1322 198 1289 267 c 0
 1269 309 1272 325 1223 271 c 0
 1148 188 1057 140 968 140 c 0
 810 140 668 251 668 460 c 0
 668 760 898 1058 1136 1058 c 0
 1239 1058 1311 1004 1351 912 c 0
 1379 848 1378 841 1393 905 c 2
 1417 1010 l 2
 1422 1033 1429 1040 1459 1040 c 2
 1550 1040 l 2
 1596 1040 1601 1027 1591 986 c 2
 1460 420 l 2
 1456 394 1432 264 1526 264 c 0
 1728 264 1884 542 1884 850 c 0
 1884 1204 1572 1474 1204 1474 c 0
 716 1474 340 1006 340 462 c 0
 340 -142 702 -318 990 -318 c 0
 1185 -318 1385 -255 1557 -86 c 0
 1588 -56 1588 -46 1620 -78 c 2
 1649 -107 l 2
 1674 -132 1664 -136 1640 -161 c 0
EndSplineSet
EndChar

StartChar: dollar
Encoding: 36 36 80
Width: 1320
Flags: HMW
LayerCount: 2
Fore
SplineSet
1026 1142 m 0
 1026 1214 1090 1224 1090 1270 c 0
 1090 1317 1049 1385 934 1409 c 0
 914 1413 916 1407 911 1390 c 2
 778 920 l 2
 760 857 763 857 818 831 c 0
 982 752 1140 651 1140 410 c 0
 1140 131 901 -11 544 -19 c 0
 514 -20 513 -20 506 -44 c 2
 475 -152 l 2
 470 -171 466 -170 442 -170 c 2
 377 -170 l 2
 347 -170 351 -168 357 -146 c 2
 389 -31 l 2
 395 -10 396 -10 373 -6 c 0
 108 41 12 200 12 352 c 0
 12 448 82 504 140 504 c 0
 194 504 254 462 254 388 c 0
 254 316 190 306 190 260 c 0
 190 215 227 134 379 100 c 0
 409 93 422 85 431 116 c 2
 588 671 l 2
 598 708 592 707 561 722 c 0
 413 795 280 888 280 1100 c 0
 280 1333 522 1506 796 1519 c 0
 826 1520 827 1520 834 1544 c 2
 865 1651 l 2
 870 1668 869 1670 891 1670 c 2
 960 1670 l 2
 988 1670 987 1660 982 1641 c 2
 950 1530 l 2
 943 1504 953 1508 978 1502 c 0
 1149 1460 1268 1345 1268 1158 c 0
 1268 1062 1198 1026 1140 1026 c 0
 1086 1026 1026 1068 1026 1142 c 0
460 1150 m 0
 460 1039 532 975 630 922 c 0
 658 907 656 912 665 944 c 2
 791 1392 l 2
 797 1414 802 1418 774 1415 c 0
 594 1398 460 1309 460 1150 c 0
960 340 m 4
 960 493 866 571 747 633 c 0
 704 655 703 656 689 606 c 2
 548 106 l 2
 541 81 546 84 576 85 c 0
 825 95 960 208 960 340 c 4
EndSplineSet
EndChar

StartChar: numbersign
Encoding: 35 35 81
Width: 1320
Flags: HMW
LayerCount: 2
Fore
SplineSet
625 1610 m 2
 670 1610 l 2
 712 1610 712 1603 704 1573 c 2
 578 1121 l 2
 569 1088 568 1080 614 1080 c 2
 876 1080 l 2
 906 1080 912 1095 918 1117 c 2
 1046 1573 l 2
 1055 1604 1058 1610 1098 1610 c 2
 1136 1610 l 2
 1170 1610 1166 1596 1160 1573 c 2
 1031 1113 l 2
 1023 1084 1017 1080 1056 1080 c 2
 1348 1080 l 2
 1372 1080 1380 1075 1380 1049 c 2
 1380 997 l 2
 1380 976 1374 970 1352 970 c 2
 1042 970 l 2
 997 970 990 963 980 929 c 2
 888 599 l 2
 878 563 882 560 930 560 c 2
 1194 560 l 2
 1228 560 1240 558 1240 521 c 2
 1240 491 l 2
 1240 452 1232 450 1192 450 c 2
 878 450 l 2
 847 450 846 449 839 425 c 2
 696 -87 l 2
 692 -102 685 -110 664 -110 c 2
 620 -110 l 2
 576 -110 578 -100 587 -69 c 2
 720 407 l 2
 731 447 727 450 674 450 c 2
 444 450 l 2
 394 450 390 450 379 411 c 2
 244 -73 l 2
 235 -104 228 -110 188 -110 c 2
 157 -110 l 2
 122 -110 122 -104 129 -79 c 2
 264 405 l 2
 274 441 278 450 220 450 c 2
 -26 450 l 2
 -54 450 -60 455 -60 485 c 2
 -60 527 l 2
 -60 553 -57 560 -32 560 c 2
 250 560 l 2
 293 560 307 563 318 601 c 2
 413 939 l 2
 421 968 420 970 381 970 c 2
 112 970 l 2
 85 970 80 976 80 1005 c 2
 80 1047 l 2
 80 1072 82 1080 106 1080 c 2
 414 1080 l 2
 454 1080 458 1102 466 1131 c 2
 593 1585 l 2
 597 1601 604 1610 625 1610 c 2
818 970 m 2
 568 970 l 2
 530 970 533 962 525 933 c 2
 434 607 l 2
 424 572 420 560 470 560 c 2
 700 560 l 6
 751 560 763 561 774 601 c 2
 870 945 l 2
 879 978 855 970 818 970 c 2
EndSplineSet
EndChar

StartChar: slash
Encoding: 47 47 82
Width: 1040
Flags: HMW
LayerCount: 2
Fore
SplineSet
1034 1560 m 2
 1079 1560 l 2
 1117 1560 1122 1553 1108 1530 c 2
 21 -268 l 2
 5 -294 0 -300 -41 -300 c 6
 -73 -300 l 6
 -122 -300 -130 -286 -113 -258 c 2
 978 1526 l 2
 993 1551 994 1560 1034 1560 c 2
EndSplineSet
EndChar

StartChar: percent
Encoding: 37 37 83
Width: 2000
Flags: HMW
LayerCount: 2
Fore
SplineSet
140 1080 m 0
 201 1366 387 1520 613 1520 c 4
 839 1520 1001 1366 940 1080 c 0
 879 794 642 640 456 640 c 0
 230 640 79 794 140 1080 c 0
360 1080 m 0
 317 876 319 740 467 740 c 0
 615 740 677 876 720 1080 c 0
 763 1284 760 1420 612 1420 c 0
 464 1420 403 1284 360 1080 c 0
1589 1500 m 2
 1646 1500 l 2
 1681 1500 1677 1490 1658 1468 c 2
 471 28 l 2
 454 7 442 0 407 0 c 2
 354 0 l 2
 315 0 329 23 344 41 c 2
 1542 1478 l 2
 1553 1492 1566 1500 1589 1500 c 2
1059 420 m 0
 1120 706 1307 860 1533 860 c 0
 1759 860 1920 706 1859 420 c 0
 1798 134 1572 -20 1386 -20 c 0
 1160 -20 998 134 1059 420 c 0
1279 420 m 0
 1236 216 1239 80 1387 80 c 0
 1535 80 1596 216 1639 420 c 0
 1682 624 1680 760 1532 760 c 0
 1384 760 1322 624 1279 420 c 0
EndSplineSet
EndChar

StartChar: hyphen
Encoding: 45 45 84
Width: 640
Flags: HMW
LayerCount: 2
Fore
SplineSet
48 710 m 6
 474 710 l 6
 497 710 500 706 500 682 c 6
 500 603 l 6
 500 579 498 570 472 570 c 6
 46 570 l 6
 21 570 20 574 20 600 c 6
 20 682 l 6
 20 705 27 710 48 710 c 6
EndSplineSet
Substitution2: "Single Substitution lookup 10 subtable" hyphen.sc
EndChar

StartChar: plus
Encoding: 43 43 86
Width: 1060
Flags: HMW
LayerCount: 2
Fore
SplineSet
645 836 m 2
 913 836 l 2
 936 836 947 832 947 808 c 2
 947 751 l 2
 947 734 946 726 929 726 c 2
 626 726 l 2
 594 726 582 722 576 692 c 2
 512 389 l 2
 508 373 505 370 487 370 c 2
 419 370 l 2
 399 370 390 371 394 390 c 2
 458 685 l 2
 465 718 457 726 422 726 c 2
 156 726 l 2
 131 726 127 731 127 755 c 2
 127 809 l 2
 127 831 136 836 157 836 c 2
 451 836 l 2
 478 836 491 842 497 870 c 2
 558 1160 l 2
 563 1182 571 1190 596 1190 c 2
 654 1190 l 2
 674 1190 681 1183 676 1161 c 2
 615 874 l 2
 608 843 614 836 645 836 c 2
EndSplineSet
EndChar

StartChar: equal
Encoding: 61 61 87
Width: 1120
Flags: HMW
LayerCount: 2
Fore
SplineSet
192 980 m 6
 1002 980 l 6
 1032 980 1035 976 1035 952 c 6
 1035 903 l 6
 1035 879 1033 870 999 870 c 6
 189 870 l 6
 157 870 155 874 155 900 c 6
 155 952 l 6
 155 975 165 980 192 980 c 6
129 680 m 6
 939 680 l 6
 969 680 972 676 972 652 c 6
 972 603 l 6
 972 579 970 570 936 570 c 6
 126 570 l 6
 94 570 92 574 92 600 c 6
 92 652 l 6
 92 675 102 680 129 680 c 6
EndSplineSet
EndChar

StartChar: less
Encoding: 60 60 88
Width: 1120
Flags: HMW
LayerCount: 2
Fore
SplineSet
296 752 m 2
 892 505 l 2
 919 494 930 487 930 447 c 2
 930 405 l 2
 930 360 912 366 886 377 c 2
 152 678 l 2
 123 690 120 699 120 740 c 2
 120 820 l 2
 120 862 125 863 154 873 c 2
 1046 1187 l 2
 1072 1196 1080 1193 1080 1159 c 2
 1080 1113 l 2
 1080 1076 1070 1065 1044 1056 c 2
 298 799 l 2
 267 788 250 787 250 776 c 0
 250 765 263 766 296 752 c 2
EndSplineSet
EndChar

StartChar: greater
Encoding: 62 62 89
Width: 1120
Flags: HMW
LayerCount: 2
Fore
SplineSet
824 798 m 2
 228 1045 l 2
 201 1056 190 1063 190 1103 c 2
 190 1145 l 2
 190 1190 208 1184 234 1173 c 2
 968 872 l 2
 997 860 1000 851 1000 810 c 2
 1000 730 l 2
 1000 688 995 687 966 677 c 2
 74 363 l 2
 48 354 40 357 40 391 c 2
 40 437 l 2
 40 474 50 485 76 494 c 2
 822 751 l 2
 853 762 870 763 870 774 c 0
 870 785 857 784 824 798 c 2
EndSplineSet
EndChar

StartChar: backslash
Encoding: 92 92 90
Width: 1040
Flags: HMW
LayerCount: 2
Fore
SplineSet
379 1522 m 2
 829 -258 l 2
 837 -290 839 -300 795 -300 c 2
 729 -300 l 2
 697 -300 700 -293 694 -268 c 2
 251 1524 l 6
 244 1553 253 1560 287 1560 c 2
 337 1560 l 2
 369 1560 373 1547 379 1522 c 2
EndSplineSet
EndChar

StartChar: bracketleft
Encoding: 91 91 91
Width: 650
Flags: HMW
LayerCount: 2
Fore
SplineSet
365 1560 m 6
 731 1560 l 2
 769 1560 770 1551 770 1512 c 2
 770 1484 l 2
 770 1453 758 1450 729 1450 c 2
 497 1450 l 2
 448 1450 444 1438 436 1400 c 2
 108 -122 l 2
 96 -177 90 -190 163 -190 c 2
 355 -190 l 2
 388 -190 390 -198 390 -232 c 2
 390 -262 l 2
 390 -300 372 -300 337 -300 c 2
 -49 -300 l 2
 -105 -300 -110 -297 -100 -252 c 2
 278 1506 l 2
 289 1558 301 1560 365 1560 c 6
EndSplineSet
EndChar

StartChar: braceleft
Encoding: 123 123 92
Width: 544
VWidth: 2310
Flags: HMW
LayerCount: 2
Fore
SplineSet
272 -300 m 0
 8 -294 -70 -211 -70 -20 c 0
 -70 214 170 344 170 470 c 0
 170 543 154 558 108 574 c 0
 90 580 90 593 90 617 c 2
 90 661 l 2
 90 686 98 683 116 689 c 0
 178 709 262 741 262 812 c 0
 262 938 210 988 210 1202 c 0
 210 1375 309 1551 618 1560 c 0
 637 1561 644 1554 644 1533 c 2
 644 1496 l 2
 644 1470 647 1467 622 1465 c 0
 506 1458 396 1394 396 1294 c 0
 396 1162 444 1142 444 942 c 0
 444 793 389 700 286 643 c 0
 236 615 256 609 271 585 c 0
 292 551 304 507 304 440 c 0
 304 240 116 100 116 -32 c 0
 116 -150 172 -199 280 -205 c 0
 302 -206 304 -207 304 -231 c 2
 304 -272 l 2
 304 -299 297 -301 272 -300 c 0
EndSplineSet
EndChar

StartChar: bracketright
Encoding: 93 93 93
Width: 650
Flags: HMW
LayerCount: 2
Fore
SplineSet
285 -300 m 6
 -81 -300 l 2
 -119 -300 -120 -291 -120 -252 c 2
 -120 -224 l 2
 -120 -193 -108 -190 -79 -190 c 2
 153 -190 l 2
 202 -190 206 -178 214 -140 c 2
 542 1382 l 2
 554 1437 560 1450 487 1450 c 2
 295 1450 l 2
 262 1450 260 1458 260 1492 c 2
 260 1522 l 2
 260 1560 278 1560 313 1560 c 2
 699 1560 l 2
 755 1560 760 1557 750 1512 c 2
 372 -246 l 2
 361 -298 349 -300 285 -300 c 6
EndSplineSet
EndChar

StartChar: braceright
Encoding: 125 125 94
Width: 544
VWidth: 2310
Flags: HMW
LayerCount: 2
Fore
SplineSet
252 1560 m 0
 516 1554 594 1471 594 1280 c 0
 594 1046 354 916 354 790 c 0
 354 717 370 702 416 686 c 0
 434 680 434 667 434 643 c 2
 434 599 l 2
 434 574 426 577 408 571 c 0
 346 551 262 519 262 448 c 0
 262 322 314 272 314 58 c 0
 314 -115 215 -291 -94 -300 c 0
 -113 -301 -120 -294 -120 -273 c 2
 -120 -236 l 2
 -120 -210 -123 -207 -98 -205 c 0
 18 -198 128 -134 128 -34 c 0
 128 98 80 118 80 318 c 0
 80 467 135 560 238 617 c 0
 288 645 268 651 253 675 c 0
 232 709 220 753 220 820 c 0
 220 1020 408 1160 408 1292 c 0
 408 1410 352 1459 244 1465 c 0
 222 1466 220 1467 220 1491 c 2
 220 1532 l 2
 220 1559 227 1561 252 1560 c 0
EndSplineSet
EndChar

StartChar: bar
Encoding: 124 124 95
Width: 600
VWidth: 2310
Flags: HMW
LayerCount: 2
Fore
SplineSet
429 1560 m 2
 511 1560 l 2
 556 1560 560 1555 551 1512 c 2
 133 -454 l 2
 126 -486 122 -500 87 -500 c 2
 -9 -500 l 6
 -50 -500 -55 -495 -47 -456 c 2
 370 1506 l 2
 380 1551 384 1560 429 1560 c 2
EndSplineSet
EndChar

StartChar: asciitilde
Encoding: 126 126 96
Width: 1376
VWidth: 2310
Flags: HMW
LayerCount: 2
Fore
SplineSet
482 874 m 0
 394 874 335 818 306 709 c 0
 300 687 293 686 270 686 c 2
 220 686 l 2
 194 686 187 689 193 714 c 0
 249 924 404 1020 555 1020 c 0
 795 1020 755 832 937 832 c 0
 1022 832 1081 885 1111 989 c 0
 1118 1014 1125 1020 1153 1020 c 2
 1199 1020 l 2
 1224 1020 1234 1019 1227 992 c 0
 1173 777 1017 686 864 686 c 0
 590 686 638 874 482 874 c 0
EndSplineSet
EndChar

StartChar: asciicircum
Encoding: 94 94 97
Width: 1090
Flags: HMW
LayerCount: 2
Fore
SplineSet
645 1399 m 2
 274 1138 l 2
 251 1122 247 1121 226 1134 c 2
 204 1147 l 6
 186 1159 193 1165 211 1180 c 2
 623 1520 l 2
 638 1532 646 1540 671 1540 c 2
 747 1540 l 2
 776 1540 784 1532 795 1518 c 2
 1061 1180 l 2
 1073 1165 1076 1159 1051 1147 c 2
 1028 1136 l 2
 1001 1122 996 1121 980 1138 c 2
 722 1397 l 2
 691 1428 690 1430 645 1399 c 2
EndSplineSet
EndChar

StartChar: grave
Encoding: 96 96 98
Width: 790
Flags: HMW
LayerCount: 2
Fore
SplineSet
340 1440 m 2
 302 1441 270 1472 270 1510 c 0
 270 1548 304 1589 360 1576 c 2
 797 1470 l 2
 822 1464 838 1460 835 1440 c 0
 833 1421 826 1420 801 1421 c 2
 340 1440 l 2
EndSplineSet
EndChar

StartChar: uni203E
Encoding: 8254 8254 99
Width: 719
Flags: HMW
LayerCount: 2
Fore
SplineSet
253 1859 m 6
 1218 1859 l 6
 1253 1859 1258 1855 1258 1831 c 6
 1258 1782 l 6
 1258 1758 1255 1749 1215 1749 c 6
 250 1749 l 6
 211 1749 210 1753 210 1779 c 6
 210 1831 l 6
 210 1854 221 1859 253 1859 c 6
EndSplineSet
EndChar

StartChar: uni2010
Encoding: 8208 8208 100
Width: 920
Flags: HMW
LayerCount: 2
Fore
SplineSet
148 830 m 6
 774 830 l 6
 797 830 800 826 800 802 c 6
 800 753 l 6
 800 729 798 720 772 720 c 6
 146 720 l 6
 121 720 120 724 120 750 c 6
 120 802 l 6
 120 825 127 830 148 830 c 6
EndSplineSet
EndChar

StartChar: uni2011
Encoding: 8209 8209 101
Width: 920
Flags: HMW
LayerCount: 2
Fore
SplineSet
148 830 m 6
 774 830 l 6
 797 830 800 826 800 802 c 6
 800 753 l 6
 800 729 798 720 772 720 c 6
 146 720 l 6
 121 720 120 724 120 750 c 6
 120 802 l 6
 120 825 127 830 148 830 c 6
EndSplineSet
EndChar

StartChar: endash
Encoding: 8211 8211 102
Width: 1432
Flags: HMW
LayerCount: 2
Fore
SplineSet
169 830 m 6
 1267 830 l 6
 1307 830 1312 826 1312 802 c 6
 1312 753 l 6
 1312 729 1309 720 1263 720 c 6
 166 720 l 6
 122 720 120 724 120 750 c 6
 120 802 l 6
 120 825 132 830 169 830 c 6
EndSplineSet
EndChar

StartChar: figuredash
Encoding: 8210 8210 103
Width: 1224
Flags: HMW
LayerCount: 2
Fore
SplineSet
160 830 m 6
 1066 830 l 6
 1099 830 1104 826 1104 802 c 6
 1104 753 l 6
 1104 729 1102 720 1064 720 c 6
 157 720 l 6
 121 720 120 724 120 750 c 6
 120 802 l 6
 120 825 130 830 160 830 c 6
EndSplineSet
EndChar

StartChar: emdash
Encoding: 8212 8212 104
Width: 2124
Flags: HMW
LayerCount: 2
Fore
SplineSet
198 830 m 6
 1932 830 l 6
 1996 830 2004 826 2004 802 c 6
 2004 753 l 6
 2004 729 1999 720 1927 720 c 6
 192 720 l 6
 123 720 120 724 120 750 c 6
 120 802 l 6
 120 825 140 830 198 830 c 6
EndSplineSet
EndChar

StartChar: uni2015
Encoding: 8213 8213 105
Width: 2331
Flags: HMW
LayerCount: 2
Fore
SplineSet
206 830 m 6
 2131 830 l 6
 2202 830 2211 826 2211 802 c 6
 2211 753 l 6
 2211 729 2205 720 2125 720 c 6
 200 720 l 6
 123 720 120 724 120 750 c 6
 120 802 l 6
 120 825 141 830 206 830 c 6
EndSplineSet
EndChar

StartChar: perthousand
Encoding: 8240 8240 106
Width: 2920
Flags: HMW
LayerCount: 2
Fore
SplineSet
1979 420 m 4
 2040 706 2227 860 2453 860 c 4
 2679 860 2840 706 2779 420 c 4
 2718 134 2492 -20 2306 -20 c 4
 2080 -20 1918 134 1979 420 c 4
2199 420 m 4
 2156 216 2159 80 2307 80 c 4
 2455 80 2516 216 2559 420 c 4
 2602 624 2600 760 2452 760 c 4
 2304 760 2242 624 2199 420 c 4
140 1080 m 4
 201 1366 387 1520 613 1520 c 4
 839 1520 1001 1366 940 1080 c 4
 879 794 642 640 456 640 c 4
 230 640 79 794 140 1080 c 4
360 1080 m 4
 317 876 319 740 467 740 c 4
 615 740 677 876 720 1080 c 4
 763 1284 760 1420 612 1420 c 4
 464 1420 403 1284 360 1080 c 4
1589 1500 m 6
 1646 1500 l 6
 1681 1500 1677 1490 1658 1468 c 6
 471 28 l 6
 454 7 442 0 407 0 c 6
 354 0 l 6
 315 0 329 23 344 41 c 6
 1542 1478 l 6
 1553 1492 1566 1500 1589 1500 c 6
1059 420 m 4
 1120 706 1307 860 1533 860 c 4
 1759 860 1920 706 1859 420 c 4
 1798 134 1572 -20 1386 -20 c 4
 1160 -20 998 134 1059 420 c 4
1279 420 m 4
 1236 216 1239 80 1387 80 c 4
 1535 80 1596 216 1639 420 c 4
 1682 624 1680 760 1532 760 c 4
 1384 760 1322 624 1279 420 c 4
EndSplineSet
EndChar

StartChar: uni2031
Encoding: 8241 8241 107
Width: 3840
Flags: HMW
LayerCount: 2
Fore
SplineSet
2899 420 m 4
 2960 706 3147 860 3373 860 c 4
 3599 860 3760 706 3699 420 c 4
 3638 134 3412 -20 3226 -20 c 4
 3000 -20 2838 134 2899 420 c 4
3119 420 m 4
 3076 216 3079 80 3227 80 c 4
 3375 80 3436 216 3479 420 c 4
 3522 624 3520 760 3372 760 c 4
 3224 760 3162 624 3119 420 c 4
1979 420 m 0
 2040 706 2227 860 2453 860 c 0
 2679 860 2840 706 2779 420 c 0
 2718 134 2492 -20 2306 -20 c 0
 2080 -20 1918 134 1979 420 c 0
2199 420 m 0
 2156 216 2159 80 2307 80 c 0
 2455 80 2516 216 2559 420 c 0
 2602 624 2600 760 2452 760 c 0
 2304 760 2242 624 2199 420 c 0
140 1080 m 0
 201 1366 387 1520 613 1520 c 0
 839 1520 1001 1366 940 1080 c 0
 879 794 642 640 456 640 c 0
 230 640 79 794 140 1080 c 0
360 1080 m 0
 317 876 319 740 467 740 c 0
 615 740 677 876 720 1080 c 0
 763 1284 760 1420 612 1420 c 0
 464 1420 403 1284 360 1080 c 0
1589 1500 m 2
 1646 1500 l 2
 1681 1500 1677 1490 1658 1468 c 2
 471 28 l 2
 454 7 442 0 407 0 c 2
 354 0 l 2
 315 0 329 23 344 41 c 2
 1542 1478 l 2
 1553 1492 1566 1500 1589 1500 c 2
1059 420 m 0
 1120 706 1307 860 1533 860 c 0
 1759 860 1920 706 1859 420 c 0
 1798 134 1572 -20 1386 -20 c 0
 1160 -20 998 134 1059 420 c 0
1279 420 m 0
 1236 216 1239 80 1387 80 c 0
 1535 80 1596 216 1639 420 c 0
 1682 624 1680 760 1532 760 c 0
 1384 760 1322 624 1279 420 c 0
EndSplineSet
EndChar

StartChar: uniFB00
Encoding: 64256 64256 108
Width: 1422
VWidth: 2310
Flags: HMW
LayerCount: 2
Fore
SplineSet
958 1092 m 0
 963 1118 974 1148 974 1174 c 0
 974 1194 950 1188 928 1196 c 0
 890 1212 868 1242 868 1282 c 0
 868 1342 910 1356 910 1396 c 0
 910 1420 874 1450 770 1450 c 0
 652 1450 472 1310 472 1054 c 0
 472 1028 527 1040 550 1040 c 2
 892 1040 l 2
 938 1040 948 1044 958 1092 c 0
858 930 m 2
 522 930 l 2
 446 930 446 928 432 864 c 2
 204 -228 l 2
 192 -284 202 -300 130 -300 c 2
 50 -300 l 2
 -17 -300 23 -230 32 -192 c 2
 242 852 l 1
 250 899 267 928 209 930 c 2
 166 930 l 2
 119 930 100 930 100 959 c 2
 100 988 l 2
 100 1020 102 1040 166 1040 c 2
 218 1040 l 2
 264 1040 280 1046 292 1104 c 0
 352 1366 506 1540 766 1540 c 0
 880 1540 974 1504 1032 1454 c 0
 1068 1421 1075 1419 1104 1448 c 0
 1192 1538 1298 1600 1446 1600 c 0
 1648 1600 1782 1492 1782 1378 c 0
 1782 1292 1734 1246 1664 1246 c 0
 1594 1246 1548 1286 1548 1342 c 0
 1548 1402 1590 1416 1590 1456 c 0
 1590 1480 1554 1510 1450 1510 c 0
 1290 1510 1212 1374 1152 1120 c 1
 1139 1059 1126 1040 1202 1040 c 2
 1360 1040 l 2
 1390 1040 1403 1040 1403 1012 c 2
 1404 980 l 2
 1404 913 1373 930 1322 930 c 2
 1170 930 l 2
 1106 930 1108 922 1098 872 c 2
 890 -100 l 2
 876 -168 888 -200 798 -200 c 2
 734 -200 l 2
 664 -200 697 -155 706 -112 c 6
 910 868 l 2
 921 918 927 930 858 930 c 2
EndSplineSet
Ligature2: "'liga' Standard Ligatures lookup 0 subtable" f f
LCarets2: 1 0
EndChar

StartChar: uniFB01
Encoding: 64257 64257 109
Width: 1292
VWidth: 2310
Flags: HMW
LayerCount: 2
Fore
SplineSet
28 -208 m 6
 246 880 l 2
 254 920 269 930 208 930 c 2
 148 930 l 2
 106 930 98 942 98 968 c 2
 100 1012 l 2
 102 1052 122 1040 152 1040 c 2
 232 1040 l 2
 274 1040 280 1042 288 1082 c 0
 345 1368 526 1580 814 1580 c 0
 1016 1580 1170 1472 1170 1358 c 0
 1170 1272 1122 1226 1052 1226 c 0
 982 1226 936 1266 936 1322 c 0
 936 1382 978 1396 978 1436 c 0
 978 1460 922 1490 818 1490 c 0
 658 1490 540 1354 480 1100 c 0
 472 1059 451 1040 512 1040 c 2
 1088 1040 l 2
 1125 1040 1139 1035 1132 1002 c 2
 936 142 l 2
 934 138 934 130 934 126 c 0
 934 104 948 92 974 92 c 0
 998 92 1048 124 1086 202 c 0
 1100 228 1100 246 1116 242 c 2
 1142 236 l 2
 1171 229 1172 228 1162 200 c 0
 1098 40 1014 -20 916 -20 c 0
 822 -20 754 26 754 126 c 0
 754 136 756 158 758 170 c 2
 916 862 l 2
 930 922 937 930 852 930 c 2
 480 930 l 2
 436 930 444 918 436 884 c 2
 196 -268 l 2
 190 -298 188 -300 158 -300 c 2
 52 -300 l 2
 0 -300 21 -244 28 -208 c 6
EndSplineSet
Ligature2: "'liga' Standard Ligatures lookup 0 subtable" f i
LCarets2: 1 0
EndChar

StartChar: uniFB02
Encoding: 64258 64258 110
Width: 1364
VWidth: 2310
Flags: HMW
LayerCount: 2
Fore
SplineSet
1284 1510 m 2
 996 142 l 2
 995 137 994 130 994 126 c 0
 994 104 1008 92 1034 92 c 0
 1058 92 1110 126 1148 208 c 0
 1158 230 1163 246 1176 239 c 2
 1216 219 l 2
 1232 211 1222 200 1216 186 c 0
 1152 36 1072 -20 976 -20 c 0
 882 -20 814 26 814 126 c 0
 814 136 816 158 818 170 c 2
 1028 1154 l 2
 1038 1201 1055 1218 1004 1234 c 0
 962 1248 936 1280 936 1322 c 0
 936 1382 978 1396 978 1436 c 0
 978 1460 922 1490 818 1490 c 0
 658 1490 540 1354 480 1100 c 0
 472 1063 452 1040 510 1040 c 2
 704 1040 l 2
 736 1040 740 1044 740 1010 c 2
 740 964 l 2
 740 932 738 930 700 930 c 2
 488 930 l 2
 438 930 442 920 434 880 c 2
 202 -240 l 2
 192 -286 200 -300 142 -300 c 2
 52 -300 l 2
 13 -300 24 -249 30 -218 c 2
 248 882 l 2
 255 917 266 930 218 930 c 2
 140 930 l 2
 104 930 100 936 100 958 c 2
 100 1005 l 2
 100 1038 107 1040 132 1040 c 2
 228 1040 l 2
 282 1040 280 1044 288 1088 c 2
 300 1144 l 2
 356 1407 554 1580 814 1580 c 0
 914 1580 1002 1552 1066 1512 c 0
 1110 1482 1112 1471 1156 1502 c 2
 1262 1572 l 2
 1311 1605 1294 1554 1284 1510 c 2
EndSplineSet
Ligature2: "'liga' Standard Ligatures lookup 0 subtable" f l
LCarets2: 1 0
EndChar

StartChar: uniFB03
Encoding: 64259 64259 111
Width: 1992
VWidth: 2310
Flags: HMW
LayerCount: 2
Fore
SplineSet
482 1098 m 4
 469 1058 456 1040 516 1040 c 2
 888 1040 l 2
 942 1040 946 1040 956 1084 c 2
 972 1164 l 2
 980 1196 962 1186 936 1194 c 0
 894 1208 868 1240 868 1282 c 0
 868 1342 910 1356 910 1396 c 0
 910 1420 874 1450 770 1450 c 0
 618 1450 540 1328 482 1098 c 4
1842 1378 m 0
 1842 1292 1794 1246 1724 1246 c 0
 1654 1246 1608 1286 1608 1342 c 0
 1608 1402 1650 1416 1650 1456 c 0
 1650 1480 1594 1510 1490 1510 c 0
 1330 1510 1212 1374 1152 1120 c 0
 1139 1066 1117 1040 1198 1040 c 2
 1794 1040 l 2
 1844 1040 1838 1023 1828 984 c 2
 1636 142 l 2
 1635 138 1634 130 1634 126 c 0
 1634 104 1648 92 1674 92 c 0
 1698 92 1750 126 1788 208 c 0
 1798 230 1797 249 1812 244 c 2
 1854 231 l 2
 1875 225 1865 204 1846 164 c 0
 1784 32 1706 -20 1616 -20 c 0
 1522 -20 1454 26 1454 126 c 0
 1454 136 1456 158 1458 170 c 2
 1616 864 l 1
 1625 914 1647 930 1570 930 c 2
 1162 930 l 2
 1114 930 1110 930 1102 890 c 2
 882 -134 l 2
 872 -184 880 -200 816 -200 c 2
 738 -200 l 2
 676 -200 691 -187 700 -144 c 2
 916 898 l 2
 920 919 927 930 898 930 c 2
 474 930 l 2
 452 930 444 926 438 898 c 2
 200 -252 l 2
 190 -296 192 -300 138 -300 c 2
 72 -300 l 2
 -7 -300 15 -281 24 -230 c 2
 250 894 l 2
 256 922 262 930 222 930 c 2
 154 930 l 2
 123 930 100 918 100 958 c 2
 100 1006 l 2
 100 1036 110 1040 128 1040 c 2
 236 1040 l 2
 282 1040 280 1044 288 1082 c 0
 342 1354 498 1540 766 1540 c 0
 866 1540 950 1512 1008 1472 c 0
 1108 1402 1067 1410 1164 1488 c 0
 1250 1560 1360 1600 1486 1600 c 0
 1688 1600 1842 1492 1842 1378 c 0
EndSplineSet
Ligature2: "'liga' Standard Ligatures lookup 0 subtable" f f i
LCarets2: 2 0 0
EndChar

StartChar: uniFB04
Encoding: 64260 64260 112
Width: 1990
VWidth: 2310
Flags: HMW
LayerCount: 2
Fore
SplineSet
949 1189 m 0
 899 1199 868 1236 868 1282 c 0
 868 1342 910 1356 910 1396 c 0
 910 1420 874 1450 770 1450 c 0
 646 1450 472 1312 472 1052 c 0
 472 1031 499 1040 518 1040 c 2
 884 1040 l 2
 960 1040 951 1065 964 1127 c 0
 972 1164 990 1180 949 1189 c 0
524 930 m 2
 446 930 446 928 432 864 c 2
 208 -212 l 2
 198 -260 194 -300 146 -300 c 2
 80 -300 l 2
 -13 -300 20 -245 34 -176 c 2
 236 828 l 2
 248 891 283 930 188 930 c 2
 140 930 l 2
 114 930 100 936 100 980 c 2
 100 994 l 2
 100 1034 102 1040 132 1040 c 2
 204 1040 l 2
 280 1038 284 1062 292 1104 c 0
 340 1350 506 1540 766 1540 c 0
 856 1540 932 1520 988 1486 c 0
 1124 1407 1058 1415 1188 1508 c 0
 1270 1568 1372 1600 1486 1600 c 0
 1588 1600 1676 1574 1740 1532 c 0
 1787 1502 1794 1479 1832 1506 c 2
 1930 1574 l 2
 1975 1604 1968 1557 1958 1512 c 2
 1668 142 l 2
 1666 138 1666 130 1666 126 c 0
 1666 104 1680 92 1706 92 c 0
 1728 92 1773 121 1810 186 c 0
 1826 214 1835 247 1858 236 c 2
 1890 220 l 2
 1908 211 1889 188 1880 168 c 0
 1818 32 1740 -20 1648 -20 c 0
 1554 -20 1486 26 1486 126 c 0
 1486 136 1488 158 1490 170 c 2
 1706 1184 l 2
 1716 1233 1731 1236 1676 1254 c 0
 1634 1268 1608 1300 1608 1342 c 0
 1608 1402 1650 1416 1650 1456 c 0
 1650 1480 1594 1510 1490 1510 c 0
 1330 1510 1206 1376 1152 1120 c 0
 1138 1059 1118 1040 1208 1040 c 2
 1340 1040 l 2
 1394 1040 1411 1040 1412 1009 c 2
 1412 968 l 2
 1412 932 1408 930 1384 930 c 2
 1196 930 l 2
 1108 930 1110 924 1094 852 c 2
 890 -94 l 2
 876 -160 890 -200 804 -200 c 2
 750 -200 l 2
 659 -200 696 -155 710 -90 c 2
 904 840 l 2
 916 900 947 930 856 930 c 6
 524 930 l 2
EndSplineSet
Ligature2: "'liga' Standard Ligatures lookup 0 subtable" f f l
LCarets2: 2 0 0
EndChar

StartChar: t.alt
Encoding: 65536 -1 113
Width: 730
VWidth: 2310
Flags: MW
LayerCount: 2
Fore
SplineSet
93 1040 m 2
 253 1040 l 2
 276 1040 273 1045 277 1063 c 2
 294 1136 l 6
 300 1163 302 1159 330 1165 c 4
 370 1172 410 1190 434 1203 c 4
 453 1213 457 1216 474 1216 c 4
 491 1216 492 1213 488 1197 c 6
 457 1060 l 2
 453 1042 450 1040 473 1040 c 2
 650 1040 l 2
 679 1040 680 1037 680 1007 c 2
 680 958 l 2
 680 930 680 930 652 930 c 2
 446 930 l 2
 426 930 428 927 424 911 c 2
 266 214 l 2
 254 164 230 100 294 100 c 0
 347 100 408 141 460 208 c 0
 473 225 482 243 500 236 c 2
 535 223 l 2
 554 216 559 210 546 185 c 0
 485 70 378 -24 228 -24 c 0
 88 -24 42 62 66 172 c 2
 242 907 l 2
 247 927 244 930 220 930 c 2
 89 930 l 2
 71 930 70 939 70 958 c 2
 70 1010 l 2
 70 1032 72 1040 93 1040 c 2
EndSplineSet
EndChar

StartChar: R.alt
Encoding: 65537 -1 114
Width: 1554
Flags: HMW
LayerCount: 2
Fore
SplineSet
1336 0 m 2
 1164 0 l 2
 1036 0 988 76 988 176 c 0
 988 278 1038 406 1038 510 c 0
 1038 612 1004 690 874 690 c 2
 500 690 l 2
 455 690 460 681 452 646 c 2
 348 160 l 2
 339 116 340 110 396 110 c 2
 546 110 l 2
 572 110 580 106 580 78 c 2
 580 42 l 2
 580 7 575 0 538 0 c 2
 -44 0 l 2
 -76 0 -80 10 -80 40 c 2
 -80 70 l 2
 -80 105 -74 110 -40 110 c 2
 104 110 l 2
 149 110 148 114 156 150 c 2
 412 1352 l 2
 419 1386 415 1390 372 1390 c 2
 260 1390 l 2
 228 1390 220 1393 220 1424 c 2
 220 1466 l 2
 220 1491 221 1500 246 1500 c 2
 994 1500 l 2
 1336 1500 1434 1340 1434 1160 c 0
 1434 986 1329 846 1125 778 c 4
 1040 750 1068 745 1132 713 c 0
 1223 668 1250 599 1250 514 c 0
 1250 394 1196 258 1196 178 c 0
 1196 136 1210 110 1256 110 c 2
 1340 110 l 2
 1369 110 1374 103 1374 73 c 2
 1374 41 l 2
 1374 4 1373 0 1336 0 c 2
542 810 m 2
 854 810 l 2
 1006 810 1234 942 1234 1160 c 0
 1234 1298 1166 1390 994 1390 c 2
 648 1390 l 2
 602 1390 608 1376 600 1340 c 2
 494 846 l 2
 485 804 494 810 542 810 c 2
EndSplineSet
EndChar

StartChar: breve
Encoding: 728 728 115
Width: 1000
Flags: HMW
AnchorPoint: "Anchor-0" 658 1500 mark 0
AnchorPoint: "Anchor-0" 658 1500 mark 0
LayerCount: 2
Fore
SplineSet
716 1680 m 260
 524 1680 491 1775 519 1919 c 0
 523 1936 529 1938 546 1938 c 2
 560 1938 l 2
 574 1938 577 1935 575 1922 c 0
 563 1832 617 1790 714 1790 c 256
 806 1790 880 1828 909 1909 c 0
 916 1928 911 1938 935 1938 c 2
 962 1938 l 2
 983 1938 982 1934 977 1914 c 0
 942 1774 865 1680 716 1680 c 260
EndSplineSet
EndChar

StartChar: dotaccent
Encoding: 729 729 116
Width: 1000
Flags: HMW
AnchorPoint: "Anchor-0" 558 1040 mark 0
AnchorPoint: "Anchor-0" 558 1040 mark 0
LayerCount: 2
Fore
SplineSet
631 1269 m 0
 566 1269 511 1325 511 1390 c 0
 511 1456 566 1510 631 1510 c 0
 697 1510 751 1456 751 1390 c 0
 751 1325 697 1269 631 1269 c 0
EndSplineSet
EndChar

StartChar: ring
Encoding: 730 730 117
Width: 1000
Flags: HMW
AnchorPoint: "Anchor-0" 659 1500 mark 0
AnchorPoint: "Anchor-0" 659 1500 mark 0
LayerCount: 2
Fore
SplineSet
713 1754 m 260
 773 1754 823 1795 837 1859 c 260
 850 1922 818 1967 758 1967 c 260
 698 1967 647 1922 634 1859 c 260
 620 1795 653 1754 713 1754 c 260
697 1680 m 0
 596 1680 535 1758 556 1859 c 0
 577 1960 673 2040 774 2040 c 0
 876 2040 937 1961 915 1859 c 0
 894 1758 798 1680 697 1680 c 0
EndSplineSet
EndChar

StartChar: ogonek
Encoding: 731 731 118
Width: 1000
Flags: HMW
AnchorPoint: "Anchor-2" 361 47 mark 0
AnchorPoint: "Anchor-3" 361 47 mark 0
LayerCount: 2
Fore
SplineSet
255 -372 m 0
 142 -372 47 -335 71 -220 c 0
 95 -108 266 -2 388 70 c 0
 413 85 432 90 438 80 c 4
 445 69 431 54 411 36 c 0
 354 -16 285 -89 268 -170 c 0
 257 -221 271 -275 341 -275 c 0
 390 -275 431 -246 460 -214 c 0
 473 -199 482 -199 490 -207 c 2
 502 -217 l 2
 513 -226 511 -230 500 -245 c 0
 444 -318 372 -372 255 -372 c 0
EndSplineSet
EndChar

StartChar: tilde
Encoding: 732 732 119
Width: 1000
Flags: HMW
AnchorPoint: "Anchor-0" 655 1500 mark 0
AnchorPoint: "Anchor-0" 655 1500 mark 0
LayerCount: 2
Fore
SplineSet
863 1680 m 4
 759 1680 715 1717 682 1759 c 0
 656 1792 628 1838 558 1838 c 0
 503 1838 460 1794 440 1714 c 0
 436 1702 430 1700 417 1700 c 2
 375 1700 l 2
 352 1700 355 1710 361 1730 c 0
 400 1857 465 1954 609 1954 c 4
 713 1954 758 1918 788 1875 c 0
 810 1843 832 1796 895 1796 c 0
 948 1796 989 1837 1010 1912 c 0
 1014 1928 1018 1934 1037 1934 c 2
 1080 1934 l 2
 1098 1934 1098 1928 1094 1912 c 0
 1058 1764 990 1680 863 1680 c 4
EndSplineSet
EndChar

StartChar: hungarumlaut
Encoding: 733 733 120
Width: 1000
Flags: HMW
AnchorPoint: "Anchor-0" 583 1500 mark 0
AnchorPoint: "Anchor-0" 583 1500 mark 0
LayerCount: 2
Fore
SplineSet
807 1680 m 6
 784 1705 l 6
 763 1727 760 1729 782 1750 c 6
 972 1936 l 6
 1016 1979 1076 1962 1105 1924 c 260
 1133 1887 1120 1832 1077 1807 c 6
 844 1671 l 6
 825 1660 822 1664 807 1680 c 6
390 1685 m 6
 369 1706 l 6
 348 1729 356 1736 377 1756 c 6
 561 1936 l 6
 605 1979 661 1965 690 1927 c 260
 718 1890 713 1835 666 1807 c 6
 456 1687 l 6
 424 1668 415 1658 390 1685 c 6
EndSplineSet
EndChar

StartChar: gravecomb
Encoding: 768 768 121
Width: 0
Flags: HMW
AnchorPoint: "Anchor-0" 730 1500 mark 0
AnchorPoint: "Anchor-0" 730 1500 mark 0
LayerCount: 2
Fore
SplineSet
552 1920 m 260
 579 1966 647 1973 684 1936 c 2
 878 1747 l 2
 891 1734 892 1725 879 1711 c 2
 845 1675 l 2
 834 1663 830 1660 815 1669 c 2
 579 1807 l 2
 545 1827 523 1870 552 1920 c 260
EndSplineSet
EndChar

StartChar: acutecomb
Encoding: 769 769 122
Width: 0
Flags: HMW
AnchorPoint: "Anchor-0" 588 1500 mark 0
AnchorPoint: "Anchor-0" 588 1500 mark 0
LayerCount: 2
Fore
SplineSet
878 1920 m 260
 907 1870 885 1827 851 1807 c 2
 623 1674 l 2
 605 1663 599 1661 584 1677 c 2
 550 1713 l 2
 538 1726 538 1734 550 1745 c 2
 746 1936 l 2
 783 1973 851 1966 878 1920 c 260
EndSplineSet
EndChar

StartChar: uni0302
Encoding: 770 770 123
Width: 0
Flags: MW
AnchorPoint: "Anchor-0" 658 1500 mark 0
AnchorPoint: "Anchor-0" 658 1500 mark 0
LayerCount: 2
Fore
SplineSet
439 1690 m 2
 424 1714 l 2
 412 1729 413 1729 431 1744 c 2
 659 1932 l 2
 676 1946 686 1949 715 1949 c 2
 800 1949 l 2
 826 1949 834 1944 843 1932 c 2
 994 1740 l 2
 1002 1730 1003 1730 990 1719 c 2
 961 1695 l 2
 943 1680 943 1682 929 1694 c 2
 775 1830 l 2
 760 1843 746 1844 725 1831 c 2
 474 1684 l 2
 457 1673 449 1677 439 1690 c 2
EndSplineSet
EndChar

StartChar: tildecomb
Encoding: 771 771 124
Width: 0
Flags: MW
AnchorPoint: "Anchor-0" 655 1500 mark 0
AnchorPoint: "Anchor-0" 655 1500 mark 0
LayerCount: 2
Fore
SplineSet
863 1680 m 4
 759 1680 715 1717 682 1759 c 0
 656 1792 628 1838 558 1838 c 0
 503 1838 460 1794 440 1714 c 0
 436 1702 430 1700 417 1700 c 2
 375 1700 l 2
 352 1700 355 1710 361 1730 c 0
 400 1857 465 1954 609 1954 c 4
 713 1954 758 1918 788 1875 c 0
 810 1843 832 1796 895 1796 c 0
 948 1796 989 1837 1010 1912 c 0
 1014 1928 1018 1934 1037 1934 c 2
 1080 1934 l 2
 1098 1934 1098 1928 1094 1912 c 0
 1058 1764 990 1680 863 1680 c 4
EndSplineSet
EndChar

StartChar: uni0304
Encoding: 772 772 125
Width: 0
Flags: HMW
AnchorPoint: "Anchor-0" 659 1500 mark 0
AnchorPoint: "Anchor-0" 659 1500 mark 0
LayerCount: 2
Fore
SplineSet
469 1712 m 6
 469 1745 l 6
 469 1764 471 1772 489 1772 c 6
 915 1772 l 6
 940 1772 949 1768 949 1741 c 6
 949 1710 l 6
 949 1689 948 1680 927 1680 c 6
 504 1680 l 6
 478 1680 469 1684 469 1712 c 6
EndSplineSet
EndChar

StartChar: uni0306
Encoding: 774 774 126
Width: 0
Flags: HMW
AnchorPoint: "Anchor-0" 658 1500 mark 0
AnchorPoint: "Anchor-0" 658 1500 mark 0
LayerCount: 2
Fore
SplineSet
716 1680 m 260
 524 1680 491 1775 519 1919 c 0
 523 1936 529 1938 546 1938 c 2
 560 1938 l 2
 574 1938 577 1935 575 1922 c 0
 563 1832 617 1790 714 1790 c 256
 806 1790 880 1828 909 1909 c 0
 916 1928 911 1938 935 1938 c 2
 962 1938 l 2
 983 1938 982 1934 977 1914 c 0
 942 1774 865 1680 716 1680 c 260
EndSplineSet
EndChar

StartChar: uni0307
Encoding: 775 775 127
Width: 0
Flags: MW
AnchorPoint: "Anchor-0" 536 920 mark 0
AnchorPoint: "Anchor-0" 536 920 mark 0
LayerCount: 2
Fore
SplineSet
631 1269 m 0
 566 1269 511 1325 511 1390 c 0
 511 1456 566 1510 631 1510 c 0
 697 1510 751 1456 751 1390 c 0
 751 1325 697 1269 631 1269 c 0
EndSplineSet
EndChar

StartChar: uni0308
Encoding: 776 776 128
Width: 0
Flags: MW
AnchorPoint: "Anchor-0" 660 1500 mark 0
AnchorPoint: "Anchor-0" 660 1500 mark 0
LayerCount: 2
Fore
SplineSet
880 1690 m 260
 827 1690 784 1733 784 1786 c 260
 784 1839 827 1883 880 1883 c 260
 933 1883 976 1839 976 1786 c 260
 976 1733 933 1690 880 1690 c 260
560 1690 m 260
 507 1690 464 1733 464 1786 c 260
 464 1839 507 1883 560 1883 c 260
 613 1883 656 1839 656 1786 c 260
 656 1733 613 1690 560 1690 c 260
EndSplineSet
EndChar

StartChar: uni030A
Encoding: 778 778 129
Width: 0
Flags: HMW
AnchorPoint: "Anchor-0" 659 1500 mark 0
AnchorPoint: "Anchor-0" 659 1500 mark 0
LayerCount: 2
Fore
SplineSet
713 1754 m 260
 773 1754 823 1795 837 1859 c 260
 850 1922 818 1967 758 1967 c 260
 698 1967 647 1922 634 1859 c 260
 620 1795 653 1754 713 1754 c 260
697 1680 m 0
 596 1680 535 1758 556 1859 c 0
 577 1960 673 2040 774 2040 c 0
 876 2040 937 1961 915 1859 c 0
 894 1758 798 1680 697 1680 c 0
EndSplineSet
EndChar

StartChar: uni030B
Encoding: 779 779 130
Width: 0
Flags: HMW
AnchorPoint: "Anchor-0" 583 1500 mark 0
AnchorPoint: "Anchor-0" 583 1500 mark 0
LayerCount: 2
Fore
SplineSet
807 1680 m 6
 784 1705 l 6
 763 1727 760 1729 782 1750 c 6
 972 1936 l 6
 1016 1979 1076 1962 1105 1924 c 260
 1133 1887 1120 1832 1077 1807 c 6
 844 1671 l 6
 825 1660 822 1664 807 1680 c 6
390 1685 m 6
 369 1706 l 6
 348 1729 356 1736 377 1756 c 6
 561 1936 l 6
 605 1979 661 1965 690 1927 c 260
 718 1890 713 1835 666 1807 c 6
 456 1687 l 6
 424 1668 415 1658 390 1685 c 6
EndSplineSet
EndChar

StartChar: uni030C
Encoding: 780 780 131
Width: 0
Flags: HMW
AnchorPoint: "Anchor-0" 658 1500 mark 0
AnchorPoint: "Anchor-0" 658 1500 mark 0
LayerCount: 2
Fore
SplineSet
597 1721 m 2
 468 1887 l 2
 455 1904 450 1911 472 1926 c 2
 493 1940 l 2
 518 1957 521 1953 541 1938 c 2
 675 1836 l 2
 709 1810 736 1809 781 1836 c 2
 972 1952 l 2
 996 1967 1000 1961 1014 1943 c 2
 1022 1935 l 6
 1037 1917 1040 1910 1018 1892 c 2
 803 1714 l 2
 785 1699 780 1690 748 1690 c 2
 668 1690 l 2
 627 1690 612 1702 597 1721 c 2
EndSplineSet
EndChar

StartChar: uni0311
Encoding: 785 785 132
Width: 0
Flags: HMW
AnchorPoint: "Anchor-0" 658 1500 mark 0
AnchorPoint: "Anchor-0" 658 1500 mark 0
LayerCount: 2
Fore
SplineSet
734 1938 m 260
 906 1938 959 1843 931 1699 c 0
 927 1682 921 1680 904 1680 c 2
 890 1680 l 2
 876 1680 873 1683 875 1696 c 0
 887 1786 833 1828 736 1828 c 256
 644 1828 570 1790 541 1709 c 0
 534 1690 539 1680 515 1680 c 2
 488 1680 l 2
 467 1680 468 1684 473 1704 c 0
 508 1844 585 1938 734 1938 c 260
EndSplineSet
EndChar

StartChar: uni0312
Encoding: 786 786 133
Width: 0
Flags: HMW
AnchorPoint: "Anchor-0" 533 920 mark 0
AnchorPoint: "Anchor-0" 533 920 mark 0
LayerCount: 2
Fore
SplineSet
711 1198 m 0
 711 1145 665 1103 604 1103 c 0
 542 1103 492 1153 492 1254 c 0
 492 1393 628 1513 760 1525 c 0
 772 1526 778 1527 778 1513 c 2
 778 1478 l 2
 778 1464 770 1462 758 1460 c 0
 685 1449 567 1375 576 1283 c 0
 578 1270 584 1276 593 1282 c 4
 603 1288 617 1292 634 1292 c 0
 687 1292 711 1251 711 1198 c 0
EndSplineSet
EndChar

StartChar: dotbelowcomb
Encoding: 803 803 134
Width: 0
Flags: MW
AnchorPoint: "Anchor-1" 340 0 mark 0
AnchorPoint: "Anchor-2" 340 0 mark 0
LayerCount: 2
Fore
SplineSet
281 -410 m 0
 216 -410 161 -354 161 -289 c 0
 161 -223 216 -169 281 -169 c 0
 347 -169 401 -223 401 -289 c 0
 401 -354 347 -410 281 -410 c 0
EndSplineSet
EndChar

StartChar: uni0326
Encoding: 806 806 135
Width: 0
Flags: HMW
AnchorPoint: "Anchor-1" 336 0 mark 0
AnchorPoint: "Anchor-2" 336 0 mark 0
LayerCount: 2
Fore
SplineSet
171 -296 m 0
 171 -243 217 -201 278 -201 c 0
 340 -201 390 -251 390 -352 c 0
 390 -491 254 -611 122 -623 c 0
 110 -624 104 -625 104 -611 c 2
 104 -576 l 2
 104 -562 112 -560 124 -558 c 0
 197 -547 315 -473 306 -381 c 0
 304 -368 298 -374 289 -380 c 4
 279 -386 265 -390 248 -390 c 0
 195 -390 171 -349 171 -296 c 0
EndSplineSet
EndChar

StartChar: uni0327
Encoding: 807 807 136
Width: 0
Flags: HMW
AnchorPoint: "Anchor-1" 368 0 mark 0
AnchorPoint: "Anchor-2" 368 0 mark 0
LayerCount: 2
Fore
SplineSet
83 -480 m 2
 87 -463 l 2
 92 -441 103 -437 123 -436 c 0
 205 -430 296 -402 310 -336 c 0
 327 -256 244 -237 156 -229 c 0
 118 -225 118 -218 135 -200 c 2
 329 2 l 2
 337 11 345 12 361 12 c 2
 386 12 l 2
 416 12 423 7 409 -8 c 2
 295 -126 l 2
 273 -149 274 -147 309 -150 c 0
 416 -160 481 -198 457 -310 c 0
 426 -455 259 -505 102 -509 c 0
 81 -510 78 -502 83 -480 c 2
EndSplineSet
EndChar

StartChar: uni0328
Encoding: 808 808 137
Width: 0
Flags: HMW
AnchorPoint: "Anchor-2" 361 47 mark 0
AnchorPoint: "Anchor-3" 361 47 mark 0
LayerCount: 2
Fore
SplineSet
255 -372 m 0
 142 -372 47 -335 71 -220 c 0
 95 -108 266 -2 388 70 c 0
 413 85 432 90 438 80 c 4
 445 69 431 54 411 36 c 0
 354 -16 285 -89 268 -170 c 0
 257 -221 271 -275 341 -275 c 0
 390 -275 431 -246 460 -214 c 0
 473 -199 482 -199 490 -207 c 2
 502 -217 l 2
 513 -226 511 -230 500 -245 c 0
 444 -318 372 -372 255 -372 c 0
EndSplineSet
EndChar

StartChar: exclamdown
Encoding: 161 161 139
Width: 638
Flags: HMW
LayerCount: 2
Fore
SplineSet
508 940 m 0
 508 874 454 820 388 820 c 0
 322 820 268 874 268 940 c 0
 268 1006 322 1060 388 1060 c 0
 454 1060 508 1006 508 940 c 0
-22 -254 m 0
 81 73 184 324 256 606 c 0
 261 625 264 630 289 630 c 2
 322 630 l 2
 340 630 344 628 340 612 c 0
 275 328 279 45 208 -310 c 0
 192 -390 166 -478 62 -478 c 4
 -2 -478 -42 -428 -42 -364 c 0
 -42 -328 -32 -286 -22 -254 c 0
EndSplineSet
EndChar

StartChar: cent
Encoding: 162 162 140
Width: 1096
VWidth: 2310
Flags: HMW
LayerCount: 2
Fore
SplineSet
735 1230 m 6
 795 1230 l 2
 816 1230 823 1224 816 1205 c 6
 333 -146 l 2
 327 -163 322 -170 303 -170 c 2
 249 -170 l 2
 227 -170 219 -163 225 -147 c 2
 708 1216 l 6
 712 1228 720 1230 735 1230 c 6
EndSplineSet
Refer: 40 99 N 1 0 0 1 0 0 2
EndChar

StartChar: sterling
Encoding: 163 163 141
Width: 1270
VWidth: 2310
Flags: HMW
LayerCount: 2
Fore
SplineSet
-50 -7 m 0
 -7 251 293 399 319 522 c 0
 335 598 329 660 283 660 c 2
 26 660 l 2
 0 660 -4 669 -3 696 c 2
 -3 740 l 2
 -2 765 12 770 36 770 c 2
 273 770 l 2
 323 770 307 784 299 813 c 0
 277 899 256 986 280 1100 c 0
 340 1380 579 1520 901 1520 c 0
 1205 1520 1323 1376 1288 1212 c 0
 1268 1116 1190 1080 1132 1080 c 0
 1078 1080 1026 1122 1042 1196 c 0
 1057 1268 1123 1278 1133 1324 c 0
 1144 1378 1031 1436 883 1436 c 0
 645 1436 537 1268 506 1120 c 0
 480 998 502 901 515 809 c 0
 520 772 521 770 571 770 c 2
 853 770 l 2
 880 770 884 770 884 743 c 2
 885 682 l 2
 885 666 874 660 856 660 c 2
 551 660 l 2
 524 660 519 654 514 629 c 0
 465 402 319 341 194 223 c 0
 164 195 109 155 125 143 c 0
 132 138 154 171 205 184 c 0
 231 191 261 194 295 194 c 0
 495 194 561 126 713 126 c 0
 832 126 946 183 981 294 c 0
 987 314 986 314 1008 314 c 2
 1059 314 l 2
 1083 314 1078 300 1073 280 c 0
 1005 17 832 -60 661 -60 c 0
 387 -60 323 60 197 60 c 0
 127 60 89 31 59 -15 c 0
 50 -28 49 -40 29 -40 c 2
 -37 -40 l 2
 -61 -40 -53 -27 -50 -7 c 0
EndSplineSet
EndChar

StartChar: currency
Encoding: 164 164 142
Width: 1140
Flags: HMW
LayerCount: 2
Fore
SplineSet
14 248 m 1
 -44 321 l 5
 148 479 l 5
 97 563 91 653 116 770 c 256
 141 887 185 977 272 1061 c 1
 147 1219 l 1
 236 1292 l 1
 360 1134 l 1
 445 1196 542 1229 672 1229 c 256
 802 1229 883 1196 943 1135 c 1
 1134 1292 l 1
 1191 1219 l 1
 1000 1061 l 1
 1051 977 1057 887 1032 770 c 0
 1007 654 964 563 877 478 c 1
 1000 321 l 1
 912 248 l 1
 788 405 l 1
 703 344 606 310 477 310 c 256
 347 310 263 344 204 405 c 1
 14 248 l 1
503 433 m 0
 706 433 860 571 902 770 c 256
 944 969 848 1107 646 1107 c 0
 443 1107 288 969 246 770 c 256
 204 571 301 433 503 433 c 0
EndSplineSet
EndChar

StartChar: yen
Encoding: 165 165 143
Width: 1570
Flags: HMW
LayerCount: 2
Fore
SplineSet
334 460 m 6
 1146 460 l 6
 1176 460 1180 456 1180 432 c 6
 1180 383 l 6
 1180 359 1177 350 1143 350 c 6
 331 350 l 6
 299 350 298 354 298 380 c 6
 298 432 l 6
 298 455 307 460 334 460 c 6
404 740 m 6
 1216 740 l 6
 1246 740 1250 736 1250 712 c 6
 1250 663 l 6
 1250 639 1247 630 1213 630 c 6
 401 630 l 6
 369 630 368 634 368 660 c 6
 368 712 l 6
 368 735 377 740 404 740 c 6
EndSplineSet
Refer: 36 89 N 1 0 0 1 0 0 2
EndChar

StartChar: brokenbar
Encoding: 166 166 144
Width: 479
Flags: HMW
LayerCount: 2
Fore
SplineSet
372 1560 m 1
 485 1560 l 1
 327 818 l 1
 214 818 l 1
 372 1560 l 1
111 332 m 5
 224 332 l 1
 47 -500 l 1
 -66 -500 l 1
 111 332 l 5
EndSplineSet
EndChar

StartChar: section
Encoding: 167 167 145
Width: 1068
VWidth: 2310
Flags: HMW
LayerCount: 2
Fore
SplineSet
834 1316 m 0
 848 1382 731 1418 627 1418 c 0
 501 1418 380 1362 360 1268 c 0
 311 1036 1004 1076 935 750 c 0
 914 653 854 564 745 494 c 1
 806 447 841 382 820 284 c 0
 776 76 536 -20 326 -20 c 0
 110 -20 -104 64 -55 296 c 0
 -35 392 47 448 105 448 c 0
 159 448 211 406 195 332 c 0
 180 260 113 250 103 204 c 0
 89 138 241 82 345 82 c 0
 471 82 633 138 653 232 c 0
 702 464 -12 424 57 750 c 0
 86 885 157 940 267 1006 c 1
 206 1053 171 1118 192 1216 c 0
 236 1424 437 1520 627 1520 c 0
 843 1520 1037 1436 992 1224 c 0
 972 1128 890 1072 832 1072 c 0
 778 1072 727 1114 743 1188 c 0
 758 1260 824 1270 834 1316 c 0
339 963 m 5
 317 932 277 879 263 814 c 0
 228 649 488 626 667 541 c 1
 711 583 739 635 750 686 c 0
 785 853 517 875 339 963 c 5
EndSplineSet
EndChar

StartChar: dieresis
Encoding: 168 168 146
Width: 1000
Flags: HMW
AnchorPoint: "Anchor-0" 660 1500 mark 0
AnchorPoint: "Anchor-0" 660 1500 mark 0
LayerCount: 2
Fore
SplineSet
880 1690 m 260
 827 1690 784 1733 784 1786 c 260
 784 1839 827 1883 880 1883 c 260
 933 1883 976 1839 976 1786 c 260
 976 1733 933 1690 880 1690 c 260
560 1690 m 260
 507 1690 464 1733 464 1786 c 260
 464 1839 507 1883 560 1883 c 260
 613 1883 656 1839 656 1786 c 260
 656 1733 613 1690 560 1690 c 260
EndSplineSet
EndChar

StartChar: copyright
Encoding: 169 169 147
Width: 1739
Flags: HMW
LayerCount: 2
Fore
SplineSet
726 73 m 256
 1109 73 1460 349 1545 750 c 256
 1630 1151 1394 1427 1013 1427 c 256
 630 1427 278 1151 193 750 c 256
 107 347 345 73 726 73 c 256
1033 1520 m 256
 1477 1520 1734 1192 1640 750 c 256
 1546 306 1148 -20 706 -20 c 256
 262 -20 5 308 99 750 c 256
 193 1193 591 1520 1033 1520 c 256
EndSplineSet
Refer: 14 67 N 0.6 0 0 0.6 354 290 2
EndChar

StartChar: ordfeminine
Encoding: 170 170 148
Width: 703
VWidth: 2310
Flags: HMW
LayerCount: 2
Fore
SplineSet
553 1348 m 0
 553 1449 532 1538 435 1538 c 0
 334 1538 207 1353 207 1180 c 0
 207 1079 250 1014 327 1014 c 0
 436 1014 553 1211 553 1348 c 0
786 1149 m 0
 740 1034 660 952 577 952 c 0
 521 952 491 986 491 1028 c 0
 491 1045 492 1052 494 1059 c 0
 496 1067 492 1067 485 1059 c 0
 433 996 367 952 293 952 c 0
 186 952 87 1012 87 1180 c 0
 87 1420 294 1599 425 1599 c 0
 505 1599 550 1561 573 1499 c 0
 586 1465 586 1471 592 1497 c 2
 609 1572 l 2
 611 1583 615 1588 629 1588 c 2
 695 1588 l 2
 720 1588 723 1584 718 1565 c 2
 599 1071 l 2
 597 1064 597 1055 597 1049 c 0
 597 1036 603 1026 619 1026 c 0
 657 1026 711 1089 740 1163 c 0
 744 1174 744 1176 755 1172 c 2
 779 1163 l 2
 790 1159 790 1160 786 1149 c 0
EndSplineSet
EndChar

StartChar: guillemotleft
Encoding: 171 171 149
Width: 1390
Flags: HMW
LayerCount: 2
Fore
SplineSet
867 775 m 1
 1251 380 l 5
 1172 290 l 1
 609 750 l 1
 620 800 l 1
 1378 1260 l 1
 1419 1170 l 1
 867 775 l 1
307 775 m 1
 691 380 l 5
 612 290 l 1
 49 750 l 1
 60 800 l 1
 818 1260 l 1
 859 1170 l 1
 307 775 l 1
EndSplineSet
EndChar

StartChar: logicalnot
Encoding: 172 172 150
Width: 971
Flags: HMW
LayerCount: 2
Fore
SplineSet
665 406 m 5
 731 716 l 5
 112 716 l 1
 136 830 l 1
 868 830 l 1
 778 406 l 1
 665 406 l 5
EndSplineSet
EndChar

StartChar: uni00AD
Encoding: 173 173 151
Width: 920
Flags: HMW
LayerCount: 2
Fore
SplineSet
164 830 m 6
 790 830 l 6
 813 830 815 826 810 802 c 6
 800 753 l 6
 795 729 791 720 765 720 c 6
 139 720 l 6
 114 720 113 724 119 750 c 6
 130 802 l 6
 135 825 143 830 164 830 c 6
EndSplineSet
EndChar

StartChar: registered
Encoding: 174 174 152
Width: 1739
Flags: HMW
LayerCount: 2
Fore
SplineSet
726 73 m 260
 1109 73 1460 349 1545 750 c 260
 1630 1151 1394 1427 1013 1427 c 260
 630 1427 278 1151 193 750 c 260
 107 347 345 73 726 73 c 260
1033 1520 m 256
 1477 1520 1734 1192 1640 750 c 256
 1546 306 1148 -20 706 -20 c 256
 262 -20 5 308 99 750 c 256
 193 1193 591 1520 1033 1520 c 256
EndSplineSet
Refer: 29 82 N 0.6 0 0 0.6 403 306 2
EndChar

StartChar: degree
Encoding: 176 176 154
Width: 639
Flags: HMW
LayerCount: 2
Fore
SplineSet
318 1359 m 4
 302 1286 348 1230 421 1230 c 4
 495 1230 563 1286 579 1359 c 4
 595 1433 551 1490 477 1490 c 4
 404 1490 334 1433 318 1359 c 4
209 1359 m 256
 238 1495 364 1600 500 1600 c 256
 637 1600 719 1496 690 1359 c 256
 661 1223 534 1120 398 1120 c 256
 262 1120 180 1223 209 1359 c 256
EndSplineSet
EndChar

StartChar: plusminus
Encoding: 177 177 155
Width: 1059
Flags: HMW
LayerCount: 2
Fore
SplineSet
390 361 m 5
 465 716 l 5
 112 716 l 5
 136 828 l 5
 489 828 l 5
 564 1180 l 5
 677 1180 l 5
 602 828 l 5
 955 828 l 5
 931 716 l 5
 578 716 l 5
 503 361 l 5
 390 361 l 5
-42 -15 m 1
 -18 97 l 1
 801 97 l 1
 777 -15 l 1
 -42 -15 l 1
EndSplineSet
EndChar

StartChar: uni00B2
Encoding: 178 178 156
Width: 675
VWidth: 2310
Flags: HMW
LayerCount: 2
Fore
SplineSet
704 1109 m 0
 713 952 610 902 506 902 c 0
 378 902 306 974 218 974 c 0
 183 974 164 958 152 932 c 0
 148 922 145 914 129 914 c 2
 100 914 l 2
 87 914 86 920 86 931 c 0
 91 1098 257 1224 430 1333 c 0
 519 1389 682 1509 682 1646 c 0
 682 1741 621 1776 526 1776 c 0
 431 1776 344 1722 344 1690 c 0
 344 1662 400 1657 400 1602 c 0
 400 1558 361 1532 329 1532 c 0
 288 1532 249 1559 249 1611 c 0
 249 1721 368 1826 544 1826 c 0
 701 1826 816 1772 816 1634 c 0
 816 1490 630 1358 460 1274 c 0
 342 1215 212 1105 162 1036 c 0
 148 1016 140 994 150 994 c 0
 161 994 160 1012 176 1029 c 0
 204 1057 266 1075 314 1075 c 0
 404 1075 452 1023 543 1023 c 0
 613 1023 643 1055 647 1110 c 0
 649 1124 648 1126 664 1126 c 2
 688 1126 l 2
 702 1126 703 1123 704 1109 c 0
EndSplineSet
EndChar

StartChar: uni00B3
Encoding: 179 179 157
Width: 638
VWidth: 2310
Flags: HMW
LayerCount: 2
Fore
SplineSet
98 1093 m 0
 98 1151 140 1172 175 1172 c 0
 207 1172 243 1146 243 1102 c 0
 243 1059 205 1054 205 1026 c 0
 205 994 256 952 357 952 c 0
 488 952 571 1077 571 1184 c 4
 571 1264 543 1325 424 1344 c 0
 396 1348 370 1336 370 1371 c 2
 370 1382 l 2
 370 1417 397 1406 424 1410 c 0
 575 1433 643 1547 643 1659 c 0
 643 1730 578 1776 489 1776 c 0
 412 1776 373 1736 373 1704 c 0
 373 1676 411 1670 411 1627 c 0
 411 1583 375 1557 343 1557 c 0
 308 1557 266 1578 266 1636 c 0
 266 1734 343 1826 513 1826 c 0
 652 1826 764 1767 764 1641 c 0
 764 1505 683 1451 579 1402 c 0
 534 1381 528 1389 528 1376 c 0
 528 1366 551 1370 576 1360 c 4
 653 1330 692 1276 692 1184 c 4
 692 1022 562 902 369 902 c 4
 187 902 98 995 98 1093 c 0
EndSplineSet
EndChar

StartChar: acute
Encoding: 180 180 158
Width: 790
Flags: HMW
LayerCount: 2
Fore
SplineSet
795 1440 m 6
 334 1421 l 6
 309 1420 302 1421 300 1440 c 4
 297 1460 313 1464 338 1470 c 6
 775 1576 l 6
 831 1589 865 1548 865 1510 c 4
 865 1472 833 1441 795 1440 c 6
EndSplineSet
EndChar

StartChar: mu
Encoding: 181 181 159
Width: 1233
Flags: HMW
LayerCount: 2
Fore
SplineSet
468 847 m 1
 166 -242 l 2
 130 -413 221 -423 231 -415 c 0
 240 -407 231 -407 231 -352 c 0
 231 -287 282 -246 357 -246 c 0
 427 -246 471 -288 471 -360 c 4
 471 -453 374 -520 274 -520 c 0
 112 -520 19 -409 54 -242 c 2
 356 847 l 1
 468 847 l 1
EndSplineSet
Refer: 58 117 N 1 0 0 1 0 0 2
EndChar

StartChar: paragraph
Encoding: 182 182 160
Width: 1332
Flags: HMW
LayerCount: 2
Fore
SplineSet
763 -144 m 6
 1083 1358 l 6
 1089 1385 1074 1387 1045 1387 c 6
 1001 1387 l 6
 963 1387 961 1379 953 1342 c 6
 638 -136 l 6
 631 -168 638 -187 675 -187 c 6
 711 -187 l 6
 753 -187 754 -184 763 -144 c 6
206 1059 m 0
 206 1326 438 1500 726 1500 c 2
 1339 1500 l 2
 1367 1500 1376 1496 1376 1466 c 2
 1376 1428 l 2
 1376 1390 1368 1387 1329 1387 c 2
 1239 1387 l 2
 1197 1387 1199 1376 1190 1336 c 2
 876 -132 l 2
 869 -165 879 -187 917 -187 c 2
 1001 -187 l 2
 1027 -187 1036 -188 1036 -214 c 2
 1036 -259 l 2
 1036 -293 1030 -300 997 -300 c 2
 371 -300 l 2
 345 -300 325 -299 325 -270 c 2
 325 -246 l 2
 325 -197 326 -187 375 -187 c 2
 483 -187 l 2
 515 -187 518 -185 525 -154 c 2
 715 740 l 2
 715 775 706 779 673 779 c 2
 596 779 l 2
 339 779 206 882 206 1059 c 0
EndSplineSet
EndChar

StartChar: cedilla
Encoding: 184 184 162
Width: 1000
Flags: HMW
AnchorPoint: "Anchor-1" 368 0 mark 0
AnchorPoint: "Anchor-2" 368 0 mark 0
LayerCount: 2
Fore
SplineSet
83 -480 m 2
 87 -463 l 2
 92 -441 103 -437 123 -436 c 0
 205 -430 296 -402 310 -336 c 0
 327 -256 244 -237 156 -229 c 0
 118 -225 118 -218 135 -200 c 2
 329 2 l 2
 337 11 345 12 361 12 c 2
 386 12 l 2
 416 12 423 7 409 -8 c 2
 295 -126 l 2
 273 -149 274 -147 309 -150 c 0
 416 -160 481 -198 457 -310 c 0
 426 -455 259 -505 102 -509 c 0
 81 -510 78 -502 83 -480 c 2
EndSplineSet
EndChar

StartChar: uni00B9
Encoding: 185 185 163
Width: 630
VWidth: 2310
Flags: HMW
LayerCount: 2
Fore
SplineSet
-24 935 m 2
 -24 960 l 2
 -24 977 -17 978 0 978 c 2
 155 978 l 6
 177 978 182 984 186 1003 c 2
 318 1616 l 2
 318 1638 316 1644 295 1644 c 2
 173 1644 l 2
 156 1644 146 1645 146 1664 c 2
 146 1682 l 2
 146 1704 149 1710 172 1710 c 0
 288 1711 348 1719 412 1835 c 0
 419 1847 423 1860 443 1860 c 2
 460 1860 l 2
 475 1860 483 1858 480 1844 c 2
 300 1009 l 2
 294 982 303 978 332 978 c 2
 460 978 l 2
 476 978 486 977 486 960 c 2
 486 936 l 2
 486 917 485 912 466 912 c 2
 -4 912 l 2
 -22 912 -24 916 -24 935 c 2
EndSplineSet
EndChar

StartChar: ordmasculine
Encoding: 186 186 164
Width: 654
VWidth: 2310
Flags: HMW
LayerCount: 2
Fore
SplineSet
10 1178 m 0
 10 1406 176 1598 369 1598 c 0
 514 1598 608 1502 608 1370 c 0
 608 1142 442 950 249 950 c 0
 104 950 10 1046 10 1178 c 0
136 1178 m 0
 136 1089 166 1004 249 1004 c 0
 380 1004 482 1185 482 1370 c 0
 482 1459 452 1544 369 1544 c 0
 238 1544 136 1363 136 1178 c 0
EndSplineSet
EndChar

StartChar: guillemotright
Encoding: 187 187 165
Width: 1390
Flags: HMW
LayerCount: 2
Fore
SplineSet
533 775 m 1
 149 1170 l 5
 228 1260 l 1
 790 800 l 1
 779 750 l 1
 22 290 l 1
 -19 380 l 1
 533 775 l 1
1093 775 m 1
 709 1170 l 5
 788 1260 l 1
 1350 800 l 1
 1339 750 l 1
 582 290 l 1
 541 380 l 1
 1093 775 l 1
EndSplineSet
EndChar

StartChar: onequarter
Encoding: 188 188 166
Width: 2000
Flags: HMW
LayerCount: 2
Fore
SplineSet
1502 1440 m 1
 1630 1440 l 1
 508 -60 l 5
 370 -60 l 5
 1502 1440 l 1
EndSplineSet
Refer: 6 52 N 0.6 0 0 0.6 1070 4 2
Refer: 3 49 N 0.6 0 0 0.6 214 632 2
EndChar

StartChar: onehalf
Encoding: 189 189 167
Width: 2000
Flags: HMW
LayerCount: 2
Fore
SplineSet
1502 1450 m 5
 1630 1450 l 5
 508 -50 l 1
 370 -50 l 1
 1502 1450 l 5
EndSplineSet
Refer: 4 50 N 0.6 0 0 0.6 1152 -16 2
Refer: 3 49 N 0.6 0 0 0.6 214 622 2
EndChar

StartChar: threequarters
Encoding: 190 190 168
Width: 2000
Flags: HMW
LayerCount: 2
Fore
SplineSet
1502 1400 m 1
 1630 1400 l 1
 508 -100 l 5
 370 -100 l 5
 1502 1400 l 1
EndSplineSet
Refer: 6 52 N 0.6 0 0 0.6 1070 -36 2
Refer: 5 51 N 0.6 0 0 0.6 130 614 2
EndChar

StartChar: questiondown
Encoding: 191 191 169
Width: 1100
Flags: HMW
LayerCount: 2
Fore
SplineSet
407 602 m 0
 462 643 522 648 558 648 c 0
 679 648 750 574 750 470 c 0
 750 214 102 175 102 -160 c 0
 102 -308 200 -386 358 -386 c 0
 486 -386 602 -328 602 -284 c 0
 602 -224 540 -222 540 -120 c 0
 540 -36 606 0 676 0 c 0
 746 0 810 -46 810 -142 c 0
 810 -326 622 -480 318 -480 c 0
 56 -480 -80 -360 -80 -140 c 0
 -80 314 609 311 609 473 c 0
 609 506 587 534 540 534 c 0
 516 534 471 529 430 494 c 0
 414 480 412 481 406 513 c 6
 394 564 l 2
 390 587 392 591 407 602 c 0
722 940 m 4
 722 874 668 820 602 820 c 4
 536 820 482 874 482 940 c 4
 482 1006 536 1060 602 1060 c 4
 668 1060 722 1006 722 940 c 4
EndSplineSet
EndChar

StartChar: multiply
Encoding: 215 215 170
Width: 1003
Flags: HMW
LayerCount: 2
Fore
SplineSet
548 881 m 2
 799 1088 l 2
 819 1104 830 1109 843 1092 c 2
 880 1047 l 2
 889 1035 894 1028 879 1016 c 2
 618 801 l 2
 591 778 586 770 603 748 c 2
 767 539 l 2
 776 527 771 521 756 508 c 2
 716 477 l 2
 699 463 694 459 683 473 c 2
 524 677 l 2
 505 702 495 700 465 675 c 2
 216 470 l 2
 195 452 188 453 175 470 c 2
 140 513 l 2
 128 529 133 538 151 553 c 2
 406 765 l 6
 429 784 432 792 416 813 c 6
 255 1018 l 6
 242 1034 242 1042 263 1060 c 6
 302 1090 l 2
 319 1104 325 1100 337 1085 c 2
 496 882 l 2
 514 859 521 859 548 881 c 2
EndSplineSet
EndChar

StartChar: divide
Encoding: 247 247 171
Width: 1119
Flags: HMW
LayerCount: 2
Fore
SplineSet
135 836 m 2
 994 836 l 2
 1014 836 1020 830 1020 808 c 2
 1020 742 l 2
 1020 727 1012 724 996 724 c 2
 132 724 l 2
 106 724 100 729 100 754 c 2
 100 796 l 2
 100 829 103 836 135 836 c 2
369 430 m 0
 369 496 425 550 491 550 c 0
 557 550 610 496 610 430 c 0
 610 364 557 310 491 310 c 0
 425 310 369 364 369 430 c 0
509 1140 m 4
 509 1206 565 1260 631 1260 c 4
 697 1260 750 1206 750 1140 c 4
 750 1074 697 1020 631 1020 c 4
 565 1020 509 1074 509 1140 c 4
EndSplineSet
EndChar

StartChar: dotlessi
Encoding: 305 305 172
Width: 618
VWidth: 2310
Flags: MW
AnchorPoint: "Anchor-1" 197 0 basechar 0
AnchorPoint: "Anchor-0" 319 1040 basechar 0
AnchorPoint: "Anchor-2" 197 0 basechar 0
AnchorPoint: "Anchor-0" 319 1040 basechar 0
LayerCount: 2
Fore
SplineSet
442 1024 m 2
 240 178 l 2
 237 167 236 152 236 142 c 0
 236 120 246 104 272 104 c 0
 338 104 429 212 477 338 c 0
 481 350 485 350 498 346 c 2
 540 332 l 2
 555 327 559 328 553 313 c 0
 476 120 341 -20 202 -20 c 0
 108 -20 60 26 60 126 c 0
 60 136 62 158 64 170 c 2
 234 916 l 2
 236 926 235 930 218 930 c 2
 84 930 l 2
 72 930 66 932 66 944 c 2
 66 1017 l 2
 66 1031 67 1040 81 1040 c 2
 425 1040 l 2
 443 1040 445 1038 442 1024 c 2
EndSplineSet
EndChar

StartChar: uni0394
Encoding: 916 916 174
Width: 1720
Flags: HMW
LayerCount: 2
Fore
SplineSet
1111 110 m 6
 1143 110 1139 127 1136 146 c 6
 955 1256 l 6
 949 1296 946 1296 924 1262 c 6
 220 158 l 6
 199 126 196 110 240 110 c 6
 1111 110 l 6
1308 0 m 10
 56 0 l 18
 6 0 -2 12 16 40 c 2
 971 1520 l 2
 977 1529 981 1530 994 1530 c 2
 1074 1530 l 2
 1090 1530 1096 1529 1098 1518 c 2
 1371 44 l 2
 1377 12 1368 0 1308 0 c 10
EndSplineSet
EndChar

StartChar: uni03A9
Encoding: 937 937 175
Width: 1552
Flags: HMW
LayerCount: 2
Fore
SplineSet
1157 300 m 1
 1270 300 l 1
 1206 0 l 1
 767 0 l 1
 853 406 l 5
 1036 476 1162 637 1218 900 c 0
 1285 1213 1194 1413 916 1413 c 0
 638 1413 464 1213 397 900 c 0
 341 637 397 467 550 397 c 5
 466 0 l 1
 27 0 l 1
 91 300 l 1
 204 300 l 1
 184 206 212 163 315 163 c 2
 391 163 l 1
 428 337 l 1
 253 424 110 626 168 900 c 0
 248 1276 552 1520 939 1520 c 0
 1326 1520 1527 1276 1447 900 c 0
 1389 626 1161 430 950 345 c 1
 912 163 l 1
 988 163 l 2
 1091 163 1137 206 1157 300 c 1
EndSplineSet
EndChar

StartChar: pi
Encoding: 960 960 176
Width: 1161
VWidth: 2309
Flags: HMW
LayerCount: 2
Fore
SplineSet
1083 900 m 2
 1054 763 l 2
 1050 742 1051 740 1029 740 c 2
 901 740 l 2
 866 740 868 737 861 703 c 2
 765 247 l 2
 756 207 774 175 822 175 c 0
 854 175 872 184 911 232 c 0
 926 250 926 255 946 245 c 6
 990 224 l 2
 1009 215 1011 214 997 192 c 0
 919 64 793 -20 712 -20 c 0
 618 -20 537 28 562 146 c 2
 683 715 l 2
 688 737 690 740 667 740 c 2
 447 740 l 2
 423 740 423 739 418 715 c 2
 369 486 l 2
 302 170 181 -20 44 -20 c 0
 -38 -20 -65 26 -54 76 c 0
 -25 213 189 164 273 559 c 2
 306 716 l 2
 311 737 313 740 291 740 c 2
 211 740 l 2
 189 740 191 736 187 715 c 2
 167 619 l 2
 161 593 162 590 135 590 c 2
 71 590 l 2
 46 590 48 591 53 616 c 2
 111 888 l 2
 118 921 119 920 152 920 c 2
 1066 920 l 2
 1087 920 1087 921 1083 900 c 2
EndSplineSet
EndChar

StartChar: uni1E9E
Encoding: 7838 7838 177
Width: 1892
VWidth: 2309
Flags: HMW
LayerCount: 2
Fore
SplineSet
-80 0 m 5
 -80 110 l 1
 102 110 l 1
 251 882 l 2
 326 1273 681 1520 1217 1520 c 0
 1524 1520 1812 1388 1873 1322 c 1
 1351 833 l 1
 1651 786 1742 633 1742 450 c 0
 1742 190 1524 -20 1212 -20 c 0
 928 -20 680 126 680 271 c 0
 680 353 731 412 811 412 c 0
 882 412 929 362 929 290 c 0
 929 241 898 202 857 187 c 1
 926 125 1067 97 1173 97 c 0
 1401 97 1532 262 1532 450 c 0
 1532 638 1405 735 1137 735 c 1
 1137 848 l 1
 1610 1298 l 1
 1530 1363 1365 1407 1217 1407 c 0
 739 1407 516 1192 451 861 c 2
 303 110 l 1
 481 110 l 1
 481 0 l 1
 -80 0 l 5
EndSplineSet
EndChar

StartChar: guilsinglleft
Encoding: 8249 8249 190
Width: 830
Flags: HMW
LayerCount: 2
Fore
SplineSet
307 775 m 5
 691 380 l 5
 612 290 l 5
 49 750 l 5
 60 800 l 5
 818 1260 l 5
 859 1170 l 5
 307 775 l 5
EndSplineSet
EndChar

StartChar: guilsinglright
Encoding: 8250 8250 191
Width: 830
Flags: HMW
LayerCount: 2
Fore
SplineSet
533 775 m 1
 149 1170 l 1
 228 1260 l 1
 790 800 l 1
 779 750 l 1
 22 290 l 1
 -19 380 l 1
 533 775 l 1
EndSplineSet
EndChar

StartChar: dagger
Encoding: 8224 8224 193
Width: 1186
Flags: HMW
LayerCount: 2
Fore
SplineSet
604 1074 m 0
 627 1207 615 1237 624 1361 c 0
 625 1375 627 1386 630 1398 c 0
 647 1476 697 1520 756 1520 c 0
 815 1520 847 1476 830 1398 c 0
 827 1386 825 1375 820 1361 c 0
 777 1238 752 1207 719 1078 c 0
 712 1048 700 1032 735 1035 c 0
 812 1042 880 1058 995 1074 c 0
 1009 1076 1021 1076 1033 1076 c 0
 1111 1076 1146 1035 1133 976 c 0
 1120 917 1068 876 990 876 c 0
 978 876 968 876 954 878 c 0
 851 893 791 907 722 915 c 0
 692 918 684 925 677 889 c 0
 648 740 635 610 665 524 c 0
 674 497 670 495 653 465 c 0
 555 298 484 -17 389 -465 c 0
 384 -489 378 -500 352 -500 c 2
 298 -500 l 2
 277 -500 273 -492 277 -473 c 0
 376 -6 442 318 407 482 c 0
 402 506 414 511 430 533 c 0
 491 617 531 741 564 881 c 0
 574 924 566 919 527 915 c 0
 456 907 392 893 286 878 c 0
 272 876 260 876 248 876 c 0
 170 876 134 917 147 976 c 0
 160 1035 213 1076 291 1076 c 0
 303 1076 313 1076 327 1074 c 0
 424 1060 484 1046 548 1038 c 0
 589 1033 596 1028 604 1074 c 0
EndSplineSet
EndChar

StartChar: daggerdbl
Encoding: 8225 8225 194
Width: 1186
Flags: HMW
LayerCount: 2
Fore
SplineSet
600 1056 m 0
 627 1204 614 1231 624 1361 c 0
 625 1375 627 1386 630 1398 c 0
 647 1476 697 1520 756 1520 c 0
 815 1520 847 1476 830 1398 c 0
 827 1386 825 1375 820 1361 c 0
 774 1231 749 1204 714 1056 c 0
 708 1033 710 1033 732 1035 c 0
 810 1042 878 1058 995 1074 c 0
 1009 1076 1021 1076 1033 1076 c 0
 1111 1076 1146 1035 1133 976 c 0
 1120 917 1068 876 990 876 c 0
 978 876 968 876 954 878 c 0
 847 894 787 909 714 916 c 0
 690 918 683 924 678 896 c 0
 649 745 636 613 665 526 c 0
 673 500 674 501 654 474 c 0
 589 387 545 257 511 109 c 0
 504 80 506 80 534 83 c 0
 611 90 678 106 793 122 c 0
 807 124 818 124 830 124 c 0
 908 124 944 83 931 24 c 0
 918 -35 866 -76 788 -76 c 0
 776 -76 765 -76 751 -74 c 0
 648 -59 588 -44 520 -36 c 0
 486 -32 483 -30 476 -68 c 0
 452 -206 463 -235 454 -361 c 0
 453 -375 451 -386 448 -398 c 0
 431 -476 381 -520 322 -520 c 0
 263 -520 231 -476 248 -398 c 0
 251 -386 253 -375 258 -361 c 0
 303 -233 327 -205 363 -60 c 0
 371 -27 360 -33 330 -36 c 0
 258 -44 192 -59 83 -74 c 0
 69 -76 58 -76 46 -76 c 0
 -32 -76 -68 -35 -55 24 c 0
 -42 83 10 124 88 124 c 0
 100 124 111 124 125 122 c 0
 229 107 289 92 359 84 c 0
 383 81 395 74 400 104 c 4
 430 260 444 397 410 484 c 0
 402 505 411 507 426 528 c 0
 489 614 531 741 565 886 c 0
 575 929 556 918 520 914 c 0
 452 906 389 892 286 878 c 0
 272 876 260 876 248 876 c 0
 170 876 134 917 147 976 c 0
 160 1035 213 1076 291 1076 c 0
 303 1076 313 1076 327 1074 c 0
 433 1058 493 1044 564 1036 c 0
 588 1033 595 1027 600 1056 c 0
EndSplineSet
EndChar

StartChar: uni2074
Encoding: 8308 8308 196
Width: 757
VWidth: 2309
Flags: HMW
LayerCount: 2
Fore
SplineSet
569 969 m 2
 569 935 l 2
 569 921 564 919 550 919 c 2
 270 919 l 2
 255 919 251 922 251 938 c 2
 251 965 l 2
 251 981 254 985 269 985 c 2
 354 985 l 2
 367 985 375 989 377 1000 c 2
 413 1172 l 2
 417 1190 411 1195 393 1195 c 2
 109 1195 l 2
 91 1195 87 1197 79 1205 c 2
 63 1221 l 2
 52 1232 54 1236 61 1252 c 0
 145 1451 495 1549 556 1787 c 0
 561 1805 555 1819 580 1819 c 2
 646 1819 l 2
 671 1819 675 1816 672 1794 c 0
 639 1547 240 1426 157 1290 c 0
 146 1271 151 1261 185 1261 c 2
 420 1261 l 2
 433 1261 434 1265 436 1276 c 2
 451 1351 l 2
 455 1370 459 1370 469 1378 c 0
 497 1400 539 1428 557 1482 c 0
 561 1492 562 1501 577 1501 c 2
 580 1501 l 2
 596 1501 596 1496 593 1482 c 2
 550 1287 l 2
 545 1265 554 1261 576 1261 c 2
 628 1261 l 2
 644 1261 647 1257 647 1240 c 2
 647 1213 l 2
 647 1197 642 1195 625 1195 c 2
 554 1195 l 2
 535 1195 531 1189 527 1172 c 2
 491 1007 l 2
 487 989 489 985 508 985 c 6
 548 985 l 2
 563 985 569 984 569 969 c 2
EndSplineSet
EndChar

StartChar: Euro
Encoding: 8364 8364 197
Width: 1629
Flags: HMW
LayerCount: 2
Fore
SplineSet
1178 1404 m 0
 830 1404 576 1114 499 750 c 0
 422 386 543 98 841 98 c 0
 1142 98 1340 325 1377 464 c 0
 1380 476 1386 480 1400 480 c 2
 1470 480 l 2
 1484 480 1491 479 1488 466 c 0
 1440 266 1177 -20 796 -20 c 0
 420 -20 174 304 269 750 c 0
 364 1196 787 1520 1193 1520 c 0
 1487 1520 1640 1356 1597 1152 c 0
 1577 1056 1499 1020 1441 1020 c 0
 1387 1020 1335 1062 1351 1136 c 0
 1366 1208 1433 1218 1443 1264 c 0
 1454 1318 1396 1404 1178 1404 c 0
EndSplineSet
Refer: 87 61 N 1 0 0 1 -70 -30 2
EndChar

StartChar: partialdiff
Encoding: 8706 8706 198
Width: 1100
VWidth: 2310
Flags: HMW
LayerCount: 2
Fore
SplineSet
200 470 m 4
 154 252 179 70 357 70 c 4
 555 70 696 262 759 560 c 4
 793 720 701 862 535 862 c 4
 377 862 248 698 200 470 c 4
488 1382 m 0
 482 1356 526 1338 511 1266 c 0
 495 1192 426 1150 372 1150 c 0
 314 1150 252 1186 272 1282 c 0
 307 1446 471 1520 635 1520 c 0
 957 1520 1099 1220 997 740 c 0
 876 170 680 -20 358 -20 c 0
 76 -20 -68 150 -0 470 c 0
 70 800 290 960 512 960 c 0
 644 960 734 913 785 839 c 0
 798 820 799 806 808 810 c 0
 816 814 815 827 820 860 c 0
 877 1203 839 1436 607 1436 c 0
 529 1436 494 1408 488 1382 c 0
EndSplineSet
EndChar

StartChar: emptyset
Encoding: 8709 8709 199
Width: 1140
VWidth: 2309
Flags: HMW
LayerCount: 2
Fore
SplineSet
48 311 m 5
 1019 1282 l 5
 1102 1209 l 5
 131 238 l 5
 48 311 l 5
242 770 m 4
 242 592 358 433 571 433 c 4
 784 433 898 592 898 770 c 4
 898 948 784 1107 571 1107 c 4
 358 1107 242 948 242 770 c 4
112 770 m 4
 112 1020 289 1229 571 1229 c 4
 853 1229 1028 1020 1028 770 c 4
 1028 520 853 310 571 310 c 4
 289 310 112 520 112 770 c 4
EndSplineSet
EndChar

StartChar: product
Encoding: 8719 8719 200
Width: 1770
Flags: HMW
LayerCount: 2
Fore
SplineSet
610 1347 m 2
 355 150 l 2
 349 120 360 110 393 110 c 2
 562 110 l 2
 589 110 595 105 595 76 c 2
 595 50 l 2
 595 5 589 0 545 0 c 2
 -15 0 l 2
 -48 0 -55 5 -55 40 c 2
 -55 68 l 2
 -55 104 -49 110 -14 110 c 2
 124 110 l 2
 146 110 159 113 165 144 c 2
 420 1351 l 2
 426 1382 411 1390 381 1390 c 2
 235 1390 l 2
 201 1390 200 1401 200 1436 c 2
 200 1462 l 2
 200 1494 210 1500 240 1500 c 2
 1780 1500 l 2
 1812 1500 1820 1496 1820 1462 c 2
 1820 1424 l 2
 1820 1396 1811 1390 1781 1390 c 2
 1655 1390 l 2
 1611 1390 1609 1386 1600 1344 c 2
 1345 144 l 2
 1339 117 1352 110 1382 110 c 2
 1526 110 l 2
 1553 110 1565 107 1565 78 c 2
 1565 44 l 2
 1565 2 1554 0 1515 0 c 2
 955 0 l 2
 919 0 915 7 915 44 c 2
 915 74 l 2
 915 102 917 110 944 110 c 2
 1113 110 l 2
 1152 110 1147 125 1155 160 c 2
 1410 1338 l 2
 1419 1380 1404 1390 1361 1390 c 2
 657 1390 l 2
 615 1390 618 1383 610 1347 c 2
EndSplineSet
EndChar

StartChar: summation
Encoding: 8721 8721 201
Width: 1305
Flags: HMW
LayerCount: 2
Fore
SplineSet
225 1500 m 1
 1329 1500 l 1
 1242 1090 l 1
 1128 1090 l 1
 1173 1304 1166 1387 932 1387 c 2
 431 1387 l 1
 715 813 l 1
 116 113 l 1
 640 113 l 2
 913 113 958 196 1012 450 c 1
 1125 450 l 1
 1029 0 l 1
 -104 0 l 1
 527 750 l 5
 201 1387 l 1
 225 1500 l 1
EndSplineSet
EndChar

StartChar: minus
Encoding: 8722 8722 202
Width: 1224
Flags: HMW
LayerCount: 2
Fore
SplineSet
160 830 m 6
 1066 830 l 6
 1099 830 1104 826 1104 802 c 6
 1104 753 l 6
 1104 729 1102 720 1064 720 c 6
 157 720 l 6
 121 720 120 724 120 750 c 6
 120 802 l 6
 120 825 130 830 160 830 c 6
EndSplineSet
EndChar

StartChar: uni2219
Encoding: 8729 8729 204
Width: 440
Flags: HMW
LayerCount: 2
Fore
SplineSet
105 770 m 4
 105 836 159 890 225 890 c 4
 291 890 345 836 345 770 c 4
 345 704 291 650 225 650 c 4
 159 650 105 704 105 770 c 4
EndSplineSet
EndChar

StartChar: radical
Encoding: 8730 8730 205
Width: 1130
Flags: HMW
LayerCount: 2
Fore
SplineSet
1101 1390 m 1
 503 -20 l 5
 375 -20 l 1
 192 421 l 1
 68 363 l 1
 47 450 l 1
 305 580 l 1
 460 160 l 1
 1038 1500 l 1
 1289 1500 l 1
 1265 1390 l 1
 1101 1390 l 1
EndSplineSet
EndChar

StartChar: infinity
Encoding: 8734 8734 206
Width: 1813
VWidth: 2309
Flags: HMW
LayerCount: 2
Fore
SplineSet
1622 780 m 4
 1622 948 1517 1047 1364 1047 c 4
 1237 1047 1126 945 1031 825 c 4
 1004 791 992 784 1020 748 c 4
 1117 623 1232 513 1364 513 c 4
 1517 513 1622 622 1622 780 c 4
1763 780 m 4
 1763 540 1606 401 1364 401 c 4
 1209 401 1061 508 946 644 c 4
 906 691 910 696 870 648 c 4
 754 510 606 401 449 401 c 4
 207 401 50 550 50 780 c 4
 50 1020 207 1159 449 1159 c 4
 611 1159 763 1044 881 899 c 4
 906 868 904 864 930 896 c 4
 1048 1043 1201 1159 1364 1159 c 4
 1606 1159 1763 1020 1763 780 c 4
786 820 m 4
 688 942 568 1047 439 1047 c 4
 286 1047 191 928 191 780 c 4
 191 622 286 513 439 513 c 4
 569 513 691 621 789 744 c 4
 818 780 815 784 786 820 c 4
EndSplineSet
EndChar

StartChar: integral
Encoding: 8747 8747 207
Width: 782
VWidth: 2310
Flags: HMW
LayerCount: 2
Fore
SplineSet
222 1144 m 6
 222 1406 356 1580 616 1580 c 0
 818 1580 952 1472 952 1358 c 0
 952 1272 904 1226 834 1226 c 0
 764 1226 718 1266 718 1322 c 0
 718 1382 760 1396 760 1436 c 0
 760 1460 724 1490 620 1490 c 0
 460 1490 402 1354 402 1100 c 2
 402 -85 l 2
 402 -347 268 -521 8 -521 c 0
 -194 -521 -328 -413 -328 -299 c 0
 -328 -213 -280 -167 -210 -167 c 0
 -140 -167 -94 -207 -94 -263 c 0
 -94 -323 -136 -337 -136 -377 c 0
 -136 -401 -100 -431 4 -431 c 0
 164 -431 222 -295 222 -41 c 2
 222 1144 l 6
EndSplineSet
EndChar

StartChar: approxequal
Encoding: 8776 8776 208
Width: 1200
VWidth: 0
Flags: HMW
LayerCount: 2
Fore
SplineSet
842 864 m 0
 724 864 637 942 596 1007 c 0
 559 1065 513 1091 460 1091 c 0
 353 1091 293 1036 276 957 c 0
 273 941 271 925 271 907 c 2
 271 907 271 905 271 904 c 0
 269 893 257 882 246 882 c 2
 163 882 l 2
 154 882 148 888 147 897 c 0
 137 1028 235 1164 382 1203 c 0
 409 1210 437 1214 466 1214 c 0
 591 1214 677 1133 718 1071 c 0
 755 1014 787 987 838 987 c 0
 927 987 978 1035 994 1110 c 0
 998 1129 1000 1149 999 1171 c 0
 999 1172 999 1173 999 1174 c 0
 1001 1185 1012 1196 1023 1196 c 2
 1106 1196 l 2
 1114 1196 1122 1190 1122 1181 c 0
 1126 1038 1027 900 894 870 c 0
 877 866 860 864 842 864 c 0
735 364 m 0
 617 364 531 442 490 507 c 0
 453 565 407 591 354 591 c 0
 247 591 186 536 169 457 c 0
 166 441 165 425 165 407 c 2
 165 407 165 405 165 404 c 0
 163 393 151 382 140 382 c 2
 57 382 l 2
 48 382 42 388 41 397 c 0
 31 528 129 664 276 703 c 4
 303 710 331 714 360 714 c 4
 485 714 570 633 611 571 c 0
 648 514 681 487 732 487 c 0
 821 487 872 535 888 610 c 0
 892 629 893 649 892 671 c 0
 892 672 892 673 892 674 c 0
 894 685 906 696 917 696 c 2
 1000 696 l 2
 1008 696 1016 690 1016 681 c 0
 1020 538 921 400 788 370 c 0
 771 366 753 364 735 364 c 0
EndSplineSet
EndChar

StartChar: notequal
Encoding: 8800 8800 209
Width: 1119
Flags: HMW
LayerCount: 2
Fore
SplineSet
190 282 m 6
 859 1239 l 6
 884 1274 890 1276 906 1265 c 6
 938 1243 l 6
 954 1232 957 1225 929 1185 c 6
 259 228 l 6
 232 190 229 191 212 203 c 6
 178 226 l 6
 163 237 168 250 190 282 c 6
129 680 m 6
 939 680 l 6
 969 680 972 676 972 652 c 6
 972 603 l 6
 972 579 970 570 936 570 c 6
 126 570 l 6
 94 570 92 574 92 600 c 6
 92 652 l 6
 92 675 102 680 129 680 c 6
192 980 m 6
 1002 980 l 6
 1032 980 1035 976 1035 952 c 6
 1035 903 l 6
 1035 879 1033 870 999 870 c 6
 189 870 l 6
 157 870 155 874 155 900 c 6
 155 952 l 6
 155 975 165 980 192 980 c 6
EndSplineSet
EndChar

StartChar: lessequal
Encoding: 8804 8804 210
Width: 1119
Flags: HMW
LayerCount: 2
Fore
SplineSet
24 170 m 6
 835 170 l 6
 865 170 869 166 869 142 c 6
 869 93 l 6
 869 69 866 60 832 60 c 6
 22 60 l 6
 -10 60 -12 64 -12 90 c 6
 -12 142 l 6
 -12 165 -3 170 24 170 c 6
296 752 m 2
 892 505 l 2
 919 494 930 487 930 447 c 2
 930 405 l 2
 930 360 912 366 886 377 c 2
 152 678 l 2
 123 690 120 699 120 740 c 2
 120 820 l 2
 120 862 125 863 154 873 c 2
 1046 1187 l 2
 1072 1196 1080 1193 1080 1159 c 2
 1080 1113 l 2
 1080 1076 1070 1065 1044 1056 c 2
 298 799 l 2
 267 788 250 787 250 776 c 0
 250 765 263 766 296 752 c 2
EndSplineSet
EndChar

StartChar: greaterequal
Encoding: 8805 8805 211
Width: 1119
Flags: HMW
LayerCount: 2
Fore
SplineSet
26 170 m 6
 837 170 l 6
 867 170 871 166 871 142 c 6
 871 93 l 6
 871 69 868 60 834 60 c 6
 24 60 l 6
 -8 60 -10 64 -10 90 c 6
 -10 142 l 6
 -10 165 -1 170 26 170 c 6
824 798 m 2
 228 1045 l 2
 201 1056 190 1063 190 1103 c 2
 190 1145 l 2
 190 1190 208 1184 234 1173 c 2
 968 872 l 2
 997 860 1000 851 1000 810 c 2
 1000 730 l 2
 1000 688 995 687 966 677 c 2
 74 363 l 2
 48 354 40 357 40 391 c 2
 40 437 l 2
 40 474 50 485 76 494 c 2
 822 751 l 2
 853 762 870 763 870 774 c 0
 870 785 857 784 824 798 c 2
EndSplineSet
EndChar

StartChar: lozenge
Encoding: 9674 9674 212
Width: 1200
VWidth: 0
Flags: HMW
LayerCount: 2
Fore
SplineSet
495 240 m 261
 321 702 l 261
 711 1182 l 261
 869 722 l 261
 495 240 l 261
458 30 m 257
 991 712 l 257
 748 1392 l 257
 191 712 l 257
 458 30 l 257
EndSplineSet
EndChar

StartChar: uniF8E8
Encoding: 63720 63720 213
Width: 1125
Flags: HMW
LayerCount: 2
Fore
SplineSet
556 724 m 260
 786 724 996 889 1047 1130 c 260
 1098 1371 957 1536 728 1536 c 260
 498 1536 287 1371 236 1130 c 260
 184 888 327 724 556 724 c 260
740 1592 m 256
 1006 1592 1160 1395 1104 1130 c 256
 1048 864 809 668 544 668 c 256
 278 668 123 865 179 1130 c 256
 235 1396 475 1592 740 1592 c 256
880 915 m 0
 867 880 837 856 793 856 c 0
 733 856 717 886 717 926 c 0
 717 962 730 1006 730 1042 c 0
 730 1082 716 1112 656 1112 c 2
 545 1112 l 2
 534 1112 530 1109 528 1100 c 2
 490 915 l 2
 488 905 488 903 501 903 c 2
 559 903 l 2
 566 903 571 902 571 894 c 2
 571 878 l 2
 571 867 570 864 559 864 c 2
 342 864 l 2
 335 864 333 866 333 874 c 2
 333 891 l 2
 333 901 335 903 345 903 c 2
 403 903 l 2
 417 903 415 907 418 918 c 2
 511 1352 l 2
 513 1362 514 1364 501 1364 c 2
 454 1364 l 2
 442 1364 441 1367 441 1379 c 2
 441 1391 l 2
 441 1404 444 1404 457 1404 c 2
 714 1404 l 2
 837 1404 872 1346 872 1281 c 0
 872 1217 834 1163 758 1139 c 0
 745 1135 738 1136 738 1133 c 0
 738 1130 745 1130 758 1125 c 0
 795 1110 805 1081 805 1048 c 0
 805 1008 789 962 789 935 c 0
 789 919 799 906 816 906 c 0
 829 906 846 910 857 928 c 0
 861 935 862 935 870 931 c 2
 875 928 l 2
 882 924 883 924 880 915 c 0
559 1155 m 2
 663 1155 l 2
 718 1155 800 1203 800 1281 c 0
 800 1331 776 1364 714 1364 c 2
 599 1364 l 2
 587 1364 585 1361 583 1351 c 2
 544 1169 l 2
 541 1156 543 1155 559 1155 c 2
EndSplineSet
EndChar

StartChar: uniF8E9
Encoding: 63721 63721 214
Width: 1125
Flags: HMW
LayerCount: 2
Fore
SplineSet
556 724 m 256
 786 724 996 889 1047 1130 c 256
 1098 1371 957 1536 728 1536 c 256
 498 1536 287 1371 236 1130 c 256
 184 888 327 724 556 724 c 256
740 1592 m 256
 1006 1592 1160 1395 1104 1130 c 256
 1048 864 809 668 544 668 c 256
 278 668 123 865 179 1130 c 256
 235 1396 475 1592 740 1592 c 256
848 1039 m 0
 804 953 723 847 581 847 c 0
 456 847 365 923 365 1074 c 0
 365 1226 496 1401 682 1401 c 0
 763 1401 813 1376 844 1339 c 0
 852 1330 851 1330 857 1340 c 2
 885 1388 l 2
 888 1392 891 1394 898 1394 c 2
 920 1394 l 2
 927 1394 928 1392 927 1386 c 2
 891 1222 l 2
 889 1212 888 1210 876 1210 c 2
 862 1210 l 2
 851 1210 850 1213 851 1222 c 0
 857 1301 785 1357 687 1357 c 0
 535 1357 448 1200 448 1074 c 0
 448 957 494 892 590 892 c 0
 686 892 763 977 800 1042 c 0
 803 1048 807 1052 816 1052 c 2
 834 1052 l 6
 851 1052 853 1049 848 1039 c 0
EndSplineSet
EndChar

StartChar: uniF8EA
Encoding: 63722 63722 215
Width: 1426
Flags: HMW
LayerCount: 2
Fore
SplineSet
277 988 m 2
 277 1005 l 2
 277 1012 278 1015 285 1015 c 2
 346 1015 l 2
 362 1015 365 1016 368 1030 c 2
 461 1465 l 2
 464 1477 464 1479 449 1479 c 2
 422 1479 l 2
 327 1479 294 1447 266 1345 c 0
 264 1337 262 1331 251 1331 c 6
 237 1331 l 2
 225 1331 227 1339 229 1347 c 2
 264 1501 l 2
 267 1512 269 1515 283 1515 c 2
 738 1515 l 2
 757 1515 757 1512 754 1498 c 2
 718 1343 l 2
 716 1333 717 1331 704 1331 c 2
 694 1331 l 2
 679 1331 679 1333 682 1345 c 0
 703 1448 690 1479 595 1479 c 2
 553 1479 l 2
 540 1479 537 1477 534 1465 c 2
 441 1030 l 2
 438 1017 439 1015 455 1015 c 2
 514 1015 l 2
 525 1015 526 1012 526 1000 c 2
 526 989 l 2
 526 976 522 975 509 975 c 2
 287 975 l 2
 278 975 277 978 277 988 c 2
1292 1414 m 2
 1054 977 l 2
 1050 969 1046 968 1033 968 c 2
 1010 968 l 2
 1000 968 998 973 997 981 c 2
 938 1442 l 2
 937 1453 939 1462 935 1462 c 0
 932 1462 932 1456 929 1445 c 2
 826 1028 l 2
 823 1015 825 1015 841 1015 c 2
 895 1015 l 2
 903 1015 906 1013 906 1005 c 2
 906 985 l 2
 906 975 903 975 893 975 c 2
 704 975 l 2
 694 975 690 976 690 986 c 2
 690 1002 l 2
 690 1012 692 1015 702 1015 c 2
 753 1015 l 2
 774 1015 775 1015 779 1031 c 2
 887 1460 l 2
 891 1475 889 1475 870 1475 c 2
 824 1475 l 2
 813 1475 810 1477 810 1487 c 2
 810 1501 l 2
 810 1514 816 1515 828 1515 c 2
 966 1515 l 2
 990 1515 994 1513 997 1491 c 2
 1042 1105 l 2
 1045 1078 1042 1067 1049 1067 c 0
 1055 1067 1062 1084 1073 1105 c 2
 1288 1503 l 2
 1293 1512 1296 1515 1311 1515 c 2
 1458 1515 l 2
 1467 1515 1470 1513 1470 1504 c 2
 1470 1489 l 2
 1470 1476 1467 1475 1454 1475 c 2
 1398 1475 l 2
 1388 1475 1383 1475 1382 1466 c 2
 1306 1028 l 2
 1304 1016 1306 1015 1320 1015 c 2
 1383 1015 l 2
 1396 1015 1396 1011 1396 998 c 2
 1396 989 l 2
 1396 976 1393 975 1380 975 c 2
 1164 975 l 2
 1154 975 1152 977 1152 988 c 2
 1152 999 l 2
 1152 1012 1154 1015 1167 1015 c 2
 1226 1015 l 2
 1241 1015 1240 1018 1242 1030 c 2
 1310 1407 l 2
 1316 1440 1322 1454 1316 1454 c 0
 1310 1454 1305 1438 1292 1414 c 2
EndSplineSet
EndChar

StartChar: uniFF10
Encoding: 65296 65296 216
Width: 1100
Flags: HMW
LayerCount: 2
Fore
SplineSet
90 750 m 0
 198 1316 471 1520 692 1520 c 0
 949 1520 1116 1316 1008 750 c 0
 900 184 646 -20 416 -20 c 0
 195 -20 -18 184 90 750 c 0
288 750 m 0
 195 266 261 80 412 80 c 0
 572 80 717 266 810 750 c 0
 903 1234 847 1420 687 1420 c 0
 536 1420 381 1234 288 750 c 0
EndSplineSet
EndChar

StartChar: uniFF19
Encoding: 65305 65305 225
Width: 1100
VWidth: 2310
Flags: HMW
LayerCount: 2
Fore
SplineSet
220 118 m 0
 220 92 239 64 317 64 c 0
 549 64 685 297 774 640 c 0
 783 673 790 686 784 690 c 0
 777 694 770 680 749 661 c 0
 666 587 556 540 424 540 c 0
 202 540 50 700 120 1030 c 0
 188 1350 404 1520 646 1520 c 4
 968 1520 1124 1330 1003 760 c 0
 901 280 631 -20 309 -20 c 0
 145 -20 48 84 48 198 c 0
 48 306 116 350 174 350 c 0
 238 350 293 310 293 234 c 0
 293 162 220 145 220 118 c 0
320 1030 m 0
 272 802 331 638 489 638 c 0
 655 638 807 780 841 940 c 0
 904 1238 855 1430 657 1430 c 0
 479 1430 366 1248 320 1030 c 0
EndSplineSet
EndChar

StartChar: zero.oldstyle
Encoding: 65538 -1 226
Width: 1080
Flags: HMW
LayerCount: 2
Fore
SplineSet
251 520 m 4
 191 236 229 80 397 80 c 4
 585 80 671 236 731 520 c 4
 791 804 772 960 584 960 c 4
 416 960 311 804 251 520 c 4
31 520 m 0
 109 886 339 1060 585 1060 c 0
 851 1060 1029 886 951 520 c 0
 873 154 622 -20 396 -20 c 0
 150 -20 -47 154 31 520 c 0
EndSplineSet
Substitution2: "'tnum' Tabular Numbers lookup 2 subtable" zero.oldtab
EndChar

StartChar: one.oldstyle
Encoding: 65539 -1 227
Width: 1050
VWidth: 2310
Flags: HMW
LayerCount: 2
Fore
SplineSet
-50 28 m 2
 -50 80 l 2
 -50 105 -43 110 -20 110 c 2
 272 110 l 6
 296 110 305 117 310 139 c 2
 445 776 l 2
 452 810 444 820 409 820 c 2
 200 820 l 2
 170 820 164 826 164 857 c 2
 164 892 l 2
 164 920 164 930 192 930 c 0
 394 931 491 945 612 1154 c 0
 622 1171 625 1180 652 1180 c 2
 683 1180 l 2
 712 1180 719 1170 713 1141 c 2
 500 150 l 2
 493 118 504 110 536 110 c 2
 769 110 l 2
 792 110 801 109 801 86 c 2
 801 31 l 2
 801 1 792 0 761 0 c 2
 -20 0 l 2
 -41 0 -50 5 -50 28 c 2
EndSplineSet
Substitution2: "'tnum' Tabular Numbers lookup 2 subtable" one.oldtab
EndChar

StartChar: two.oldstyle
Encoding: 65540 -1 228
Width: 1090
VWidth: 2310
Flags: HMW
LayerCount: 2
Fore
SplineSet
920 290 m 0
 914 19 763 -60 590 -60 c 0
 376 -60 326 60 160 60 c 0
 91 60 58 31 38 -14 c 0
 28 -37 22 -40 -13 -40 c 2
 -42 -40 l 2
 -64 -40 -71 -34 -70 -14 c 0
 -59 265 275 460 504 558 c 0
 710 646 794 752 794 890 c 0
 794 1008 722 1056 584 1056 c 0
 436 1056 310 998 310 944 c 0
 310 898 374 888 374 816 c 0
 374 742 314 700 260 700 c 0
 202 700 132 736 132 832 c 0
 132 996 340 1140 584 1140 c 0
 826 1140 1016 1060 1016 860 c 0
 1016 700 862 539 534 440 c 0
 415 404 195 309 130 214 c 0
 105 178 90 150 95 144 c 0
 100 138 113 162 152 177 c 0
 182 188 217 194 260 194 c 0
 460 194 450 126 602 126 c 0
 719 126 818 181 825 287 c 0
 827 312 832 314 859 314 c 2
 889 314 l 2
 913 314 920 314 920 290 c 0
EndSplineSet
Substitution2: "'tnum' Tabular Numbers lookup 2 subtable" two.oldtab
EndChar

StartChar: three.oldstyle
Encoding: 65541 -1 229
Width: 1060
VWidth: 2310
Flags: HMW
LayerCount: 2
Fore
SplineSet
-150 -162 m 0
 -150 -66 -80 -30 -22 -30 c 0
 32 -30 92 -72 92 -146 c 0
 92 -218 28 -228 28 -274 c 0
 28 -328 114 -396 282 -396 c 0
 500 -396 638 -188 638 -10 c 4
 638 124 592 225 394 257 c 0
 348 264 304 243 304 302 c 2
 304 320 l 2
 304 379 349 359 394 366 c 0
 645 404 758 596 758 782 c 0
 758 900 650 976 502 976 c 0
 374 976 308 910 308 856 c 0
 308 810 372 800 372 728 c 0
 372 654 312 612 258 612 c 0
 200 612 130 648 130 744 c 0
 130 908 258 1060 542 1060 c 0
 774 1060 960 962 960 752 c 0
 960 526 826 436 652 354 c 0
 577 319 566 332 566 310 c 0
 566 294 604 299 646 283 c 4
 774 233 840 144 840 -10 c 4
 840 -280 624 -480 302 -480 c 4
 -2 -480 -150 -326 -150 -162 c 0
EndSplineSet
Substitution2: "'tnum' Tabular Numbers lookup 2 subtable" three.oldtab
EndChar

StartChar: four.oldstyle
Encoding: 65542 -1 230
Width: 1080
VWidth: 2310
Flags: HMW
LayerCount: 2
Fore
SplineSet
790 -376 m 2
 790 -434 l 2
 790 -457 783 -460 759 -460 c 2
 292 -460 l 2
 267 -460 260 -455 260 -428 c 2
 260 -383 l 2
 260 -357 265 -350 290 -350 c 2
 432 -350 l 2
 453 -350 466 -344 470 -325 c 2
 530 -38 l 2
 536 -8 527 0 497 0 c 2
 24 0 l 2
 -6 0 -13 3 -27 17 c 2
 -53 43 l 2
 -72 62 -67 68 -56 95 c 0
 84 426 666 590 768 987 c 0
 776 1017 768 1040 809 1040 c 2
 918 1040 l 2
 959 1040 967 1036 962 999 c 0
 907 587 242 384 104 158 c 0
 85 127 93 110 150 110 c 2
 541 110 l 2
 562 110 565 116 569 135 c 2
 594 260 l 2
 600 292 607 292 624 305 c 0
 671 341 740 388 770 478 c 0
 776 495 778 510 803 510 c 2
 809 510 l 2
 835 510 835 502 830 479 c 2
 759 154 l 2
 751 118 764 110 801 110 c 2
 889 110 l 2
 916 110 920 103 920 75 c 2
 920 30 l 2
 920 3 912 0 884 0 c 2
 765 0 l 2
 734 0 726 -11 720 -39 c 2
 660 -314 l 2
 654 -344 656 -350 688 -350 c 6
 755 -350 l 2
 780 -350 790 -351 790 -376 c 2
EndSplineSet
Substitution2: "'tnum' Tabular Numbers lookup 2 subtable" four.oldtab
EndChar

StartChar: five.oldstyle
Encoding: 65543 -1 231
Width: 1030
VWidth: 2310
Flags: HMW
LayerCount: 2
Fore
SplineSet
-145 -182 m 0
 -145 -86 -75 -50 -17 -50 c 0
 37 -50 97 -92 97 -166 c 0
 97 -238 33 -248 33 -294 c 0
 33 -348 119 -396 227 -396 c 0
 425 -396 633 -138 633 170 c 0
 633 378 525 442 377 442 c 0
 284 442 211 409 149 343 c 4
 132 325 126 314 88 314 c 2
 46 314 l 2
 8 314 5 330 15 358 c 2
 238 1002 l 2
 248 1031 259 1040 293 1040 c 2
 529 1040 l 2
 751 1040 793 1009 853 1076 c 0
 863 1087 867 1104 892 1104 c 2
 949 1104 l 2
 963 1104 966 1102 963 1090 c 2
 951 1040 l 2
 915 876 848 860 374 860 c 2
 330 860 l 2
 300 860 295 854 285 828 c 2
 167 506 l 2
 151 462 138 434 146 430 c 0
 159 424 180 447 217 474 c 0
 273 514 363 540 471 540 c 0
 673 540 840 420 840 180 c 0
 840 -220 529 -480 247 -480 c 0
 3 -480 -145 -346 -145 -182 c 0
EndSplineSet
Substitution2: "'tnum' Tabular Numbers lookup 2 subtable" five.oldtab
EndChar

StartChar: seven.oldstyle
Encoding: 65544 -1 232
Width: 1048
VWidth: 2310
Flags: HMW
LayerCount: 2
Fore
SplineSet
70 702 m 0
 114 979 245 1060 420 1060 c 0
 614 1060 674 940 840 940 c 0
 914 940 946 973 966 1023 c 0
 971 1036 972 1040 991 1040 c 2
 1060 1040 l 2
 1083 1040 1079 1032 1076 1011 c 0
 1052 861 741 496 566 284 c 0
 416 102 348 12 348 -76 c 0
 348 -192 434 -202 434 -344 c 4
 434 -418 384 -480 296 -480 c 0
 218 -480 144 -406 144 -268 c 0
 144 -90 296 104 458 312 c 0
 563 446 770 667 843 794 c 0
 855 814 865 831 860 836 c 0
 855 841 843 823 822 817 c 0
 796 809 766 806 730 806 c 0
 530 806 510 874 358 874 c 0
 237 874 198 821 164 706 c 0
 160 692 163 686 148 686 c 2
 92 686 l 2
 77 686 68 687 70 702 c 0
EndSplineSet
Substitution2: "'tnum' Tabular Numbers lookup 2 subtable" seven.oldtab
EndChar

StartChar: nine.oldstyle
Encoding: 65545 -1 233
Width: 1100
VWidth: 2310
Flags: HMW
LayerCount: 2
Fore
SplineSet
120 -342 m 0
 120 -368 139 -396 217 -396 c 0
 449 -396 585 -163 674 180 c 0
 683 213 690 226 684 230 c 0
 677 234 670 220 649 201 c 0
 566 127 456 80 324 80 c 0
 102 80 -50 240 20 570 c 0
 88 890 304 1060 546 1060 c 4
 868 1060 1024 870 903 300 c 0
 801 -180 531 -480 209 -480 c 0
 45 -480 -52 -376 -52 -262 c 0
 -52 -154 16 -110 74 -110 c 0
 138 -110 193 -150 193 -226 c 0
 193 -298 120 -315 120 -342 c 0
220 570 m 0
 172 342 231 178 389 178 c 0
 555 178 707 320 741 480 c 0
 804 778 755 970 557 970 c 0
 379 970 266 788 220 570 c 0
EndSplineSet
Substitution2: "'tnum' Tabular Numbers lookup 2 subtable" nine.oldtab
EndChar

StartChar: zero.oldtab
Encoding: 65546 -1 234
Width: 1100
Flags: HMW
LayerCount: 2
Fore
SplineSet
261 520 m 4
 201 236 239 80 407 80 c 4
 595 80 681 236 741 520 c 4
 801 804 782 960 594 960 c 4
 426 960 321 804 261 520 c 4
41 520 m 0
 119 886 349 1060 595 1060 c 0
 861 1060 1039 886 961 520 c 0
 883 154 632 -20 406 -20 c 0
 160 -20 -37 154 41 520 c 0
EndSplineSet
EndChar

StartChar: one.oldtab
Encoding: 65547 -1 235
Width: 1100
VWidth: 2310
Flags: HMW
LayerCount: 2
Fore
SplineSet
-25 28 m 2
 -25 80 l 2
 -25 105 -18 110 5 110 c 2
 297 110 l 6
 321 110 330 117 335 139 c 2
 470 776 l 2
 477 810 469 820 434 820 c 2
 225 820 l 2
 195 820 189 826 189 857 c 2
 189 892 l 2
 189 920 189 930 217 930 c 0
 419 931 516 945 637 1154 c 0
 647 1171 650 1180 677 1180 c 2
 708 1180 l 2
 737 1180 744 1170 738 1141 c 2
 525 150 l 2
 518 118 529 110 561 110 c 2
 794 110 l 2
 817 110 826 109 826 86 c 2
 826 31 l 2
 826 1 817 0 786 0 c 2
 5 0 l 2
 -16 0 -25 5 -25 28 c 2
EndSplineSet
EndChar

StartChar: two.oldtab
Encoding: 65548 -1 236
Width: 1100
VWidth: 2310
Flags: HMW
LayerCount: 2
Fore
SplineSet
925 290 m 0
 919 19 768 -60 595 -60 c 0
 381 -60 331 60 165 60 c 0
 96 60 63 31 43 -14 c 0
 33 -37 27 -40 -8 -40 c 2
 -37 -40 l 2
 -59 -40 -66 -34 -65 -14 c 0
 -54 265 280 460 509 558 c 0
 715 646 799 752 799 890 c 0
 799 1008 727 1056 589 1056 c 0
 441 1056 315 998 315 944 c 0
 315 898 379 888 379 816 c 0
 379 742 319 700 265 700 c 0
 207 700 137 736 137 832 c 0
 137 996 345 1140 589 1140 c 0
 831 1140 1021 1060 1021 860 c 0
 1021 700 867 539 539 440 c 0
 420 404 200 309 135 214 c 0
 110 178 95 150 100 144 c 0
 105 138 118 162 157 177 c 0
 187 188 222 194 265 194 c 0
 465 194 455 126 607 126 c 0
 724 126 823 181 830 287 c 0
 832 312 837 314 864 314 c 2
 894 314 l 2
 918 314 925 314 925 290 c 0
EndSplineSet
EndChar

StartChar: three.oldtab
Encoding: 65549 -1 237
Width: 1100
VWidth: 2310
Flags: HMW
LayerCount: 2
Fore
SplineSet
-130 -162 m 0
 -130 -66 -60 -30 -2 -30 c 0
 52 -30 112 -72 112 -146 c 0
 112 -218 48 -228 48 -274 c 0
 48 -328 134 -396 302 -396 c 0
 520 -396 658 -188 658 -10 c 4
 658 124 612 225 414 257 c 0
 368 264 324 243 324 302 c 2
 324 320 l 2
 324 379 369 359 414 366 c 0
 665 404 778 596 778 782 c 0
 778 900 670 976 522 976 c 0
 394 976 328 910 328 856 c 0
 328 810 392 800 392 728 c 0
 392 654 332 612 278 612 c 0
 220 612 150 648 150 744 c 0
 150 908 278 1060 562 1060 c 0
 794 1060 980 962 980 752 c 0
 980 526 846 436 672 354 c 0
 597 319 586 332 586 310 c 0
 586 294 624 299 666 283 c 4
 794 233 860 144 860 -10 c 4
 860 -280 644 -480 322 -480 c 4
 18 -480 -130 -326 -130 -162 c 0
EndSplineSet
EndChar

StartChar: four.oldtab
Encoding: 65550 -1 238
Width: 1100
VWidth: 2310
Flags: HMW
LayerCount: 2
Fore
SplineSet
800 -376 m 2
 800 -434 l 2
 800 -457 793 -460 769 -460 c 2
 302 -460 l 2
 277 -460 270 -455 270 -428 c 2
 270 -383 l 2
 270 -357 275 -350 300 -350 c 2
 442 -350 l 2
 463 -350 476 -344 480 -325 c 2
 540 -38 l 2
 546 -8 537 0 507 0 c 2
 34 0 l 2
 4 0 -3 3 -17 17 c 2
 -43 43 l 2
 -62 62 -57 68 -46 95 c 0
 94 426 676 590 778 987 c 0
 786 1017 778 1040 819 1040 c 2
 928 1040 l 2
 969 1040 977 1036 972 999 c 0
 917 587 252 384 114 158 c 0
 95 127 103 110 160 110 c 2
 551 110 l 2
 572 110 575 116 579 135 c 2
 604 260 l 2
 610 292 617 292 634 305 c 0
 681 341 750 388 780 478 c 0
 786 495 788 510 813 510 c 2
 819 510 l 2
 845 510 845 502 840 479 c 2
 769 154 l 2
 761 118 774 110 811 110 c 2
 899 110 l 2
 926 110 930 103 930 75 c 2
 930 30 l 2
 930 3 922 0 894 0 c 2
 775 0 l 2
 744 0 736 -11 730 -39 c 2
 670 -314 l 2
 664 -344 666 -350 698 -350 c 6
 765 -350 l 2
 790 -350 800 -351 800 -376 c 2
EndSplineSet
EndChar

StartChar: five.oldtab
Encoding: 65551 -1 239
Width: 1100
VWidth: 2310
Flags: HMW
LayerCount: 2
Fore
SplineSet
-110 -182 m 0
 -110 -86 -40 -50 18 -50 c 0
 72 -50 132 -92 132 -166 c 0
 132 -238 68 -248 68 -294 c 0
 68 -348 154 -396 262 -396 c 0
 460 -396 668 -138 668 170 c 0
 668 378 560 442 412 442 c 0
 319 442 246 409 184 343 c 4
 167 325 161 314 123 314 c 2
 81 314 l 2
 43 314 40 330 50 358 c 2
 273 1002 l 2
 283 1031 294 1040 328 1040 c 2
 564 1040 l 2
 786 1040 828 1009 888 1076 c 0
 898 1087 902 1104 927 1104 c 2
 984 1104 l 2
 998 1104 1001 1102 998 1090 c 2
 986 1040 l 2
 950 876 883 860 409 860 c 2
 365 860 l 2
 335 860 330 854 320 828 c 2
 202 506 l 2
 186 462 173 434 181 430 c 0
 194 424 215 447 252 474 c 0
 308 514 398 540 506 540 c 0
 708 540 875 420 875 180 c 0
 875 -220 564 -480 282 -480 c 0
 38 -480 -110 -346 -110 -182 c 0
EndSplineSet
EndChar

StartChar: seven.oldtab
Encoding: 65552 -1 240
Width: 1100
VWidth: 2310
Flags: HMW
LayerCount: 2
Fore
SplineSet
96 702 m 0
 140 979 271 1060 446 1060 c 0
 640 1060 700 940 866 940 c 0
 940 940 972 973 992 1023 c 0
 997 1036 998 1040 1017 1040 c 2
 1086 1040 l 2
 1109 1040 1105 1032 1102 1011 c 0
 1078 861 767 496 592 284 c 0
 442 102 374 12 374 -76 c 0
 374 -192 460 -202 460 -344 c 4
 460 -418 410 -480 322 -480 c 0
 244 -480 170 -406 170 -268 c 0
 170 -90 322 104 484 312 c 0
 589 446 796 667 869 794 c 0
 881 814 891 831 886 836 c 0
 881 841 869 823 848 817 c 0
 822 809 792 806 756 806 c 0
 556 806 536 874 384 874 c 0
 263 874 224 821 190 706 c 0
 186 692 189 686 174 686 c 2
 118 686 l 2
 103 686 94 687 96 702 c 0
EndSplineSet
EndChar

StartChar: nine.oldtab
Encoding: 65553 -1 241
Width: 1100
VWidth: 2310
Flags: HMW
LayerCount: 2
Fore
SplineSet
120 -342 m 0
 120 -368 139 -396 217 -396 c 0
 449 -396 585 -163 674 180 c 0
 683 213 690 226 684 230 c 0
 677 234 670 220 649 201 c 0
 566 127 456 80 324 80 c 0
 102 80 -50 240 20 570 c 0
 88 890 304 1060 546 1060 c 4
 868 1060 1024 870 903 300 c 0
 801 -180 531 -480 209 -480 c 0
 45 -480 -52 -376 -52 -262 c 0
 -52 -154 16 -110 74 -110 c 0
 138 -110 193 -150 193 -226 c 0
 193 -298 120 -315 120 -342 c 0
220 570 m 0
 172 342 231 178 389 178 c 0
 555 178 707 320 741 480 c 0
 804 778 755 970 557 970 c 0
 379 970 266 788 220 570 c 0
EndSplineSet
EndChar

StartChar: AE
Encoding: 198 198 251
Width: 2538
Flags: HMW
LayerCount: 2
Fore
SplineSet
1405 1390 m 5
 1365 1390 1346 1374 1307 1328 c 6
 683 598 l 6
 659 570 635 550 698 550 c 6
 1356 550 l 17
 1366 440 l 9
 592 440 l 6
 559 440 543 440 531 420 c 6
 298 144 l 6
 282 125 284 110 326 110 c 6
 426 110 l 2
 448 110 460 106 460 82 c 2
 460 38 l 2
 460 5 454 0 420 0 c 2
 -72 0 l 2
 -103 0 -100 4 -100 34 c 2
 -100 72 l 2
 -100 101 -99 110 -70 110 c 2
 68 110 l 2
 105 110 112 124 129 144 c 2
 1272 1472 l 2
 1287 1489 1289 1500 1323 1500 c 2
 1388 1500 l 1
 1405 1390 l 5
EndSplineSet
Refer: 16 69 N 1 0 0 1 1080 0 2
EndChar

StartChar: Thorn
Encoding: 222 222 272
Width: 1374
Flags: HMW
LayerCount: 2
Fore
SplineSet
548 1049 m 6
 423 470 l 6
 419 453 433 450 466 450 c 6
 684 450 l 6
 876 450 1084 582 1084 840 c 4
 1084 938 1056 1070 864 1070 c 6
 586 1070 l 6
 562 1070 552 1069 548 1049 c 6
-80 34 m 2
 -80 82 l 2
 -80 105 -72 110 -50 110 c 2
 94 110 l 2
 140 110 146 112 155 151 c 2
 410 1348 l 2
 419 1387 414 1390 364 1390 c 2
 244 1390 l 2
 218 1390 218 1395 218 1421 c 2
 218 1464 l 2
 218 1494 223 1500 252 1500 c 2
 810 1500 l 2
 838 1500 846 1496 846 1466 c 2
 846 1422 l 2
 846 1393 838 1390 808 1390 c 2
 654 1390 l 2
 612 1390 617 1379 610 1346 c 2
 579 1198 l 2
 575 1180 574 1180 596 1180 c 2
 864 1180 l 2
 1226 1180 1304 1020 1304 840 c 0
 1304 500 1046 340 684 340 c 2
 426 340 l 2
 396 340 395 336 392 321 c 2
 357 150 l 2
 348 111 356 110 404 110 c 2
 536 110 l 2
 578 110 580 102 580 60 c 2
 580 38 l 2
 580 8 577 0 548 0 c 2
 -42 0 l 2
 -73 0 -80 4 -80 34 c 2
EndSplineSet
EndChar

StartChar: Eth
Encoding: 208 208 280
Width: 1636
Flags: HMW
LayerCount: 2
Fore
SplineSet
110 840 m 6
 872 840 l 6
 900 840 903 836 903 812 c 6
 903 763 l 6
 903 739 901 730 869 730 c 6
 108 730 l 6
 78 730 76 734 76 760 c 6
 76 812 l 6
 76 835 84 840 110 840 c 6
EndSplineSet
Refer: 15 68 N 1 0 0 1 0 0 2
EndChar

StartChar: Oslash
Encoding: 216 216 281
Width: 1660
Flags: HMW
LayerCount: 2
Fore
SplineSet
1366 1660 m 2
 1411 1660 l 2
 1449 1660 1454 1653 1440 1630 c 2
 353 -168 l 2
 337 -194 332 -200 291 -200 c 6
 259 -200 l 6
 210 -200 202 -186 219 -158 c 2
 1310 1626 l 2
 1325 1651 1326 1660 1366 1660 c 2
EndSplineSet
Refer: 26 79 N 1 0 0 1 0 0 2
EndChar

StartChar: ae
Encoding: 230 230 282
Width: 1746
VWidth: 2310
Flags: HMW
LayerCount: 2
Fore
SplineSet
936 518 m 4
 1138 543 1409 606 1409 824 c 4
 1409 938 1363 966 1275 966 c 4
 1028 966 926 760 894 526 c 4
 892 509 913 515 936 518 c 4
677 447 m 2
 687 494 692 522 663 522 c 2
 569 522 l 2
 337 522 216 430 203 276 c 0
 191 140 260 92 360 92 c 0
 496 92 624 200 663 382 c 2
 677 447 l 2
-8 246 m 0
 12 434 241 598 585 598 c 2
 683 598 l 2
 706 598 710 600 715 624 c 2
 738 734 l 2
 766 868 752 968 592 968 c 0
 484 968 361 930 361 890 c 0
 361 853 395 870 395 786 c 0
 395 717 348 670 280 670 c 0
 218 670 167 696 167 786 c 0
 167 958 419 1060 621 1060 c 0
 763 1060 869 1020 905 960 c 0
 920 933 914 924 946 948 c 0
 1038 1019 1141 1060 1275 1060 c 0
 1499 1060 1601 988 1601 824 c 0
 1601 510 1179 445 920 427 c 0
 897 425 877 426 873 406 c 0
 840 250 908 78 1087 78 c 0
 1245 78 1370 175 1454 322 c 0
 1462 336 1467 346 1487 346 c 2
 1545 346 l 2
 1565 346 1567 340 1560 325 c 0
 1462 125 1299 -20 1053 -20 c 0
 889 -20 777 94 746 134 c 0
 733 151 714 156 688 133 c 0
 636 88 517 -20 306 -20 c 0
 98 -20 -26 75 -8 246 c 0
EndSplineSet
EndChar

StartChar: germandbls
Encoding: 223 223 283
Width: 1561
VWidth: 2309
Flags: HMW
LayerCount: 2
Fore
SplineSet
1310 320 m 0
 1310 95 1080 -20 838 -20 c 0
 665 -20 507 71 507 221 c 4
 507 305 569 372 649 372 c 0
 710 372 753 333 753 260 c 0
 753 224 723 196 694 176 c 0
 668 159 667 152 681 141 c 0
 724 107 785 93 853 93 c 0
 991 93 1102 159 1102 290 c 0
 1102 512 843 572 843 787 c 4
 843 1042 1232 1041 1232 1233 c 0
 1232 1378 1165 1463 957 1463 c 0
 639 1463 495 1246 435 962 c 2
 239 37 l 2
 232 5 225 0 191 0 c 2
 -84 0 l 2
 -112 0 -113 8 -114 37 c 2
 -114 80 l 2
 -114 108 -99 113 -73 113 c 2
 37 113 l 2
 73 113 77 128 84 161 c 2
 259 982 l 2
 333 1328 554 1570 980 1570 c 0
 1316 1570 1441 1448 1441 1262 c 0
 1441 1038 1013 956 1013 843 c 0
 1013 714 1310 558 1310 320 c 0
EndSplineSet
EndChar

StartChar: eth
Encoding: 240 240 292
Width: 1240
VWidth: 2310
Flags: HMW
LayerCount: 2
Fore
SplineSet
248 508 m 0
 202 290 229 68 447 68 c 0
 645 68 857 359 918 648 c 0
 952 808 842 960 676 960 c 0
 468 960 296 736 248 508 c 0
48 508 m 4
 118 838 381 1058 653 1058 c 4
 835 1058 897 971 940 907 c 4
 953 888 954 874 963 878 c 4
 971 882 970 895 975 928 c 4
 1030 1256 788 1364 634 1452 c 4
 620 1460 611 1460 623 1478 c 6
 661 1539 l 6
 671 1555 677 1556 691 1550 c 4
 912 1446 1233 1185 1129 698 c 4
 1021 188 770 -22 448 -22 c 4
 126 -22 -20 188 48 508 c 4
EndSplineSet
Refer: 84 45 N 0.749531 0.661969 -0.661969 0.749531 1178 665 2
EndChar

StartChar: oslash
Encoding: 248 248 299
Width: 1139
VWidth: 0
Flags: HMW
LayerCount: 2
Fore
SplineSet
1086 1215 m 2
 1131 1215 l 2
 1169 1215 1174 1209 1160 1192 c 2
 73 -165 l 2
 57 -185 52 -189 11 -189 c 6
 -21 -189 l 6
 -70 -189 -78 -179 -61 -158 c 2
 1030 1189 l 2
 1045 1208 1046 1215 1086 1215 c 2
EndSplineSet
Refer: 52 111 N 1 0 0 1 0 0 2
EndChar

StartChar: thorn
Encoding: 254 254 305
Width: 1200
VWidth: 2310
Flags: HMW
LayerCount: 2
Fore
SplineSet
262 1560 m 2
 520 1560 l 2
 571 1560 573 1557 563 1514 c 2
 423 911 l 2
 410 855 411 841 464 899 c 0
 551 995 660 1060 776 1060 c 0
 954 1060 1100 960 1100 680 c 0
 1100 280 772 -18 536 -18 c 0
 411 -18 342 39 298 129 c 0
 268 191 261 194 245 124 c 2
 114 -454 l 2
 107 -485 103 -500 63 -500 c 2
 -42 -500 l 2
 -78 -500 -78 -491 -72 -464 c 2
 359 1398 l 2
 367 1434 374 1450 324 1450 c 2
 248 1450 l 2
 217 1450 216 1459 216 1490 c 2
 216 1519 l 2
 216 1557 226 1560 262 1560 c 2
324 400 m 0
 324 232 358 84 520 84 c 0
 688 84 900 392 900 680 c 0
 900 848 848 956 720 956 c 0
 538 956 324 628 324 400 c 0
EndSplineSet
EndChar

StartChar: Dcroat
Encoding: 272 272 323
Width: 1636
Flags: HMW
LayerCount: 2
Fore
SplineSet
110 840 m 6
 872 840 l 6
 900 840 903 836 903 812 c 6
 903 763 l 6
 903 739 901 730 869 730 c 6
 108 730 l 6
 78 730 76 734 76 760 c 6
 76 812 l 6
 76 835 84 840 110 840 c 6
EndSplineSet
Refer: 15 68 N 1 0 0 1 0 0 2
EndChar

StartChar: dcroat
Encoding: 273 273 324
Width: 1303
VWidth: 2309
Flags: HMW
LayerCount: 2
Fore
SplineSet
693 1300 m 6
 1361 1300 l 6
 1386 1300 1388 1296 1388 1272 c 6
 1388 1223 l 6
 1388 1199 1386 1190 1358 1190 c 6
 691 1190 l 6
 664 1190 663 1194 663 1220 c 6
 663 1272 l 6
 663 1295 671 1300 693 1300 c 6
EndSplineSet
Refer: 41 100 N 1 0 0 1 -0 0 2
EndChar

StartChar: gcircumflex
Encoding: 285 285 336
Width: 1078
VWidth: 0
Flags: HM
LayerCount: 2
Fore
SplineSet
-130 -310 m 0
 -130 -189 -32 -80 60 -22 c 0
 124 19 98 -4 60 43 c 0
 43 64 34 91 34 128 c 0
 34 218 102 298 206 346 c 0
 254 368 247 360 209 389 c 0
 151 434 120 501 120 590 c 0
 120 830 366 1060 628 1060 c 0
 674 1060 715 1056 751 1048 c 0
 768 1044 766 1046 775 1059 c 0
 826 1133 887 1204 1000 1204 c 0
 1082 1204 1148 1146 1148 1062 c 0
 1148 994 1102 952 1042 952 c 0
 986 952 946 990 946 1040 c 0
 946 1076 954 1096 940 1096 c 0
 906 1096 869 1071 836 1037 c 0
 823 1024 833 1021 847 1013 c 0
 920 969 956 894 956 790 c 0
 956 550 730 320 468 320 c 0
 437 320 407 321 380 325 c 0
 339 330 325 330 293 313 c 0
 237 283 190 239 190 192 c 0
 190 138 274 138 384 138 c 0
 434 138 510 140 566 140 c 0
 756 140 880 88 880 -124 c 0
 880 -346 580 -520 240 -520 c 0
 34 -520 -130 -480 -130 -310 c 0
163 -42 m 0
 89 -121 60 -227 60 -284 c 0
 60 -376 170 -410 262 -410 c 0
 490 -410 738 -304 738 -134 c 0
 738 -46 690 -18 560 -18 c 0
 518 -18 396 -18 352 -18 c 0
 317 -18 283 -18 252 -17 c 0
 200 -15 189 -14 163 -42 c 0
310 570 m 0
 310 482 330 400 468 400 c 0
 646 400 766 602 766 810 c 0
 766 878 766 980 628 980 c 0
 450 980 310 778 310 570 c 0
EndSplineSet
Refer: 123 770 S 1 0 0 1 50 -420 2
Substitution2: "'smcp' Lowercase to Small Capitals in Latin lookup 0 subtable" gcircumflex.sc
EndChar

StartChar: gbreve
Encoding: 287 287 338
Width: 1109
VWidth: 0
Flags: HMW
LayerCount: 2
Fore
SplineSet
617 1250 m 260
 425 1250 392 1345 420 1489 c 0
 424 1506 430 1508 447 1508 c 2
 461 1508 l 2
 475 1508 478 1505 476 1492 c 0
 464 1402 518 1360 615 1360 c 256
 707 1360 781 1398 810 1479 c 0
 817 1498 812 1508 836 1508 c 2
 863 1508 l 2
 884 1508 883 1504 878 1484 c 0
 843 1344 766 1250 617 1250 c 260
EndSplineSet
Refer: 44 103 N 1 0 0 1 0 0 3
Substitution2: "'smcp' Lowercase to Small Capitals in Latin lookup 0 subtable" gbreve.sc
EndChar

StartChar: hcircumflex
Encoding: 293 293 344
Width: 1281
VWidth: 0
Flags: HMW
LayerCount: 2
Fore
SplineSet
658 1225 m 2
 643 1249 l 2
 631 1264 632 1264 650 1279 c 2
 878 1467 l 2
 895 1481 905 1484 934 1484 c 2
 1019 1484 l 2
 1045 1484 1053 1479 1062 1467 c 2
 1213 1275 l 2
 1221 1265 1222 1265 1209 1254 c 2
 1180 1230 l 2
 1162 1215 1162 1217 1148 1229 c 2
 994 1365 l 2
 979 1378 965 1379 944 1366 c 2
 693 1219 l 2
 676 1208 668 1212 658 1225 c 2
EndSplineSet
Refer: 45 104 N 1 0 0 1 0 0 3
Substitution2: "'smcp' Lowercase to Small Capitals in Latin lookup 0 subtable" hcircumflex.sc
EndChar

StartChar: Hbar
Encoding: 294 294 353
Width: 1794
Flags: HMW
LayerCount: 2
Fore
SplineSet
222 1190 m 6
 1713 1190 l 6
 1768 1190 1775 1186 1775 1162 c 6
 1775 1113 l 6
 1775 1089 1770 1080 1708 1080 c 6
 218 1080 l 6
 158 1080 156 1084 156 1110 c 6
 156 1162 l 6
 156 1185 172 1190 222 1190 c 6
EndSplineSet
Refer: 19 72 N 1 0 0 1 0 0 2
EndChar

StartChar: hbar
Encoding: 295 295 354
Width: 1281
VWidth: 2309
Flags: HMW
LayerCount: 2
Fore
SplineSet
62 1290 m 6
 824 1290 l 6
 852 1290 856 1286 856 1262 c 6
 856 1213 l 6
 856 1189 854 1180 822 1180 c 6
 60 1180 l 6
 30 1180 28 1184 28 1210 c 6
 28 1262 l 6
 28 1285 36 1290 62 1290 c 6
EndSplineSet
Refer: 45 104 N 1 0 0 1 0 0 2
EndChar

StartChar: uni0237
Encoding: 567 567 360
Width: 600
VWidth: 2310
Flags: HMW
AnchorPoint: "Anchor-0" 383 1040 basechar 0
AnchorPoint: "Anchor-0" 383 1040 basechar 0
LayerCount: 2
Fore
SplineSet
495 991 m 2
 286 22 l 2
 220 -281 124 -520 -158 -520 c 0
 -336 -520 -400 -410 -400 -286 c 0
 -400 -210 -342 -138 -262 -138 c 0
 -194 -138 -146 -184 -146 -250 c 0
 -146 -320 -204 -334 -204 -374 c 0
 -204 -400 -192 -432 -138 -432 c 0
 44 -432 96 -22 146 208 c 2
 293 887 l 2
 302 927 296 930 246 930 c 2
 174 930 l 2
 149 930 146 937 146 963 c 2
 146 1001 l 2
 146 1032 149 1040 179 1040 c 2
 450 1040 l 2
 504 1040 504 1033 495 991 c 2
EndSplineSet
EndChar

StartChar: kgreenlandic
Encoding: 312 312 363
Width: 1184
VWidth: 2310
Flags: HMW
LayerCount: 2
Fore
SplineSet
1086 295 m 0
 996 77 849 -20 730 -20 c 0
 630 -20 590 40 606 170 c 2
 624 320 l 2
 632 387 627 467 587 524 c 0
 562 560 551 546 510 535 c 0
 478 526 448 524 424 524 c 0
 389 524 359 528 335 535 c 0
 307 543 307 550 300 518 c 2
 185 21 l 2
 181 3 182 0 159 0 c 2
 30 0 l 2
 -8 0 2 9 9 37 c 2
 208 899 l 2
 214 925 215 930 183 930 c 2
 83 930 l 2
 62 930 61 939 61 961 c 2
 61 1012 l 2
 61 1031 62 1040 81 1040 c 2
 394 1040 l 2
 419 1040 418 1027 414 1010 c 2
 334 665 l 2
 324 620 330 633 360 649 c 0
 405 672 448 678 472 678 c 0
 492 678 513 676 534 671 c 0
 573 662 577 656 598 691 c 0
 613 715 625 746 636 784 c 0
 686 960 796 1060 916 1060 c 0
 1038 1060 1104 982 1104 878 c 0
 1104 810 1058 768 998 768 c 0
 942 768 902 806 902 856 c 0
 902 920 940 924 940 956 c 0
 940 976 926 980 902 980 c 0
 832 980 756 910 710 740 c 0
 699 700 683 667 664 640 c 0
 646 614 654 617 677 598 c 0
 755 533 812 428 798 282 c 2
 784 154 l 2
 780 120 788 104 822 104 c 0
 853 104 948 169 1008 314 c 0
 1020 344 1016 354 1050 342 c 2
 1069 336 l 2
 1099 326 1098 324 1086 295 c 0
EndSplineSet
EndChar

StartChar: Lslash
Encoding: 321 321 372
Width: 1455
Flags: HMW
LayerCount: 2
Fore
SplineSet
144 736 m 2
 778 1139 l 2
 798 1152 811 1173 811 1132 c 2
 811 1083 l 2
 811 1048 809 1044 788 1031 c 2
 150 625 l 2
 130 613 120 594 120 634 c 2
 120 695 l 2
 120 725 127 725 144 736 c 2
EndSplineSet
Refer: 23 76 N 1 0 0 1 0 0 2
EndChar

StartChar: lslash
Encoding: 322 322 373
Width: 619
VWidth: 2309
Flags: HMW
LayerCount: 2
Fore
SplineSet
10 810 m 2
 580 1145 l 6
 601 1159 604 1165 604 1128 c 6
 604 1068 l 6
 604 1031 600 1030 578 1016 c 6
 18 687 l 2
 -2 674 -6 665 -6 701 c 2
 -6 775 l 2
 -6 799 -4 801 10 810 c 2
EndSplineSet
Refer: 49 108 N 1 0 0 1 0 0 2
EndChar

StartChar: eng
Encoding: 331 331 381
Width: 1266
VWidth: 2310
Flags: HMW
LayerCount: 2
Fore
SplineSet
136 1040 m 2
 416 1040 l 2
 466 1040 469 1036 460 997 c 2
 417 809 l 2
 402 744 405 736 454 809 c 0
 558 963 682 1058 812 1058 c 0
 990 1058 1083 965 1024 682 c 2
 886 22 l 2
 823 -282 724 -520 442 -520 c 0
 264 -520 200 -410 200 -286 c 0
 200 -210 258 -138 338 -138 c 0
 406 -138 454 -184 454 -250 c 0
 454 -320 396 -334 396 -374 c 0
 396 -400 408 -432 462 -432 c 0
 644 -432 696 -22 746 208 c 2
 880 826 l 2
 896 902 866 952 786 952 c 0
 611 952 369 603 307 335 c 2
 241 49 l 2
 234 18 231 0 190 0 c 2
 112 0 l 2
 55 0 51 4 61 49 c 2
 257 895 l 2
 265 929 258 930 216 930 c 2
 134 930 l 2
 101 930 100 939 100 973 c 2
 100 1001 l 2
 100 1034 104 1040 136 1040 c 2
EndSplineSet
EndChar

StartChar: Eng
Encoding: 330 330 382
Width: 1794
Flags: HMW
LayerCount: 2
Fore
SplineSet
316 1500 m 2
 626 1500 l 2
 676 1500 679 1496 670 1457 c 2
 627 1269 l 2
 612 1204 615 1196 664 1269 c 0
 748 1393 912 1518 1132 1518 c 0
 1500 1518 1621 1363 1549 1023 c 2
 1336 22 l 2
 1271 -281 1124 -520 842 -520 c 0
 664 -520 600 -410 600 -286 c 0
 600 -210 658 -138 738 -138 c 0
 806 -138 854 -184 854 -250 c 0
 854 -320 796 -334 796 -374 c 0
 796 -400 808 -432 862 -432 c 0
 1044 -432 1126 -22 1176 208 c 2
 1380 1166 l 2
 1410 1309 1326 1412 1096 1412 c 0
 791 1412 579 1063 517 795 c 2
 351 49 l 2
 344 18 341 0 300 0 c 2
 -13 0 l 2
 -34 0 -35 9 -35 30 c 2
 -35 81 l 2
 -35 100 -34 110 -15 110 c 2
 132 110 l 2
 156 110 156 112 160 131 c 6
 437 1355 l 2
 445 1389 438 1390 396 1390 c 2
 314 1390 l 2
 281 1390 280 1399 280 1433 c 2
 280 1461 l 2
 280 1494 284 1500 316 1500 c 2
EndSplineSet
EndChar

StartChar: OE
Encoding: 338 338 389
Width: 2258
Flags: HMW
LayerCount: 2
Fore
SplineSet
1209 1500 m 1
 1185 1390 l 1
 965 1390 l 2
 597 1390 416 1114 339 750 c 0
 262 386 345 110 693 110 c 2
 913 110 l 1
 890 0 l 1
 670 0 l 2
 224 0 18 324 109 750 c 0
 200 1176 563 1500 989 1500 c 2
 1209 1500 l 1
EndSplineSet
Refer: 16 69 S 1 0 0 1 800 0 2
EndChar

StartChar: Tbar
Encoding: 358 358 409
Width: 1479
Flags: HMW
LayerCount: 2
Fore
SplineSet
394 820 m 6
 1156 820 l 6
 1184 820 1187 816 1187 792 c 6
 1187 743 l 6
 1187 719 1185 710 1153 710 c 6
 392 710 l 6
 362 710 360 714 360 740 c 6
 360 792 l 6
 360 815 368 820 394 820 c 6
EndSplineSet
Refer: 31 84 N 1 0 0 1 0 0 2
EndChar

StartChar: tbar
Encoding: 359 359 410
Width: 773
VWidth: 2309
Flags: HMW
LayerCount: 2
Fore
SplineSet
86 720 m 6
 696 720 l 6
 718 720 721 716 721 692 c 6
 721 643 l 6
 721 619 719 610 694 610 c 6
 84 610 l 6
 60 610 59 614 59 640 c 6
 59 692 l 6
 59 715 66 720 86 720 c 6
EndSplineSet
Refer: 57 116 N 1 0 0 1 43 0 2
EndChar

StartChar: longs
Encoding: 383 383 434
Width: 750
VWidth: 2310
Flags: HMW
LayerCount: 2
Fore
SplineSet
17 -266 m 2
 300 1144 l 2
 353 1407 514 1580 774 1580 c 0
 976 1580 1110 1472 1110 1358 c 0
 1110 1272 1062 1226 992 1226 c 0
 922 1226 876 1266 876 1322 c 0
 876 1382 918 1396 918 1436 c 0
 918 1460 882 1490 778 1490 c 0
 618 1490 533 1356 480 1100 c 2
 196 -272 l 2
 191 -296 182 -300 152 -300 c 2
 46 -300 l 2
 13 -300 12 -291 17 -266 c 2
EndSplineSet
EndChar

StartChar: circumflex
Encoding: 710 710 453
Width: 1000
Flags: HMW
LayerCount: 2
Fore
SplineSet
609 1690 m 6
 594 1714 l 6
 582 1729 583 1729 601 1744 c 6
 829 1932 l 6
 846 1946 856 1949 885 1949 c 6
 970 1949 l 6
 996 1949 1004 1944 1013 1932 c 6
 1164 1740 l 6
 1172 1730 1173 1730 1160 1719 c 6
 1131 1695 l 6
 1113 1680 1113 1682 1099 1694 c 6
 945 1830 l 6
 930 1843 916 1844 895 1831 c 6
 644 1684 l 6
 627 1673 619 1677 609 1690 c 6
EndSplineSet
EndChar

StartChar: quotesinglbase
Encoding: 8218 8218 454
Width: 508
Flags: HMW
LayerCount: 2
Fore
SplineSet
-21 98 m 4
 -21 164 37 216 113 216 c 4
 191 216 253 154 253 28 c 4
 253 -146 83 -296 -82 -311 c 4
 -97 -312 -105 -313 -105 -296 c 6
 -105 -253 l 6
 -105 -235 -95 -232 -80 -230 c 4
 11 -216 159 -124 148 -9 c 4
 146 7 137 -1 126 -8 c 4
 113 -16 96 -20 75 -20 c 4
 9 -20 -21 32 -21 98 c 4
EndSplineSet
EndChar

StartChar: quotedblbase
Encoding: 8222 8222 456
Width: 873
Flags: HMW
LayerCount: 2
Fore
SplineSet
-21 98 m 4
 -21 164 37 216 113 216 c 4
 191 216 253 154 253 28 c 4
 253 -146 83 -296 -82 -311 c 4
 -97 -312 -105 -313 -105 -296 c 6
 -105 -253 l 6
 -105 -235 -95 -232 -80 -230 c 4
 11 -216 159 -124 148 -9 c 4
 146 7 137 -1 126 -8 c 4
 113 -16 96 -20 75 -20 c 4
 9 -20 -21 32 -21 98 c 4
369 98 m 4
 369 164 427 216 503 216 c 4
 581 216 643 154 643 28 c 4
 643 -146 473 -296 308 -311 c 4
 293 -312 285 -313 285 -296 c 6
 285 -253 l 6
 285 -235 295 -232 310 -230 c 4
 401 -216 549 -124 538 -9 c 4
 536 7 527 -1 516 -8 c 4
 503 -16 486 -20 465 -20 c 4
 399 -20 369 32 369 98 c 4
EndSplineSet
EndChar

StartChar: a.sc
Encoding: 65555 -1 457
Width: 1363
VWidth: 0
Flags: MW
LayerCount: 2
Fore
SplineSet
742 854 m 258
 476 431 l 258
 458 403 460 398 486 398 c 258
 832 398 l 258
 857 398 863 404 859 430 c 258
 793 857 l 258
 787 893 788 907 777 907 c 256
 771 907 759 882 742 854 c 258
-14 31 m 258
 -14 65 l 258
 -14 91 -13 100 7 100 c 258
 109 100 l 258
 129 100 135 107 145 120 c 258
 743 1058 l 258
 751 1071 755 1077 779 1077 c 258
 884 1077 l 258
 909 1077 914 1073 917 1052 c 258
 1083 130 l 258
 1089 101 1095 100 1135 100 c 258
 1215 100 l 258
 1235 100 1239 94 1239 67 c 258
 1239 31 l 258
 1239 4 1234 0 1212 0 c 258
 783 0 l 258
 765 0 765 6 765 30 c 258
 765 71 l 258
 765 100 770 100 792 100 c 258
 876 100 l 258
 907 100 911 102 906 124 c 258
 879 281 l 258
 876 296 864 298 838 298 c 258
 440 298 l 258
 417 298 406 298 398 286 c 258
 288 120 l 258
 278 106 277 100 307 100 c 258
 381 100 l 258
 396 100 404 97 404 75 c 258
 404 35 l 258
 404 5 401 0 377 0 c 258
 5 0 l 258
 -23 0 -14 4 -14 31 c 258
EndSplineSet
EndChar

StartChar: b.sc
Encoding: 65565 -1 467
Width: 1147
VWidth: 0
Flags: MW
LayerCount: 2
Fore
SplineSet
562 0 m 258
 -26 0 l 258
 -51 0 -55 4 -55 37 c 258
 -55 77 l 258
 -55 94 -51 100 -38 100 c 258
 89 100 l 258
 107 100 114 103 117 125 c 258
 307 917 l 258
 313 938 333 940 295 940 c 258
 178 940 l 258
 157 940 148 943 148 972 c 258
 148 1021 l 258
 148 1038 154 1040 169 1040 c 258
 782 1040 l 258
 1025 1040 1120 908 1120 797 c 256
 1120 656 1018 577 839 544 c 256
 817 540 808 544 808 538 c 256
 808 532 819 536 838 532 c 256
 984 502 1048 431 1048 319 c 256
 1048 153 940 0 562 0 c 258
548 100 m 258
 786 100 849 234 849 321 c 256
 849 421 785 486 662 486 c 258
 411 486 l 258
 387 486 383 481 379 463 c 258
 298 126 l 258
 293 109 285 100 318 100 c 258
 548 100 l 258
440 586 m 258
 660 586 l 258
 771 586 939 650 939 788 c 256
 939 875 889 940 777 940 c 258
 519 940 l 258
 493 940 493 938 489 920 c 258
 415 612 l 258
 409 592 402 586 440 586 c 258
EndSplineSet
EndChar

StartChar: c.sc
Encoding: 65566 -1 468
Width: 1177
VWidth: 0
Flags: MW
LayerCount: 2
Fore
SplineSet
1041 367 m 256
 953 195 788 -14 500 -14 c 256
 248 -14 62 133 62 425 c 256
 62 719 332 1058 713 1058 c 256
 879 1058 983 998 1047 914 c 256
 1063 892 1060 891 1073 917 c 258
 1131 1027 l 258
 1136 1037 1143 1040 1158 1040 c 258
 1202 1040 l 258
 1220 1040 1220 1037 1216 1021 c 258
 1147 702 l 258
 1142 684 1141 680 1110 680 c 258
 1073 680 l 258
 1045 680 1044 685 1046 701 c 256
 1061 845 921 948 732 948 c 256
 440 948 270 661 270 431 c 256
 270 218 359 100 545 100 c 256
 731 100 878 254 949 373 c 256
 955 384 961 391 978 391 c 258
 1015 391 l 258
 1057 391 1054 385 1041 367 c 256
EndSplineSet
EndChar

StartChar: d.sc
Encoding: 65572 -1 474
Width: 1237
VWidth: 0
Flags: HMW
LayerCount: 2
Fore
SplineSet
-55 29 m 258
 -55 71 l 258
 -55 100 -48 100 -25 100 c 258
 87 100 l 258
 98 100 99 111 101 128 c 258
 287 906 l 258
 296 938 320 940 266 940 c 258
 173 940 l 258
 146 940 145 948 145 982 c 258
 145 1002 l 258
 145 1033 148 1040 172 1040 c 258
 706 1040 l 258
 1071 1040 1176 829 1176 645 c 256
 1176 266 824 0 479 0 c 258
 -32 0 l 258
 -50 0 -55 4 -55 29 c 258
312 100 m 258
 489 100 l 258
 752 100 968 346 968 664 c 256
 968 811 938 940 706 940 c 258
 522 940 l 258
 482 940 476 936 469 906 c 258
 283 128 l 258
 276 105 270 100 312 100 c 258
EndSplineSet
EndChar

StartChar: e.sc
Encoding: 65574 -1 476
Width: 1153
VWidth: 0
Flags: HMW
LayerCount: 2
Fore
SplineSet
389 472 m 258
 300 129 l 258
 291 102 288 100 337 100 c 258
 623 100 l 258
 823 100 905 150 965 331 c 256
 972 349 969 356 1004 356 c 258
 1031 356 l 258
 1058 356 1064 354 1059 339 c 258
 976 42 l 258
 969 7 963 0 924 0 c 258
 -28 0 l 258
 -46 0 -55 2 -55 27 c 258
 -55 58 l 258
 -55 93 -53 100 -25 100 c 258
 94 100 l 258
 115 100 113 103 117 127 c 258
 322 911 l 258
 330 937 322 940 300 940 c 258
 191 940 l 258
 163 940 161 947 161 982 c 258
 161 1011 l 258
 161 1037 177 1040 197 1040 c 258
 1155 1040 l 258
 1207 1040 1210 1039 1200 996 c 258
 1140 737 l 258
 1132 713 1133 710 1091 710 c 258
 1065 710 l 258
 1035 710 1045 723 1049 738 c 256
 1090 891 1042 940 870 940 c 258
 558 940 l 258
 507 940 510 935 501 902 c 258
 423 602 l 258
 415 576 410 573 457 573 c 258
 523 573 l 258
 636 573 705 621 740 692 c 256
 748 706 746 720 775 720 c 258
 803 720 l 258
 836 720 834 715 828 696 c 258
 730 370 l 258
 725 354 728 347 698 347 c 258
 669 347 l 258
 638 347 646 364 648 379 c 256
 657 449 622 500 513 500 c 258
 430 500 l 258
 394 500 395 498 389 472 c 258
EndSplineSet
EndChar

StartChar: f.sc
Encoding: 65584 -1 486
Width: 1116
VWidth: 0
Flags: MW
LayerCount: 2
Fore
SplineSet
-55 38 m 258
 -55 71 l 258
 -55 97 -45 100 -25 100 c 258
 80 100 l 258
 95 100 113 103 116 123 c 258
 322 915 l 258
 329 937 328 940 287 940 c 258
 199 940 l 258
 168 940 161 941 161 978 c 258
 161 1009 l 258
 161 1037 169 1040 191 1040 c 258
 1140 1040 l 258
 1192 1040 1185 1037 1175 994 c 258
 1116 738 l 258
 1109 716 1112 712 1072 712 c 258
 1047 712 l 258
 1016 712 1019 721 1024 736 c 256
 1067 891 1019 940 853 940 c 258
 555 940 l 258
 514 940 510 938 503 909 c 258
 417 578 l 258
 412 565 417 563 437 563 c 258
 523 563 l 258
 638 563 708 612 742 684 c 256
 749 697 746 709 772 709 c 258
 809 709 l 258
 832 709 836 706 832 694 c 258
 727 333 l 258
 723 321 718 319 696 319 c 258
 675 319 l 258
 640 319 645 329 648 347 c 256
 660 418 624 471 513 471 c 258
 411 471 l 258
 397 471 389 471 386 461 c 258
 298 123 l 258
 293 105 303 100 337 100 c 258
 432 100 l 258
 451 100 452 92 452 69 c 258
 452 31 l 258
 452 3 444 0 422 0 c 258
 -30 0 l 258
 -55 0 -55 8 -55 38 c 258
EndSplineSet
EndChar

StartChar: g.sc
Encoding: 65585 -1 487
Width: 1333
VWidth: 0
Flags: MW
LayerCount: 2
Fore
SplineSet
819 538 m 258
 1279 538 l 258
 1295 538 1305 536 1305 513 c 258
 1305 456 l 258
 1305 423 1301 420 1275 420 c 258
 1156 420 l 258
 1137 420 1140 410 1136 393 c 258
 1096 275 l 258
 1090 256 1084 243 1074 229 c 256
 1000 125 818 -14 549 -14 c 256
 269 -14 62 128 62 425 c 256
 62 719 345 1058 746 1058 c 256
 909 1058 1016 1005 1084 929 c 256
 1110 897 1108 883 1130 926 c 258
 1181 1020 l 258
 1189 1035 1196 1040 1219 1040 c 258
 1253 1040 l 258
 1280 1040 1278 1037 1273 1014 c 258
 1207 716 l 258
 1202 700 1198 694 1167 694 c 258
 1129 694 l 258
 1105 694 1102 698 1104 712 c 256
 1121 849 971 948 767 948 c 256
 452 948 270 660 270 429 c 256
 270 229 366 89 553 89 c 256
 690 89 779 127 860 194 c 256
 877 208 885 216 893 240 c 258
 946 401 l 258
 952 418 947 420 943 420 c 258
 829 420 l 258
 807 420 803 425 803 451 c 258
 803 514 l 258
 803 531 806 538 819 538 c 258
EndSplineSet
EndChar

StartChar: h.sc
Encoding: 65589 -1 491
Width: 1299
VWidth: 0
Flags: HMW
LayerCount: 2
Fore
SplineSet
-55 40 m 258
 -55 73 l 258
 -55 98 -45 100 -27 100 c 258
 67 100 l 258
 95 100 106 102 111 132 c 258
 290 916 l 258
 296 937 321 940 288 940 c 258
 171 940 l 258
 149 940 142 941 142 969 c 258
 142 1007 l 258
 142 1032 143 1040 162 1040 c 258
 608 1040 l 258
 632 1040 633 1032 633 1002 c 258
 633 976 l 258
 633 945 630 940 606 940 c 258
 503 940 l 258
 477 940 475 937 470 910 c 258
 402 613 l 258
 395 590 388 586 431 586 c 258
 922 586 l 258
 954 586 950 592 956 615 c 258
 1027 913 l 258
 1034 936 1038 940 1001 940 c 258
 891 940 l 258
 869 940 864 943 864 969 c 258
 864 1011 l 258
 864 1036 869 1040 888 1040 c 258
 1330 1040 l 258
 1355 1040 1355 1040 1355 1009 c 258
 1355 980 l 258
 1355 945 1350 940 1323 940 c 258
 1217 940 l 258
 1177 940 1178 938 1171 908 c 258
 987 130 l 258
 979 104 973 100 1020 100 c 258
 1134 100 l 258
 1155 100 1157 92 1157 65 c 258
 1157 29 l 258
 1157 6 1153 0 1134 0 c 258
 698 0 l 258
 674 0 666 3 666 35 c 258
 666 67 l 258
 666 98 676 100 698 100 c 258
 803 100 l 258
 836 100 836 101 842 125 c 258
 923 456 l 258
 931 481 939 486 892 486 c 258
 404 486 l 258
 366 486 371 476 365 449 c 258
 290 124 l 258
 284 104 261 100 297 100 c 258
 408 100 l 258
 435 100 435 92 435 58 c 258
 435 35 l 258
 435 7 433 0 411 0 c 258
 -25 0 l 258
 -52 0 -55 7 -55 40 c 258
EndSplineSet
EndChar

StartChar: hyphen.sc
Encoding: 65591 -1 493
Width: 920
Flags: HMW
LayerCount: 2
Fore
SplineSet
148 590 m 2
 774 590 l 2
 785 590 793 588 796 585 c 128
 799 582 800 574 800 562 c 2
 800 513 l 2
 800 501 799 493 796 488 c 128
 793 483 785 480 772 480 c 2
 146 480 l 2
 133 480 126 482 124 486 c 128
 122 490 120 497 120 510 c 2
 120 562 l 2
 120 573 122 580 126 584 c 128
 130 588 137 590 148 590 c 2
EndSplineSet
EndChar

StartChar: i.sc
Encoding: 65592 -1 494
Width: 608
VWidth: 0
Flags: HMW
LayerCount: 2
Fore
SplineSet
-55 31 m 258
 -55 75 l 258
 -55 96 -50 100 -33 100 c 258
 90 100 l 258
 112 100 116 101 120 127 c 258
 320 912 l 258
 328 938 346 940 301 940 c 258
 187 940 l 258
 167 940 167 944 167 968 c 258
 167 1007 l 258
 167 1034 171 1040 193 1040 c 258
 636 1040 l 258
 657 1040 664 1036 664 1009 c 258
 664 969 l 258
 664 943 658 940 635 940 c 258
 519 940 l 258
 504 940 505 933 503 911 c 258
 304 126 l 258
 296 100 281 100 324 100 c 258
 423 100 l 258
 455 100 456 93 456 55 c 258
 456 35 l 258
 456 8 454 0 432 0 c 258
 -27 0 l 258
 -50 0 -55 4 -55 31 c 258
EndSplineSet
EndChar

StartChar: j.sc
Encoding: 65602 -1 504
Width: 919
VWidth: 0
Flags: MW
LayerCount: 2
Fore
SplineSet
-42 207 m 256
 -42 295 25 342 93 342 c 256
 153 342 202 312 202 265 c 256
 202 187 137 208 137 153 c 256
 137 131 159 86 246 86 c 256
 346 86 456 167 500 342 c 258
 654 922 l 258
 659 940 653 940 637 940 c 258
 510 940 l 258
 486 940 479 941 479 971 c 258
 479 1004 l 258
 479 1037 485 1040 510 1040 c 258
 976 1040 l 258
 990 1040 1002 1037 1002 1018 c 258
 1002 975 l 258
 1002 945 998 940 973 940 c 258
 837 940 l 258
 822 940 824 934 821 915 c 258
 680 382 l 258
 617 156 460 -14 237 -14 c 256
 20 -14 -42 107 -42 207 c 256
EndSplineSet
EndChar

StartChar: k.sc
Encoding: 65604 -1 506
Width: 1253
VWidth: 0
Flags: HMW
LayerCount: 2
Fore
SplineSet
-55 35 m 258
 -55 78 l 258
 -55 99 -49 100 -32 100 c 258
 73 100 l 258
 91 100 93 103 96 127 c 258
 288 918 l 258
 293 936 316 940 283 940 c 258
 188 940 l 258
 170 940 169 948 169 971 c 258
 169 1022 l 258
 169 1039 175 1040 189 1040 c 258
 593 1040 l 258
 614 1040 618 1034 618 1007 c 258
 618 980 l 258
 618 948 617 940 592 940 c 258
 475 940 l 258
 471 940 471 934 470 919 c 258
 369 500 l 258
 353 425 354 449 397 487 c 258
 917 918 l 258
 941 933 954 940 897 940 c 258
 832 940 l 258
 808 940 806 947 806 976 c 258
 806 1009 l 258
 806 1034 808 1040 824 1040 c 258
 1221 1040 l 258
 1239 1040 1240 1032 1240 1009 c 258
 1240 975 l 258
 1240 950 1236 940 1214 940 c 258
 1118 940 l 258
 1078 940 1073 934 1053 918 c 258
 657 599 l 256
 617 574 608 575 657 555 c 256
 922 416 828 100 998 100 c 258
 1111 100 l 258
 1138 100 1141 95 1141 60 c 258
 1141 35 l 258
 1141 4 1135 0 1112 0 c 258
 960 0 l 258
 628 0 794 344 583 503 c 256
 557 528 553 522 530 496 c 256
 357 355 l 258
 335 337 327 330 319 297 c 258
 277 121 l 258
 272 103 250 100 283 100 c 258
 369 100 l 258
 391 100 394 93 394 64 c 258
 394 27 l 258
 394 0 387 0 365 0 c 258
 -32 0 l 258
 -53 0 -55 8 -55 35 c 258
EndSplineSet
EndChar

StartChar: l.sc
Encoding: 65605 -1 507
Width: 1070
VWidth: 0
Flags: MW
LayerCount: 2
Fore
SplineSet
-55 29 m 258
 -55 76 l 258
 -55 97 -43 100 -28 100 c 258
 90 100 l 258
 113 100 114 101 118 129 c 258
 307 918 l 258
 312 938 334 940 302 940 c 258
 178 940 l 258
 157 940 156 949 156 975 c 258
 156 1007 l 258
 156 1032 157 1040 177 1040 c 258
 626 1040 l 258
 646 1040 651 1035 651 1009 c 258
 651 971 l 258
 651 946 648 940 629 940 c 258
 498 940 l 258
 490 940 490 936 489 918 c 258
 301 137 l 258
 293 108 288 100 340 100 c 258
 581 100 l 258
 768 100 846 152 902 336 c 256
 910 356 913 362 951 362 c 258
 977 362 l 258
 996 362 1001 357 997 347 c 258
 917 38 l 258
 911 8 907 0 874 0 c 258
 -26 0 l 258
 -49 0 -55 1 -55 29 c 258
EndSplineSet
EndChar

StartChar: m.sc
Encoding: 65608 -1 510
Width: 1517
VWidth: 0
Flags: HMW
LayerCount: 2
Fore
SplineSet
1166 826 m 258
 668 5 l 258
 659 -11 651 -14 625 -14 c 258
 577 -14 l 258
 556 -14 552 -2 550 16 c 258
 426 880 l 258
 423 901 430 918 420 918 c 256
 414 918 413 907 408 887 c 258
 210 124 l 258
 202 101 201 100 241 100 c 258
 352 100 l 258
 368 100 374 96 374 75 c 258
 374 25 l 258
 374 0 368 0 348 0 c 258
 -41 0 l 258
 -62 0 -69 1 -69 27 c 258
 -69 67 l 258
 -69 93 -67 100 -46 100 c 258
 59 100 l 258
 101 100 104 100 113 130 c 258
 335 911 l 258
 344 938 348 940 300 940 c 258
 206 940 l 258
 184 940 178 943 178 969 c 258
 178 1005 l 258
 178 1039 189 1040 213 1040 c 258
 509 1040 l 258
 562 1040 569 1036 575 980 c 258
 677 264 l 258
 684 212 677 191 692 191 c 256
 705 191 717 223 740 263 c 258
 1176 1018 l 258
 1186 1036 1194 1040 1224 1040 c 258
 1507 1040 l 258
 1525 1040 1532 1037 1532 1013 c 258
 1532 975 l 258
 1532 943 1526 940 1499 940 c 258
 1384 940 l 258
 1373 940 1369 939 1367 923 c 258
 1211 125 l 258
 1206 103 1188 100 1224 100 c 258
 1353 100 l 258
 1380 100 1381 93 1381 59 c 258
 1381 35 l 258
 1381 1 1374 0 1347 0 c 258
 903 0 l 258
 882 0 878 6 878 33 c 258
 878 62 l 258
 878 94 882 100 909 100 c 258
 1032 100 l 258
 1048 100 1047 106 1049 128 c 258
 1182 815 l 258
 1197 875 1229 901 1215 901 c 256
 1202 901 1194 872 1166 826 c 258
EndSplineSet
EndChar

StartChar: n.sc
Encoding: 65609 -1 511
Width: 1309
VWidth: 0
Flags: MW
LayerCount: 2
Fore
SplineSet
267 940 m 258
 198 940 l 258
 177 940 172 943 172 968 c 258
 172 1014 l 258
 172 1036 177 1040 193 1040 c 258
 448 1040 l 258
 477 1040 485 1035 495 1017 c 258
 885 294 l 258
 896 276 897 262 905 262 c 256
 912 262 912 272 917 296 c 258
 1058 917 l 258
 1063 935 1056 940 1050 940 c 258
 952 940 l 258
 927 940 925 946 925 979 c 258
 925 1010 l 258
 925 1036 932 1040 951 1040 c 258
 1342 1040 l 258
 1363 1040 1365 1033 1365 1006 c 258
 1365 970 l 258
 1365 945 1361 940 1340 940 c 258
 1218 940 l 258
 1193 940 1194 938 1190 920 c 258
 986 1 l 258
 984 -10 982 -14 968 -14 c 258
 880 -14 l 258
 863 -14 857 -9 851 1 c 258
 414 845 l 258
 403 863 400 873 394 873 c 256
 387 873 389 863 384 842 c 258
 215 120 l 258
 209 88 206 100 242 100 c 258
 354 100 l 258
 371 100 381 98 381 74 c 258
 381 37 l 258
 381 2 373 0 347 0 c 258
 -33 0 l 258
 -51 0 -55 3 -55 25 c 258
 -55 68 l 258
 -55 93 -53 100 -34 100 c 258
 90 100 l 258
 113 100 111 103 115 120 c 258
 298 909 l 258
 305 935 313 940 267 940 c 258
EndSplineSet
EndChar

StartChar: o.sc
Encoding: 65613 -1 515
Width: 1247
VWidth: 0
Flags: MW
LayerCount: 2
Fore
SplineSet
721 1064 m 257
 1020 1064 1185 899 1185 626 c 256
 1185 296 891 -25 527 -25 c 257
 527 66 l 257
 796 66 977 381 977 614 c 256
 977 820 921 973 721 973 c 257
 721 1064 l 257
527 -25 m 257
 228 -25 62 140 62 413 c 256
 62 743 357 1064 721 1064 c 257
 721 973 l 257
 452 973 270 658 270 425 c 256
 270 219 327 66 527 66 c 257
 527 -25 l 257
EndSplineSet
EndChar

StartChar: p.sc
Encoding: 65622 -1 524
Width: 1054
VWidth: 0
Flags: MW
LayerCount: 2
Fore
SplineSet
418 547 m 258
 572 547 l 258
 708 547 856 630 856 794 c 256
 856 856 836 940 700 940 c 258
 503 940 l 258
 478 940 478 939 474 920 c 258
 391 574 l 258
 384 549 375 547 418 547 c 258
353 415 m 258
 285 131 l 258
 278 106 251 100 299 100 c 258
 404 100 l 258
 427 100 432 95 432 65 c 258
 432 25 l 258
 432 2 423 0 404 0 c 258
 -29 0 l 258
 -49 0 -55 0 -55 25 c 258
 -55 69 l 258
 -55 100 -48 100 -23 100 c 258
 83 100 l 258
 103 100 101 109 104 133 c 258
 292 917 l 258
 298 938 320 940 284 940 c 258
 188 940 l 258
 170 940 166 946 166 967 c 258
 166 1009 l 258
 166 1037 175 1040 196 1040 c 258
 705 1040 l 258
 993 1040 1055 927 1055 800 c 256
 1055 560 859 446 583 446 c 258
 402 446 l 258
 365 446 360 440 353 415 c 258
EndSplineSet
EndChar

StartChar: q.sc
Encoding: 65623 -1 525
Width: 1292
VWidth: 0
Flags: HMW
LayerCount: 2
Fore
SplineSet
270 425 m 256
 270 219 331 66 543 66 c 256
 829 66 1022 381 1022 614 c 256
 1022 820 962 973 750 973 c 256
 464 973 270 658 270 425 c 256
125 -225 m 256
 125 -103 244 -28 360 -28 c 256
 565 -28 647 -273 746 -273 c 256
 793 -273 807 -250 807 -227 c 256
 807 -190 766 -190 766 -142 c 256
 766 -93 822 -65 868 -65 c 256
 931 -65 972 -103 972 -152 c 256
 972 -289 862 -357 746 -357 c 256
 526 -357 481 -112 352 -112 c 256
 306 -112 290 -133 290 -156 c 256
 290 -189 332 -195 332 -243 c 256
 332 -292 281 -320 235 -320 c 256
 172 -320 125 -280 125 -225 c 256
62 413 m 256
 62 743 373 1064 757 1064 c 256
 1062 1064 1230 899 1230 626 c 256
 1230 296 920 -25 536 -25 c 256
 231 -25 62 140 62 413 c 256
EndSplineSet
EndChar

StartChar: r.sc
Encoding: 65624 -1 526
Width: 1223
VWidth: 0
Flags: HMW
LayerCount: 2
Fore
SplineSet
1147 114 m 256
 1115 35 1040 -18 931 -18 c 256
 781 -18 743 39 743 114 c 256
 743 182 776 265 776 333 c 256
 776 408 746 465 624 465 c 258
 396 465 l 258
 373 465 366 460 362 444 c 258
 286 123 l 258
 281 104 261 100 294 100 c 258
 414 100 l 258
 429 100 438 96 438 76 c 258
 438 36 l 258
 438 8 437 0 414 0 c 258
 -36 0 l 258
 -51 0 -55 5 -55 25 c 258
 -55 69 l 258
 -55 94 -52 100 -32 100 c 258
 89 100 l 258
 103 100 102 106 105 127 c 258
 292 919 l 258
 297 937 325 940 293 940 c 258
 196 940 l 258
 171 940 169 947 169 978 c 258
 169 1007 l 258
 169 1039 176 1040 202 1040 c 258
 764 1040 l 258
 1050 1040 1132 932 1132 810 c 256
 1132 691 1034 589 844 544 c 256
 812 537 795 537 795 532 c 256
 795 526 811 527 844 517 c 256
 936 488 962 435 962 373 c 256
 962 297 924 211 924 161 c 256
 924 131 948 107 989 107 c 256
 1022 107 1062 114 1090 145 c 256
 1101 162 1104 162 1123 151 c 258
 1135 144 l 258
 1153 134 1155 134 1147 114 c 256
431 574 m 258
 656 574 l 258
 774 574 951 657 951 795 c 256
 951 882 897 940 761 940 c 258
 510 940 l 258
 483 940 478 935 473 917 c 258
 398 598 l 258
 391 575 390 574 431 574 c 258
EndSplineSet
EndChar

